<svg width="414" height="896" viewBox="0 0 414 896" fill="none" xmlns="http://www.w3.org/2000/svg">
<g clip-path="url(#clip0_1_2)">
<mask id="mask0_1_2" style="mask-type:luminance" maskUnits="userSpaceOnUse" x="0" y="0" width="414" height="896">
<path d="M414 0H0V896H414V0Z" fill="white"/>
</mask>
<g mask="url(#mask0_1_2)">
<path d="M45.78 723.74L41.26 711.76L51.96 704.72L47.45 692.74L58.15 685.7L53.63 673.72L64.33 666.68M53.39 726.22L48.87 714.23L59.57 707.2L55.06 695.21L65.76 688.18L61.24 676.19L71.94 669.16" stroke="#B2DDBB" stroke-width="2.29" stroke-dasharray="2 2"/>
<path d="M79.53 385.25C79.1774 385.895 78.9554 386.604 78.8766 387.335C78.7979 388.067 78.8639 388.806 79.071 389.512C79.4892 390.937 80.4565 392.138 81.76 392.85C83.0636 393.562 84.5966 393.727 86.0219 393.309C87.4471 392.891 88.6479 391.924 89.36 390.62C90.0721 389.316 90.2372 387.783 89.819 386.358C89.4008 384.933 88.4336 383.732 87.13 383.02C85.8265 382.308 84.2934 382.143 82.8682 382.561C81.4429 382.979 80.2421 383.946 79.53 385.25ZM93.57 392.93C93.1847 393.577 92.9338 394.294 92.8321 395.04C92.7305 395.786 92.7804 396.545 92.9786 397.271C93.1769 397.997 93.5196 398.676 93.9861 399.267C94.4527 399.858 95.0336 400.348 95.6941 400.71C96.3546 401.071 97.0811 401.295 97.8302 401.369C98.5794 401.443 99.3358 401.365 100.054 401.14C100.773 400.915 101.438 400.548 102.011 400.06C102.585 399.572 103.053 398.973 103.39 398.3C103.775 397.653 104.026 396.936 104.128 396.19C104.229 395.444 104.18 394.685 103.981 393.959C103.783 393.233 103.44 392.554 102.974 391.963C102.507 391.372 101.926 390.882 101.266 390.52C100.605 390.159 99.8789 389.935 99.1298 389.861C98.3807 389.787 97.6243 389.865 96.9059 390.09C96.1875 390.315 95.5218 390.682 94.9486 391.17C94.3755 391.658 93.9066 392.257 93.57 392.93ZM107.6 400.6C107.247 401.245 107.024 401.954 106.945 402.686C106.865 403.417 106.931 404.157 107.137 404.863C107.344 405.57 107.688 406.228 108.149 406.801C108.61 407.375 109.18 407.852 109.825 408.205C110.47 408.558 111.179 408.781 111.911 408.86C112.642 408.94 113.382 408.874 114.088 408.668C114.795 408.461 115.453 408.117 116.026 407.656C116.6 407.195 117.077 406.625 117.43 405.98C117.783 405.335 118.006 404.626 118.085 403.894C118.165 403.163 118.099 402.423 117.893 401.717C117.686 401.01 117.342 400.352 116.881 399.779C116.42 399.205 115.85 398.728 115.205 398.375C114.56 398.022 113.851 397.799 113.119 397.72C112.388 397.64 111.648 397.706 110.942 397.912C110.236 398.119 109.577 398.463 109.004 398.924C108.43 399.385 107.953 399.955 107.6 400.6ZM121.64 408.28C120.927 409.584 120.76 411.117 121.177 412.543C121.595 413.97 122.561 415.172 123.865 415.885C125.169 416.598 126.702 416.765 128.128 416.348C129.555 415.93 130.757 414.964 131.47 413.66C132.183 412.356 132.35 410.823 131.933 409.397C131.515 407.97 130.549 406.768 129.245 406.055C127.941 405.342 126.408 405.175 124.982 405.592C123.555 406.01 122.353 406.976 121.64 408.28ZM43.78 383.93C43.3947 384.577 43.1438 385.294 43.0422 386.04C42.9405 386.786 42.9904 387.545 43.1886 388.271C43.3869 388.997 43.7296 389.676 44.1961 390.267C44.6627 390.858 45.2436 391.348 45.9041 391.71C46.5646 392.071 47.2911 392.295 48.0402 392.369C48.7894 392.443 49.5458 392.365 50.2642 392.14C50.9826 391.915 51.6482 391.548 52.2214 391.06C52.7946 390.572 53.2634 389.973 53.6 389.3C53.9853 388.653 54.2363 387.936 54.3379 387.19C54.4395 386.444 54.3897 385.685 54.1914 384.959C53.9931 384.233 53.6505 383.554 53.1839 382.963C52.7173 382.372 52.1365 381.882 51.476 381.52C50.8155 381.159 50.0889 380.935 49.3398 380.861C48.5907 380.787 47.8343 380.865 47.1159 381.09C46.3975 381.315 45.7318 381.682 45.1586 382.17C44.5855 382.658 44.1166 383.257 43.78 383.93ZM57.81 391.6C57.0966 392.904 56.9302 394.437 57.3475 395.863C57.7647 397.29 58.7315 398.492 60.035 399.205C61.3386 399.918 62.8721 400.085 64.2983 399.668C65.7245 399.25 66.9266 398.284 67.64 396.98C67.9933 396.335 68.2159 395.626 68.2953 394.894C68.3747 394.163 68.3092 393.423 68.1026 392.717C67.896 392.01 67.5523 391.352 67.0911 390.779C66.63 390.205 66.0605 389.728 65.415 389.375C64.7696 389.022 64.0609 388.799 63.3294 388.72C62.5979 388.64 61.8579 388.706 61.1517 388.912C60.4455 389.119 59.7869 389.463 59.2136 389.924C58.6402 390.385 58.1633 390.955 57.81 391.6ZM71.85 399.28C71.4968 399.925 71.2741 400.634 71.1947 401.366C71.1154 402.097 71.1809 402.837 71.3875 403.543C71.5941 404.25 71.9378 404.908 72.3989 405.481C72.86 406.055 73.4296 406.532 74.075 406.885C74.7205 407.238 75.4292 407.461 76.1607 407.54C76.8922 407.62 77.6321 407.554 78.3383 407.348C79.0445 407.141 79.7031 406.797 80.2765 406.336C80.8498 405.875 81.3268 405.305 81.68 404.66C82.0333 404.015 82.2559 403.306 82.3353 402.574C82.4147 401.843 82.3492 401.103 82.1426 400.397C81.936 399.691 81.5923 399.032 81.1311 398.459C80.67 397.885 80.1005 397.408 79.455 397.055C78.8096 396.702 78.1009 396.479 77.3694 396.4C76.6379 396.32 75.8979 396.386 75.1917 396.592C74.4855 396.799 73.8269 397.143 73.2536 397.604C72.6802 398.065 72.2033 398.635 71.85 399.28ZM85.89 406.96C85.517 407.606 85.2768 408.32 85.1836 409.06C85.0903 409.8 85.1459 410.552 85.347 411.27C85.5481 411.988 85.8907 412.659 86.3547 413.243C86.8187 413.828 87.3947 414.313 88.0489 414.671C88.7032 415.03 89.4224 415.254 90.1645 415.331C90.9065 415.407 91.6564 415.335 92.37 415.118C93.0837 414.9 93.7468 414.543 94.3203 414.066C94.8939 413.589 95.3664 413.002 95.71 412.34C96.083 411.694 96.3232 410.98 96.4165 410.24C96.5097 409.5 96.4542 408.748 96.2531 408.03C96.0519 407.312 95.7093 406.641 95.2453 406.057C94.7813 405.473 94.2053 404.987 93.5511 404.629C92.8969 404.27 92.1776 404.046 91.4356 403.969C90.6935 403.893 89.9437 403.965 89.23 404.182C88.5163 404.4 87.8533 404.757 87.2797 405.234C86.7061 405.711 86.2337 406.298 85.89 406.96Z" fill="#E9B847"/>
<path d="M217.06 915.21L167.75 905.47L218.535 884.21L217.06 915.21Z" fill="#DD9F9F"/>
<path d="M412.98 639.03C411.511 638.813 410.015 639.188 408.822 640.073C407.63 640.958 406.837 642.281 406.62 643.75C406.403 645.219 406.778 646.715 407.663 647.908C408.548 649.1 409.871 649.893 411.34 650.11C412.068 650.218 412.809 650.181 413.522 650.002C414.236 649.823 414.907 649.506 415.498 649.067C416.088 648.629 416.587 648.079 416.964 647.448C417.342 646.817 417.592 646.118 417.7 645.39C417.808 644.663 417.771 643.921 417.592 643.208C417.413 642.494 417.095 641.823 416.657 641.233C416.219 640.642 415.669 640.143 415.038 639.766C414.407 639.388 413.708 639.138 412.98 639.03ZM410.63 654.85C409.902 654.742 409.161 654.779 408.448 654.958C407.734 655.137 407.063 655.455 406.472 655.893C405.882 656.331 405.383 656.881 405.005 657.512C404.628 658.143 404.378 658.843 404.27 659.57C404.162 660.298 404.199 661.039 404.378 661.753C404.557 662.466 404.875 663.137 405.313 663.728C405.751 664.318 406.301 664.817 406.932 665.195C407.563 665.572 408.262 665.822 408.99 665.93C410.459 666.148 411.955 665.772 413.148 664.887C414.34 664.002 415.133 662.679 415.35 661.21C415.567 659.741 415.192 658.245 414.307 657.052C413.422 655.86 412.099 655.068 410.63 654.85ZM408.29 670.68C406.821 670.461 405.325 670.835 404.131 671.719C402.937 672.604 402.144 673.926 401.925 675.395C401.706 676.864 402.08 678.36 402.964 679.554C403.848 680.748 405.171 681.541 406.64 681.76C408.109 681.979 409.605 681.605 410.799 680.721C411.993 679.837 412.786 678.514 413.005 677.045C413.224 675.576 412.85 674.08 411.966 672.886C411.081 671.692 409.759 670.899 408.29 670.68ZM405.94 686.51C405.212 686.402 404.471 686.438 403.757 686.616C403.044 686.794 402.372 687.111 401.781 687.549C401.19 687.987 400.691 688.537 400.312 689.168C399.934 689.798 399.683 690.497 399.575 691.225C399.467 691.953 399.503 692.694 399.681 693.408C399.859 694.121 400.176 694.793 400.614 695.384C401.052 695.975 401.602 696.474 402.233 696.853C402.863 697.231 403.562 697.482 404.29 697.59C405.018 697.698 405.759 697.662 406.473 697.484C407.186 697.306 407.858 696.989 408.449 696.551C409.04 696.113 409.539 695.563 409.918 694.932C410.296 694.302 410.547 693.603 410.655 692.875C410.763 692.148 410.727 691.406 410.549 690.692C410.371 689.979 410.054 689.307 409.616 688.716C409.178 688.125 408.628 687.626 407.997 687.247C407.367 686.869 406.668 686.618 405.94 686.51ZM401.85 605.03C401.109 604.889 400.347 604.9 399.61 605.061C398.873 605.222 398.176 605.531 397.561 605.968C396.946 606.405 396.426 606.962 396.031 607.605C395.637 608.249 395.377 608.965 395.266 609.711C395.156 610.458 395.197 611.218 395.388 611.948C395.579 612.678 395.915 613.362 396.377 613.959C396.839 614.556 397.416 615.053 398.075 615.421C398.734 615.789 399.46 616.02 400.21 616.1C400.951 616.241 401.713 616.23 402.45 616.069C403.187 615.908 403.884 615.599 404.499 615.162C405.114 614.725 405.634 614.168 406.029 613.525C406.423 612.882 406.683 612.165 406.794 611.419C406.904 610.673 406.863 609.912 406.672 609.182C406.481 608.452 406.145 607.768 405.683 607.171C405.221 606.574 404.644 606.077 403.985 605.709C403.326 605.341 402.6 605.11 401.85 605.03ZM399.5 620.85C398.031 620.633 396.535 621.008 395.342 621.893C394.15 622.778 393.357 624.101 393.14 625.57C392.923 627.039 393.298 628.535 394.183 629.728C395.068 630.92 396.391 631.713 397.86 631.93C398.588 632.038 399.329 632.001 400.042 631.822C400.756 631.643 401.427 631.326 402.018 630.887C402.608 630.449 403.107 629.899 403.484 629.268C403.862 628.637 404.112 627.938 404.22 627.21C404.328 626.483 404.291 625.741 404.112 625.028C403.933 624.314 403.615 623.643 403.177 623.052C402.739 622.462 402.189 621.963 401.558 621.586C400.927 621.208 400.228 620.958 399.5 620.85ZM397.16 636.68C395.691 636.461 394.195 636.835 393.001 637.719C391.807 638.604 391.014 639.926 390.795 641.395C390.576 642.864 390.95 644.36 391.834 645.554C392.718 646.748 394.041 647.541 395.51 647.76C396.979 647.979 398.475 647.605 399.669 646.721C400.863 645.837 401.656 644.514 401.875 643.045C402.094 641.576 401.72 640.08 400.836 638.886C399.951 637.692 398.629 636.899 397.16 636.68ZM394.81 652.51C394.07 652.372 393.31 652.384 392.574 652.546C391.839 652.708 391.144 653.016 390.531 653.453C389.918 653.89 389.399 654.446 389.005 655.088C388.612 655.73 388.352 656.444 388.241 657.189C388.13 657.933 388.17 658.693 388.359 659.422C388.548 660.15 388.883 660.833 389.342 661.43C389.801 662.027 390.376 662.525 391.032 662.894C391.688 663.263 392.412 663.497 393.16 663.58C393.9 663.719 394.66 663.706 395.396 663.544C396.131 663.382 396.826 663.074 397.439 662.637C398.052 662.2 398.571 661.644 398.965 661.002C399.358 660.361 399.618 659.646 399.729 658.901C399.84 658.157 399.8 657.397 399.611 656.668C399.422 655.94 399.087 655.257 398.628 654.66C398.169 654.063 397.594 653.565 396.938 653.196C396.282 652.827 395.558 652.593 394.81 652.51Z" fill="#B2DDBB"/>
<path d="M305.8 122.21L315.36 113.68L325.78 121.14L335.34 112.62L345.75 120.07L355.31 111.55L365.72 119" stroke="#DD9F9F" stroke-dasharray="3 2"/>
<path d="M287.28 241.54C287.883 241.962 288.563 242.26 289.281 242.419C289.999 242.578 290.742 242.594 291.466 242.465C292.19 242.337 292.882 242.068 293.502 241.672C294.122 241.277 294.658 240.763 295.08 240.16C295.502 239.557 295.8 238.877 295.959 238.159C296.118 237.441 296.134 236.699 296.005 235.974C295.877 235.25 295.608 234.558 295.212 233.938C294.817 233.318 294.303 232.782 293.7 232.36C293.097 231.938 292.417 231.64 291.699 231.481C290.981 231.322 290.239 231.306 289.514 231.435C288.79 231.563 288.098 231.832 287.478 232.228C286.858 232.623 286.322 233.137 285.9 233.74C285.478 234.343 285.18 235.023 285.021 235.741C284.862 236.459 284.846 237.202 284.975 237.926C285.103 238.65 285.372 239.342 285.768 239.962C286.163 240.582 286.677 241.118 287.28 241.54ZM296.45 228.43C297.051 228.881 297.736 229.206 298.465 229.386C299.193 229.567 299.951 229.599 300.693 229.48C301.434 229.362 302.144 229.096 302.781 228.698C303.417 228.299 303.967 227.777 304.398 227.162C304.828 226.547 305.131 225.851 305.287 225.117C305.444 224.383 305.451 223.624 305.309 222.887C305.166 222.15 304.877 221.449 304.458 220.826C304.039 220.203 303.499 219.67 302.87 219.26C302.269 218.809 301.584 218.484 300.855 218.304C300.127 218.123 299.369 218.091 298.627 218.21C297.886 218.328 297.176 218.594 296.539 218.992C295.903 219.391 295.353 219.913 294.922 220.528C294.492 221.143 294.189 221.839 294.033 222.573C293.876 223.307 293.869 224.066 294.012 224.803C294.154 225.54 294.443 226.241 294.862 226.864C295.281 227.487 295.821 228.02 296.45 228.43ZM305.63 215.32C306.231 215.771 306.916 216.096 307.645 216.276C308.373 216.457 309.131 216.489 309.873 216.37C310.614 216.252 311.324 215.986 311.961 215.588C312.597 215.189 313.147 214.667 313.578 214.052C314.008 213.437 314.311 212.741 314.467 212.007C314.624 211.273 314.631 210.514 314.489 209.777C314.346 209.04 314.057 208.339 313.638 207.716C313.219 207.093 312.679 206.56 312.05 206.15C311.449 205.699 310.764 205.374 310.035 205.194C309.307 205.013 308.549 204.981 307.807 205.1C307.066 205.218 306.356 205.484 305.719 205.882C305.083 206.281 304.533 206.803 304.102 207.418C303.672 208.033 303.369 208.729 303.213 209.463C303.056 210.197 303.049 210.956 303.192 211.693C303.334 212.43 303.623 213.131 304.042 213.754C304.461 214.377 305.001 214.91 305.63 215.32ZM314.8 202.22C315.403 202.642 316.083 202.94 316.801 203.099C317.519 203.258 318.262 203.274 318.986 203.145C319.71 203.017 320.402 202.748 321.022 202.352C321.642 201.957 322.178 201.443 322.6 200.84C323.022 200.237 323.32 199.557 323.479 198.839C323.638 198.121 323.654 197.378 323.525 196.654C323.397 195.93 323.128 195.238 322.732 194.618C322.337 193.998 321.823 193.462 321.22 193.04C320.617 192.618 319.937 192.32 319.219 192.161C318.501 192.002 317.758 191.986 317.034 192.115C316.31 192.243 315.618 192.512 314.998 192.908C314.378 193.303 313.842 193.817 313.42 194.42C312.998 195.023 312.7 195.703 312.541 196.421C312.382 197.139 312.366 197.882 312.495 198.606C312.623 199.33 312.892 200.022 313.288 200.642C313.683 201.262 314.197 201.798 314.8 202.22Z" stroke="#B2DDBB" stroke-width="2.49" stroke-dasharray="3 2"/>
<path d="M147.59 190.71L125.81 195.64L124.897 181.372L147.59 190.71Z" stroke="#B2DDBB" stroke-width="1.77" stroke-dasharray="2 2"/>
</g>
</g>
<defs>
<clipPath id="clip0_1_2">
<rect width="414" height="896" fill="white"/>
</clipPath>
</defs>
</svg>
