<?xml version="1.0" encoding="utf-8"?>
<!-- Generator: Adobe Illustrator 26.3.1, SVG Export Plug-In . SVG Version: 6.00 Build 0)  -->
<svg version="1.1" id="图层_1" xmlns="http://www.w3.org/2000/svg" xmlns:xlink="http://www.w3.org/1999/xlink" x="0px" y="0px"
	 viewBox="0 0 1149 702" style="enable-background:new 0 0 1149 702;" xml:space="preserve">
<style type="text/css">
	.st0{fill:#FFFFFF;}
</style>
<g>
	<path class="st0" d="M812.48,603.73c40.17-1.96,80.09-9.1,118.45-21.2c8.5-2.68,16.97-5.62,24.84-9.83
		c15.02-8.03,27.23-20.32,39.21-32.43c7.09-7.16,14.26-14.45,19.17-23.25c6.76-12.12,8.77-26.46,7.87-40.31
		c-0.89-13.85-4.53-27.37-8.47-40.67c-9.68-32.64-22.26-66.11-47.55-88.9c-11.7-10.55-26.39-18.56-42.13-19.28
		c-15.74-0.72-32.37,7.03-39.33,21.16l1.63-3.87c9.4-25.84-19.98-62.7-36.51-72.53c-16.53-9.83-35.34-15.29-54.29-18.58
		c-29.08-5.06-61.74-4.3-84.6,14.38c-4.61,3.77-8.95,8.81-8.92,14.76l1.2-2.13c-1.93-18.07-7.88-35.47-14.8-52.26
		c-5.24-12.71-11.12-25.28-19.45-36.21c-8.33-10.93-19.31-20.2-32.35-24.55c-11.52-3.85-23.99-3.69-36.06-2.41
		c-13.12,1.39-26.1,4.05-38.7,7.95c-9.74,3.01-19.39,6.82-27.48,13.02c-8.09,6.2-14.54,15.05-16.1,25.12l-0.27,2.43
		c-2.21-20.01-11.8-38.68-24.52-54.29s-28.5-28.42-44.68-40.41c-37.14-27.54-80.75-52.32-126.77-47.84
		c-37.05,3.61-70.18,26.21-94.25,54.61c-50.3,59.36-64.69,146.95-36.03,219.28l0.93-4.23c-23.31,29.03-46.33,61.39-48.44,98.56
		c-1.29,22.79,5.53,45.33,14.84,66.17c9.31,20.84,21.13,40.47,30.69,61.2c8.15,17.68,12.68,35.92,34.58,35.61
		c26.09-0.37,52.18-0.29,78.28-0.29c55.8,0,111.61,0,167.41,0c116.26,0,232.51,0,348.77,0L886,314.86"/>
</g>
</svg>
