<?xml version="1.0" encoding="utf-8"?>
<!-- Generator: Adobe Illustrator 26.3.1, SVG Export Plug-In . SVG Version: 6.00 Build 0)  -->
<svg version="1.1" id="图层_1" xmlns="http://www.w3.org/2000/svg" xmlns:xlink="http://www.w3.org/1999/xlink" x="0px" y="0px"
	 viewBox="0 0 1149 702" style="enable-background:new 0 0 1149 702;" xml:space="preserve">
<style type="text/css">
	.st0{fill:#FFFFFF;}
</style>
<g>
	<g>
		<path class="st0" d="M205.76,508.21c-60.18-94.64-97.4-210.42-71.65-319.58c6.38-27.04,16.73-53.58,33.96-75.37
			c26.96-34.1,68.56-53.79,110.75-64.29c84.62-21.07,177.14-8.46,253.03,34.48c20.05,11.34,39.21,24.94,53.68,42.86
			c14.14,17.51,23.27,38.46,31.51,59.39c12.63,32.08,23.71,66.88,16.29,100.54l-3.15-3.75c36.37-19.12,78.4-24.8,119.49-25.07
			c14.17-0.09,28.5,0.45,42.15,4.25c39.4,10.98,66.3,46.68,87.61,81.59c7.1,11.63,13.96,23.51,18.59,36.32
			c4.92,13.61,7.23,28.01,8.82,42.39c1.8,16.23,2.68,32.97-2.11,48.58s-16.29,30.01-32.05,34.25l1.84,2.02
			c-223.44,0-446.88,0-670.31,0L205.76,508.21z"/>
	</g>
</g>
</svg>
