<svg width="1920" height="1080" viewBox="0 0 1920 1080" fill="none" xmlns="http://www.w3.org/2000/svg">
<g clip-path="url(#clip0_1_2)">
<mask id="mask0_1_2" style="mask-type:luminance" maskUnits="userSpaceOnUse" x="0" y="0" width="1920" height="1080">
<path d="M1920 0H0V1080H1920V0Z" fill="white"/>
</mask>
<g mask="url(#mask0_1_2)">
<path d="M1339.73 467.311C1394.78 467.311 1439.41 422.682 1439.41 367.63C1439.41 312.578 1394.78 267.949 1339.73 267.949C1284.68 267.949 1240.05 312.578 1240.05 367.63C1240.05 422.682 1284.68 467.311 1339.73 467.311Z" stroke="#E9B847" stroke-width="2.23" stroke-dasharray="3 2"/>
<path d="M1788.58 359.03C1838.29 359.03 1878.58 318.736 1878.58 269.03C1878.58 219.324 1838.29 179.03 1788.58 179.03C1738.87 179.03 1698.58 219.324 1698.58 269.03C1698.58 318.736 1738.87 359.03 1788.58 359.03Z" fill="#B2DDBB"/>
<path d="M1865.8 421L1861.86 433.18L1849.1 432.01L1845.16 444.2L1832.41 443.03L1828.47 455.21L1815.72 454.04M1861.39 414.32L1857.45 426.5L1844.7 425.33L1840.76 437.52L1828 436.35L1824.06 448.53L1811.31 447.37" stroke="#B2DDBB" stroke-width="1.94" stroke-dasharray="3 2"/>
<path d="M847.78 1002.54C897.486 1002.54 937.78 962.246 937.78 912.54C937.78 862.834 897.486 822.54 847.78 822.54C798.074 822.54 757.78 862.834 757.78 912.54C757.78 962.246 798.074 1002.54 847.78 1002.54Z" fill="#DD9F9F"/>
<path d="M152.55 204.1C152.425 204.831 152.445 205.579 152.611 206.301C152.777 207.023 153.085 207.706 153.516 208.308C153.948 208.911 154.495 209.422 155.125 209.811C155.756 210.201 156.457 210.462 157.189 210.578C157.921 210.695 158.669 210.665 159.389 210.49C160.11 210.315 160.788 209.999 161.385 209.56C161.982 209.122 162.487 208.568 162.869 207.933C163.25 207.298 163.502 206.593 163.61 205.86C163.735 205.13 163.715 204.381 163.549 203.659C163.383 202.937 163.075 202.254 162.644 201.652C162.212 201.049 161.665 200.538 161.035 200.149C160.404 199.759 159.703 199.498 158.971 199.382C158.239 199.265 157.491 199.295 156.771 199.47C156.051 199.645 155.372 199.961 154.775 200.4C154.178 200.839 153.673 201.392 153.291 202.027C152.91 202.662 152.658 203.367 152.55 204.1ZM168.35 206.61C168.218 207.343 168.234 208.096 168.397 208.823C168.56 209.55 168.866 210.238 169.298 210.845C169.73 211.452 170.278 211.967 170.912 212.36C171.545 212.752 172.251 213.014 172.987 213.131C173.723 213.247 174.475 213.216 175.198 213.038C175.922 212.86 176.603 212.54 177.201 212.095C177.799 211.651 178.303 211.092 178.682 210.45C179.061 209.809 179.309 209.098 179.41 208.36C179.542 207.627 179.526 206.874 179.363 206.147C179.2 205.42 178.894 204.733 178.462 204.125C178.03 203.518 177.482 203.003 176.848 202.61C176.215 202.218 175.509 201.956 174.773 201.839C174.037 201.723 173.285 201.754 172.562 201.932C171.838 202.11 171.157 202.43 170.559 202.875C169.961 203.319 169.457 203.878 169.078 204.52C168.699 205.161 168.451 205.872 168.35 206.61ZM184.15 209.12C184.018 209.853 184.034 210.606 184.197 211.333C184.36 212.06 184.666 212.748 185.098 213.355C185.53 213.962 186.078 214.477 186.712 214.87C187.345 215.262 188.051 215.524 188.787 215.641C189.523 215.757 190.275 215.726 190.998 215.548C191.722 215.37 192.403 215.05 193.001 214.605C193.599 214.161 194.103 213.602 194.482 212.96C194.861 212.319 195.109 211.608 195.21 210.87C195.342 210.137 195.326 209.384 195.163 208.657C195 207.93 194.694 207.243 194.262 206.635C193.83 206.028 193.282 205.513 192.648 205.12C192.015 204.728 191.309 204.466 190.573 204.349C189.837 204.233 189.085 204.264 188.362 204.442C187.638 204.62 186.957 204.94 186.359 205.385C185.761 205.829 185.257 206.388 184.878 207.03C184.499 207.671 184.251 208.382 184.15 209.12ZM199.95 211.63C199.835 212.357 199.864 213.099 200.036 213.815C200.208 214.53 200.52 215.205 200.952 215.8C201.385 216.395 201.931 216.9 202.558 217.284C203.186 217.668 203.883 217.925 204.61 218.04C205.337 218.155 206.079 218.126 206.795 217.954C207.51 217.782 208.185 217.47 208.78 217.038C209.375 216.605 209.88 216.059 210.264 215.432C210.648 214.804 210.905 214.107 211.02 213.38C211.135 212.653 211.106 211.911 210.934 211.195C210.762 210.48 210.45 209.805 210.018 209.21C209.585 208.615 209.039 208.111 208.412 207.726C207.784 207.342 207.087 207.085 206.36 206.97C205.633 206.855 204.891 206.884 204.175 207.056C203.46 207.228 202.785 207.54 202.19 207.972C201.595 208.405 201.091 208.951 200.706 209.578C200.322 210.206 200.065 210.903 199.95 211.63ZM118.44 214.89C118.308 215.623 118.324 216.376 118.487 217.103C118.65 217.83 118.956 218.518 119.388 219.125C119.82 219.732 120.368 220.247 121.002 220.64C121.635 221.032 122.341 221.294 123.077 221.411C123.813 221.527 124.565 221.496 125.288 221.318C126.012 221.14 126.693 220.82 127.291 220.375C127.889 219.931 128.393 219.372 128.772 218.73C129.151 218.089 129.399 217.378 129.5 216.64C129.632 215.907 129.616 215.154 129.453 214.427C129.29 213.7 128.984 213.012 128.552 212.405C128.12 211.798 127.572 211.283 126.938 210.89C126.305 210.498 125.599 210.236 124.863 210.119C124.127 210.003 123.375 210.034 122.652 210.212C121.928 210.39 121.247 210.71 120.649 211.155C120.051 211.599 119.547 212.158 119.168 212.8C118.789 213.441 118.541 214.152 118.44 214.89ZM134.24 217.39C134.115 218.12 134.135 218.869 134.301 219.591C134.467 220.313 134.775 220.996 135.206 221.598C135.638 222.201 136.185 222.712 136.815 223.101C137.446 223.491 138.147 223.752 138.879 223.868C139.611 223.985 140.359 223.955 141.079 223.78C141.8 223.605 142.478 223.289 143.075 222.85C143.672 222.412 144.177 221.858 144.559 221.223C144.94 220.588 145.193 219.883 145.3 219.15C145.425 218.42 145.405 217.671 145.239 216.949C145.073 216.227 144.765 215.544 144.334 214.942C143.902 214.339 143.355 213.828 142.725 213.439C142.094 213.049 141.393 212.788 140.661 212.672C139.929 212.555 139.181 212.585 138.461 212.76C137.741 212.935 137.062 213.251 136.465 213.69C135.868 214.129 135.363 214.682 134.981 215.317C134.6 215.952 134.348 216.657 134.24 217.39ZM150.04 219.9C149.915 220.63 149.935 221.379 150.101 222.101C150.267 222.823 150.575 223.506 151.006 224.108C151.438 224.711 151.985 225.222 152.615 225.611C153.246 226.001 153.947 226.262 154.679 226.378C155.411 226.495 156.159 226.465 156.879 226.29C157.6 226.115 158.278 225.799 158.875 225.36C159.472 224.922 159.977 224.368 160.359 223.733C160.74 223.098 160.993 222.393 161.1 221.66C161.225 220.93 161.205 220.181 161.039 219.459C160.873 218.737 160.565 218.054 160.134 217.452C159.702 216.849 159.155 216.338 158.525 215.949C157.894 215.559 157.193 215.298 156.461 215.182C155.729 215.065 154.981 215.095 154.261 215.27C153.541 215.445 152.862 215.761 152.265 216.2C151.668 216.639 151.163 217.192 150.781 217.827C150.4 218.462 150.148 219.167 150.04 219.9ZM165.84 222.41C165.715 223.141 165.735 223.889 165.901 224.611C166.067 225.333 166.375 226.016 166.806 226.618C167.238 227.221 167.785 227.732 168.415 228.121C169.046 228.511 169.747 228.772 170.479 228.888C171.211 229.005 171.959 228.975 172.679 228.8C173.4 228.625 174.078 228.309 174.675 227.87C175.272 227.432 175.777 226.878 176.159 226.243C176.54 225.608 176.792 224.903 176.9 224.17C177.025 223.44 177.005 222.691 176.839 221.969C176.673 221.247 176.365 220.564 175.934 219.962C175.502 219.359 174.955 218.848 174.325 218.459C173.694 218.069 172.993 217.808 172.261 217.692C171.529 217.575 170.781 217.605 170.061 217.78C169.341 217.955 168.662 218.271 168.065 218.71C167.468 219.149 166.963 219.702 166.581 220.337C166.2 220.972 165.948 221.677 165.84 222.41Z" fill="#B2DDBB"/>
</g>
</g>
<defs>
<clipPath id="clip0_1_2">
<rect width="1920" height="1080" fill="white"/>
</clipPath>
</defs>
</svg>
