<svg width="183" height="100" viewBox="0 0 183 100" fill="none" xmlns="http://www.w3.org/2000/svg">
<path d="M83.0335 67.3828C83.1281 67.3963 83.1551 67.3963 83.2496 67.4098C84.8977 67.6395 86.5188 67.9367 87.7616 68.4906C88.9099 69.0039 89.5854 69.6388 90.1933 70.7871C91.1254 72.5162 91.1929 74.9479 90.3419 76.7986C89.7069 78.163 88.329 79.3113 87.0592 79.9192C85.7488 80.5541 84.4519 80.8648 82.966 81.0269C80.3722 81.3106 77.5624 80.7702 75.2253 79.649C73.8474 78.9735 72.1588 77.8118 71.3077 76.3123C70.6863 75.218 70.6998 73.7861 71.4698 72.7459C72.6856 71.0843 75.2793 70.7195 77.2381 70.7871C78.7376 70.8411 81.4259 71.3004 82.8309 71.8138C83.2226 71.9624 84.6681 72.5162 84.9248 72.7729C85.1004 72.9485 85.222 73.2187 85.1409 73.4619C84.8167 74.448 82.4121 74.9749 81.7096 75.083C79.8454 75.3666 78.8862 74.6642 76.7653 73.8266C76.2385 73.624 75.536 73.3943 75.0092 73.3403C74.05 73.2457 72.8883 73.5159 72.6991 74.5696C72.6046 75.11 73.2395 75.6098 73.7258 75.8259C74.8606 76.3123 75.7792 76.4879 76.9004 76.5014C80.1966 76.5554 83.9116 76.0151 86.6134 74.0968C86.9781 73.8266 87.3429 73.4484 87.3564 72.962C87.3699 71.9759 85.6407 71.3815 85.6407 71.3815C83.817 70.625 80.4668 70.2602 78.7376 70.1116C76.9274 69.9495 74.0635 69.7199 73.3746 69.6118C72.6721 69.5172 71.9021 69.3687 71.2942 69.0985C70.6863 68.8148 70.0784 68.1934 69.9028 67.5179C69.5921 66.2751 69.9838 64.7621 70.6728 63.7624C72.483 61.1687 76.6978 60.1825 79.8589 59.7908C82.9119 59.4125 87.8562 59.4125 90.8552 61.0066C91.3145 61.2497 91.5577 61.4794 91.4631 61.9792C91.274 62.9114 90.5715 63.5058 89.7204 63.7759C88.8289 64.0596 86.9916 64.1677 86.1811 64.2217C82.5607 64.4244 78.1973 64.3163 74.7525 65.2619C74.4823 65.343 74.0095 65.4646 73.8609 65.6402C73.3205 66.2211 74.8606 66.3967 75.1983 66.4642C75.2929 66.4912 75.3199 66.4912 75.4144 66.5047L83.0335 67.3963M61.5137 51.2666C61.5137 51.2666 62.1081 50.3885 62.5944 49.7131C63.486 48.4973 65.1206 46.8086 66.3364 45.7549C66.7146 45.4307 67.1469 45.0795 67.1469 45.0795C67.1469 45.0795 66.458 45.147 66.0662 45.2281C65.1341 45.4037 63.7832 46.3088 63.0942 46.9032C61.973 47.8623 60.7437 49.4294 61.2975 50.8073C61.3786 51.0099 61.5002 51.2666 61.5002 51.2666M67.7413 52.9417C69.511 52.8201 71.1726 52.3068 72.7261 51.4557C74.2392 50.6047 76.4681 48.9566 76.2385 47.0113C76.1709 46.3764 75.7522 45.9035 75.2388 45.6874C74.5634 45.3902 74.2121 45.4442 73.3476 45.7009C72.7261 45.89 72.4425 45.9981 71.8481 46.3358C70.1054 47.349 67.6468 49.5104 66.3094 51.2396C65.9987 51.6449 65.688 52.1042 65.4448 52.4149C65.2962 52.604 65.1746 52.7796 65.1881 52.8337C65.2422 53.0228 67.0659 53.0093 67.7683 52.9687M63.2563 56.2784C63.0672 56.4676 62.8781 56.9404 62.6755 57.2781C62.5674 57.4537 62.3648 57.6969 62.2432 57.7779C61.7839 58.1157 61.3921 58.1292 60.9463 57.7374C60.3249 57.1835 59.9602 56.3325 59.9331 55.4949C59.9196 55.1302 59.9872 54.7249 59.9196 54.4277C59.8116 53.9144 59.2847 53.374 59.0145 52.8877C58.6903 52.3068 58.4201 51.2936 58.3931 50.6317C58.285 48.5918 59.3522 46.7141 60.7572 45.2281C62.1621 43.7286 63.9993 42.4858 66.0122 41.6347C67.9034 40.8377 70.6728 40.2973 72.7532 41.0133C73.4286 41.2429 74.3742 41.8238 74.8471 42.4182C74.9416 42.5398 75.0362 42.6749 75.1307 42.7424C75.2253 42.7965 75.4685 42.8235 75.6576 42.864C76.3195 42.9856 77.2787 43.4854 77.6704 43.8096C78.454 44.4851 78.8862 45.1335 79.0754 46.0656C79.4671 47.9569 78.3864 50.0238 77.1436 51.2801C75.0227 53.4416 72.9288 54.9681 70.227 56.0353C69.0382 56.4946 67.1875 56.9404 65.8366 56.8188C65.4178 56.7783 64.9855 56.6702 64.5802 56.6432C64.3776 56.6297 63.6076 56.427 63.5265 56.373C63.432 56.292 63.2969 56.2244 63.2699 56.2514M65.688 60.4392C65.769 60.4527 65.9041 60.4932 66.0122 60.5338C66.9578 60.8985 67.3496 61.7766 67.5927 62.7357C68.1331 64.9782 68.3627 69.936 68.4573 71.8813C68.5248 73.3403 68.5654 74.7722 68.6194 76.2177C68.6734 77.4335 68.768 79.0546 68.5113 80.2029C68.4168 80.6081 68.1466 81.0945 67.7548 81.3376C67.309 81.6213 66.2824 81.6483 65.715 81.5267C64.3236 81.243 63.8778 80.3379 63.6751 78.9735C63.2023 75.6909 63.432 69.2471 63.7157 66.5318C63.8102 65.6402 64.1479 62.7628 64.6208 61.5469C64.7829 61.1417 65.1206 60.3176 65.715 60.4392M23.3913 65.8968C23.3913 65.8968 21.3244 66.0454 19.8925 66.2075C18.0823 66.3967 14.678 66.9911 12.7057 67.6935C12.1113 67.9097 10.9225 68.4095 10.8145 69.0174C10.7064 69.6523 11.0981 70.1387 11.5304 70.652C11.7871 70.9492 13.2055 72.3136 13.5973 72.6513C15.2724 74.0428 18.6497 76.1907 21.1488 77.2444C21.9999 77.5956 23.4183 78.109 23.4183 78.109C23.4183 78.109 23.3103 74.0698 23.3373 70.0981C23.3508 68.0042 23.3913 65.9239 23.3913 65.9239M61.3516 67.5314C61.4732 68.6121 61.1895 70.6655 61.1489 70.9357C61.0544 71.5571 60.5951 72.9891 60.514 73.1647C60.1358 74.0428 59.7575 74.7587 59.3658 75.4612C58.6903 76.677 57.0692 78.6223 56.1101 79.4464C52.5437 82.5264 47.0321 84.2826 42.2904 84.8635C39.0753 85.2552 35.3873 85.2012 31.983 84.5663C30.8078 84.3501 29.0651 83.9448 29.0651 83.9448C29.0651 83.9448 29.0651 84.6473 29.0111 85.1336C28.984 85.3633 28.8219 85.9442 28.7274 86.1333C28.4842 86.6466 28.0789 86.9033 27.4845 87.0249C26.7686 87.16 26.0121 87.2005 25.3501 86.9168C24.2694 86.4575 23.8776 85.4443 23.6885 84.2826C23.5399 83.3505 23.3778 81.7294 23.3778 81.7294C23.3778 81.7294 22.5673 81.3511 21.8918 81.0134C19.825 79.9867 17.8526 78.7574 16.1235 77.4876C15.6507 77.1363 13.5973 75.4207 13.138 74.9884C11.8682 73.7861 10.7334 72.5838 9.85532 71.0438C9.17987 69.8415 8.99075 68.7743 9.50409 67.5044C10.2066 65.7347 12.7598 64.3973 14.5024 63.6273C15.7858 63.06 19.7574 61.7631 21.4055 61.5199C22.189 61.4119 23.3913 61.1957 23.4724 61.1417C23.4994 61.1147 23.5264 61.1012 23.5399 61.0741C23.5805 61.0201 23.648 59.2639 23.6345 58.6155C23.621 57.9806 24.1073 53.8333 24.2559 52.9552C24.337 52.4824 24.7017 50.6587 25.0664 50.1724C25.3096 49.8482 25.7284 49.8752 26.0796 50.0913C27.9709 51.2666 28.5518 55.3463 28.6868 57.4267C28.7679 58.6966 28.8084 60.6013 28.8084 60.6013C28.8084 60.6013 30.9834 60.5338 32.3208 60.5743C33.6176 60.6013 35.0496 60.804 36.4005 61.0201C38.1296 61.2903 41.4934 62.0333 43.4116 63.0059C45.0057 63.8165 46.4917 65.1674 46.9645 66.5993C47.4103 67.9097 47.3428 68.8283 46.6673 70.0171C45.8973 71.3545 44.4518 72.3541 42.9794 72.4352C42.5471 72.4622 40.899 72.2461 40.3856 71.8543C40.183 71.6922 40.1965 71.422 40.3451 71.2194C40.3991 71.1518 41.1692 70.7466 41.6285 70.5034C41.8581 70.3818 42.0472 70.2467 42.2229 70.0846C42.6011 69.7469 42.9388 69.3822 42.8983 68.9634C42.8443 68.4095 42.2634 68.0583 41.696 67.8421C39.0617 66.8019 33.8068 65.9239 31.2671 65.7753C30.2674 65.7212 28.8625 65.6672 28.8625 65.6672L29.1597 79.6895C29.1597 79.6895 30.3349 79.9057 31.2536 80.0678C31.7804 80.1488 34.0229 80.3515 34.6173 80.365C39.1563 80.4865 44.2087 80.0813 48.3694 78.1225C50.1932 77.2579 51.8683 76.1907 53.1381 74.7452C54.8132 72.827 55.6913 70.2062 55.4482 67.4639C55.1915 64.4784 53.0841 60.9255 51.409 58.7506C46.9645 53.0363 39.3454 48.3352 32.645 45.5793C25.8094 42.7695 19.0414 41.1484 11.7871 40.8782C9.90936 40.8107 5.82964 40.9052 3.77628 41.4726C3.47908 41.5536 3.18188 41.6617 2.9117 41.7158C2.69556 41.7698 2.35783 41.9184 2.26327 41.9859C2.20923 42.0265 2.1552 42.0805 2.1552 42.0805C2.1552 42.0805 2.27678 42.148 2.39836 42.2021C2.6145 42.2966 3.53311 42.3507 4.01944 42.4452C4.45173 42.5263 4.88401 42.7424 5.05963 43.0667C5.22174 43.3639 5.24876 43.5935 5.04612 43.8502C4.57331 44.4176 2.81714 44.323 2.04713 44.2014C1.23659 44.0798 0.236922 43.8232 0.0613051 43.1207C-0.154839 42.2966 0.236922 41.4861 0.669209 40.7431C1.52028 39.2436 2.73608 38.4736 4.51927 37.9738C7.05896 37.2713 10.2606 36.785 12.6517 36.6904C18.0688 36.4878 23.2022 37.4334 28.4572 39.0275C31.4562 39.9326 35.4008 41.4591 38.2782 42.8505C40.3451 43.8502 43.6008 45.6739 45.438 46.8762C46.0189 47.2544 49.3961 49.7401 49.9095 50.1724C51.0037 51.064 52.4356 52.3473 53.4758 53.3875C55.4752 55.3733 57.9743 58.4264 59.1901 60.831C59.4873 61.4119 59.7035 61.9792 60.0817 62.6547C60.2168 62.8843 60.7707 64.2623 60.8517 64.654C60.9463 65.0458 61.0814 65.6267 61.0949 65.6537C61.1219 65.8698 61.3786 67.0451 61.3516 67.5044M129.491 64.3973C126.951 64.9782 120.278 65.3024 120.278 65.3024L119.44 67.9367C119.44 67.9367 122.777 67.653 125.209 67.9097C125.209 67.9097 125.992 67.8151 126.087 68.8013C126.114 69.7199 126.006 70.706 126.006 70.706C126.006 70.706 125.952 71.3004 125.114 71.449C124.195 71.5976 117.927 71.8408 117.927 71.8408L116.914 75.2721C116.914 75.2721 116.536 76.0691 117.387 75.8395C118.17 75.6233 124.749 74.394 125.6 74.5696C126.519 74.7993 127.532 76.0151 127.235 77.1363C126.884 78.5142 120.318 82.702 116.333 82.4048C116.333 82.4048 114.239 82.5399 112.456 79.703C110.808 77.0012 113.077 71.8948 113.077 71.8948C113.077 71.8948 112.037 69.5037 112.794 68.6932C112.794 68.6932 113.24 68.2879 114.563 68.1934L116.171 64.8702C116.171 64.8702 114.334 64.9917 113.253 63.6543C112.24 62.371 112.159 61.7901 112.929 61.4389C113.766 61.0336 121.386 59.6422 126.641 59.8178C126.641 59.8178 128.464 59.6422 130.045 62.8033C130.045 62.8033 130.815 64.0866 129.504 64.3973M109.754 77.1904C109.079 78.7709 107.309 80.4595 105.094 79.4058C102.919 78.3521 99.4469 71.2464 99.4469 71.2464C99.4469 71.2464 98.123 68.5986 97.8799 68.6662C97.8799 68.6662 97.5962 68.1528 97.4206 71.0438C97.245 73.9212 97.4611 79.5544 96.2993 80.4325C95.2051 81.3241 93.8947 80.9729 93.2058 79.9327C92.5844 78.906 92.3277 76.4879 92.6654 72.219C93.0707 67.9502 94.0568 63.4112 95.3267 61.9927C96.5965 60.5878 97.6097 61.601 98.0015 61.9792C98.0015 61.9792 99.6901 63.5193 102.486 68.0178L102.973 68.8553C102.973 68.8553 105.512 73.1106 105.769 73.0971C105.769 73.0971 105.972 73.2863 106.161 73.1512C106.431 73.0701 106.323 71.7057 106.323 71.7057C106.323 71.7057 105.796 67.0721 103.486 59.2099C103.486 59.2099 103.135 58.2372 103.378 57.3186C103.608 56.3865 104.54 56.8323 104.54 56.8323C104.54 56.8323 108.133 58.6425 109.862 64.4784C111.591 70.3143 110.43 75.5828 109.741 77.1904M148.349 73.6915C146.715 76.5419 142.108 82.4994 135.975 81.0945C133.949 85.9982 132.247 90.956 131.288 98.386C131.288 98.386 131.071 99.8314 129.869 99.3316C128.68 98.9128 126.722 96.9405 126.33 94.2117C125.898 90.6183 127.505 84.5528 130.774 77.5956C129.815 76.0421 129.167 73.8266 129.734 70.679C129.734 70.679 130.558 64.8296 136.435 59.5476C136.435 59.5476 137.137 58.9397 137.542 59.1288C137.988 59.318 137.785 61.2227 137.421 62.1413C137.056 63.06 134.435 67.5855 134.435 67.5855C134.435 67.5855 132.801 70.652 133.26 73.0566C136.34 68.3149 143.351 58.7641 147.688 61.7766C149.146 62.8168 149.822 65.0863 149.822 67.5314C149.822 69.6794 149.309 71.9624 148.349 73.678M147.08 66.167C147.08 66.167 146.836 64.2893 144.999 66.3561C143.419 68.1123 140.555 71.395 138.258 75.853C140.676 75.5828 143 74.2724 143.702 73.6105C144.851 72.5973 147.512 69.8415 147.08 66.1805M182.095 65.7482H170.869C170.639 61.9387 170.18 58.2102 169.464 54.3872C169.383 53.9954 169.045 53.6982 168.64 53.6982H166.046C165.817 53.6982 165.614 53.7928 165.465 53.9819C165.317 54.1575 165.263 54.3872 165.303 54.6168C166.033 58.3183 166.506 61.9657 166.735 65.7618H155.928C155.428 65.7618 155.009 66.167 155.009 66.6669V69.0039C155.009 69.5037 155.415 69.9225 155.928 69.9225H166.884C166.897 70.5034 166.897 71.0167 166.897 71.5031C166.897 74.8668 166.749 77.6362 166.411 80.7702C166.384 81.0134 166.465 81.2566 166.627 81.4322C166.789 81.6078 167.019 81.7159 167.249 81.7159H169.653C170.126 81.7159 170.504 81.3646 170.558 80.8918C170.882 77.7442 171.031 74.9344 171.031 71.5031C171.031 71.0167 171.031 70.5034 171.018 69.9225H182.095C182.595 69.9225 183 69.5172 183 69.0039V66.6669C183 66.167 182.595 65.7482 182.081 65.7482H182.095Z" fill="#101C50"/>
<path d="M31.929 34.4614C31.7669 34.7046 31.7264 34.9883 31.8209 35.2585C31.9155 35.5286 32.1181 35.7313 32.3883 35.8258L34.4011 36.5013C34.5227 36.5418 34.6443 36.5553 34.7659 36.5553C35.1441 36.5553 35.4954 36.3662 35.698 36.0555C42.2904 26.3695 51.2063 18.3047 61.5002 12.739C72.1182 6.98415 84.1547 3.94462 96.2993 3.94462C110.97 3.94462 125.128 8.2675 137.245 16.4675C149.065 24.4513 158.238 35.5962 163.79 48.6999C163.952 49.0917 164.344 49.3483 164.763 49.3483H167.167C167.438 49.3483 167.708 49.2132 167.856 48.9836C168.019 48.7539 168.046 48.4567 167.937 48.2001C162.223 34.1237 152.551 22.1142 139.96 13.4955C127.073 4.6606 111.983 0 96.2858 0C70.3486 0 46.2891 12.8876 31.9155 34.4749L31.929 34.4614Z" fill="url(#paint0_linear_1_4)"/>
<defs>
<linearGradient id="paint0_linear_1_4" x1="165.891" y1="33.5858" x2="33.8893" y2="15.7607" gradientUnits="userSpaceOnUse">
<stop stop-color="#101C50"/>
<stop offset="0.239216" stop-color="#0D267A"/>
<stop offset="0.501961" stop-color="#085AA4"/>
<stop offset="0.65098" stop-color="#058BBF"/>
<stop offset="1" stop-color="#B1FFFF"/>
</linearGradient>
</defs>
</svg>
