<?xml version="1.0" encoding="utf-8"?>
<!-- Generator: Adobe Illustrator 26.3.1, SVG Export Plug-In . SVG Version: 6.00 Build 0)  -->
<svg version="1.1" id="图层_1" xmlns="http://www.w3.org/2000/svg" xmlns:xlink="http://www.w3.org/1999/xlink" x="0px" y="0px"
	 viewBox="0 0 2500 386" style="enable-background:new 0 0 2500 386;" xml:space="preserve">
<style type="text/css">
	.st0{fill:#BAB6B6;}
</style>
<path class="st0" d="M410.2,384.1H307.7V237.9h-66.4v146.3H135.9V6.8h105.1v140.9h66.4V6.8H410L410.2,384.1z M880.8,385.8
	c105.1,0,190.9-87.4,190.9-193.9C1071.7,83.6,986,0,880.8,0C774.3,0,720.5,77.3,707.5,108.9c0-46.7-46.7-102.6-100.9-102.6H431.3
	v377.8h163.1c66.4,0,113.1-56.8,113.1-106.5C722.2,308.4,774.5,385.8,880.8,385.8z M581.3,232.5c15.2,0,27.3,14.7,27.3,31.5
	c0,17.5-12.2,32.5-27.3,32.5h-52.3v-64H581.3z M581.3,90.7c15.2,0,27.3,14.7,27.3,31.5s-12.2,31.5-27.3,31.5h-52.3V90.7L581.3,90.7z
	 M650.4,191.8c12.2-0.7,32-14.7,39.5-23.1c-2.8,10-2.8,42.1,0,52.3C681.5,208.7,662.6,194.2,650.4,191.8z M785,191.8
	c0-53.3,43.2-96.3,96.5-96c53.5,0.5,96,43.9,95.3,97.4c-0.7,52.6-43.2,94.9-96,94.9C827.8,288.3,785,245.3,785,191.8L785,191.8z
	 M880.8,267.5c40.9,0,75.2-33.6,75.2-75.7s-34.3-75.2-75.2-75.2c-42.1,0-75.7,33.2-75.7,75.2S838.5,267.5,880.8,267.5z"/>
<path class="st0" d="M1620.3,140.2c-2.1-91.6-66.8-140-146.3-140c-43.5,0-82.7,14.5-109.6,43c-26.6-28.3-65.9-43-109.6-43
	c-79.4,0-144.2,48.6-146.3,140.2v209.4c0,19.2,15.7,34.6,34.6,34.6h32.7c3.3,0,5.8-2.6,5.8-5.8V140.9c1.4-45.1,33.4-68.9,72.9-68.9
	s71.5,23.8,72.9,68.9v208.7c0,19.2,15.7,34.6,34.6,34.6h32.7c3.3,0,5.8-2.6,5.8-5.8V140.7c1.4-45.1,33.4-68.9,72.9-68.9
	c39.5,0,71.5,23.8,72.9,68.9v208.7c0,19.2,15.7,34.6,34.6,34.6h32.7c3.3,0,5.8-2.6,5.8-5.8L1620.3,140.2
	C1620.6,140.7,1620.3,140.4,1620.3,140.2z M2358.7,6.3h-55.6c-15.4,0-29.7,7.7-38.6,20.6l-61.5,91.1c-8.2,11.9-25.5,11.9-33.6,0
	L2108,26.9c-8.4-12.9-23.1-20.6-38.6-20.6h-55.6c-3.5,0-5.4,3.7-3.7,6.8l109.8,162.9c7.9,11.7,7.9,27.1,0,38.8l-109.8,162.9
	c-2.1,2.8,0.2,6.8,3.7,6.8h55.6c15.4,0,29.7-7.7,38.6-20.6l61.5-91.1c8.2-11.9,25.5-11.9,33.6,0l61.5,91.1
	c8.4,12.9,23.1,20.6,38.6,20.6h55.6c3.5,0,5.4-3.7,3.7-6.8L2252.6,215c-7.9-11.7-7.9-27.1,0-38.8l109.8-162.9
	C2364.1,10.3,2362,6.3,2358.7,6.3z M1984.8,6.3h-32.7c-16.6,0-30.6,11.7-34.1,27.3C1888.8,11.2,1852.4,0,1812.9,0
	c-96,0-173.8,66.8-173.8,193s77.8,193,173.8,193c39.3,0,75.5-11.2,104.7-32.9c1.6,17.5,16.4,31.5,34.6,31.5h32.7
	c3.3,0,5.8-2.6,5.8-5.8V12.2C1990.5,8.9,1988.1,6.3,1984.8,6.3z M1812.9,314.3c-57.2,0-103.7-41.8-103.7-121s46.5-121,103.7-121
	c57.2,0,103.7,41.8,103.7,121S1870.1,314.3,1812.9,314.3z"/>
</svg>
