<svg width="385" height="50" viewBox="0 0 385 50" fill="none" xmlns="http://www.w3.org/2000/svg">
<path d="M12.2378 41.453C10.8989 41.6876 9.53656 41.7579 8.12725 41.9453L3.82865 29.3829V42.4844C2.48983 42.625 1.26842 42.8125 0 43V19H3.57043L8.45604 32.6174V19H12.2378V41.453ZM19.6368 27.7891C21.0933 27.7891 23.3247 27.7187 24.6635 27.7187V31.4687C22.9957 31.4687 21.0462 31.4687 19.6368 31.539V37.1172C21.8449 36.9766 24.0529 36.789 26.2842 36.7186V40.3278L15.8785 41.1483V19H26.2842V22.75H19.6368V27.7891ZM40.2602 22.7501H36.361V40.0001C35.0926 40.0001 33.8242 40.0001 32.6029 40.0468V22.7501H28.7038V19H40.2603L40.2602 22.7501ZM46.3673 27.5313H51.5114V31.2812H46.3673V39.7892H42.6792V19H53.1792V22.75H46.3673V27.5313ZM59.2863 36.5078C61.4238 36.5545 63.5847 36.7189 65.6753 36.8359V40.5391C62.3164 40.328 58.9575 40.1173 55.5281 40.0468V19H59.2863V36.5078ZM68.8463 40.7969C70.0442 40.8673 71.3126 40.9376 72.534 41.078V19H68.8463V40.7969ZM89 19L84.2316 30.4141L89 43C87.5905 42.8125 86.1812 42.5547 84.7718 42.3203L82.0707 35.3829L79.3227 41.7579C77.9601 41.5234 76.6447 41.453 75.2826 41.2655L80.1213 30.2733L75.7522 19H79.7922L82.2585 25.3047L84.8894 19H89Z" fill="#D81F26"/>
<path d="M162.687 32.7787C162.736 32.7857 162.75 32.7857 162.799 32.7927C163.651 32.9115 164.489 33.0652 165.132 33.3516C165.726 33.6171 166.075 33.9454 166.39 34.5393C166.872 35.4335 166.906 36.691 166.466 37.6481C166.138 38.3537 165.425 38.9476 164.769 39.262C164.091 39.5903 163.42 39.751 162.652 39.8348C161.311 39.9815 159.857 39.7021 158.649 39.1222C157.936 38.7729 157.063 38.1721 156.623 37.3966C156.301 36.8307 156.308 36.0902 156.707 35.5523C157.335 34.693 158.677 34.5043 159.69 34.5393C160.465 34.5672 161.855 34.8047 162.582 35.0702C162.785 35.1471 163.532 35.4335 163.665 35.5662C163.756 35.657 163.819 35.7968 163.777 35.9225C163.609 36.4325 162.365 36.705 162.002 36.7609C161.038 36.9076 160.542 36.5443 159.445 36.1111C159.173 36.0064 158.809 35.8876 158.537 35.8597C158.041 35.8107 157.44 35.9505 157.342 36.4954C157.293 36.7749 157.622 37.0333 157.873 37.1451C158.46 37.3966 158.935 37.4874 159.515 37.4944C161.22 37.5224 163.141 37.2429 164.538 36.2509C164.727 36.1111 164.915 35.9156 164.922 35.664C164.929 35.154 164.035 34.8467 164.035 34.8467C163.092 34.4554 161.359 34.2668 160.465 34.1899C159.529 34.1061 158.048 33.9873 157.692 33.9314C157.328 33.8825 156.93 33.8057 156.616 33.666C156.301 33.5193 155.987 33.1979 155.896 32.8486C155.736 32.2059 155.938 31.4234 156.294 30.9064C157.231 29.5651 159.41 29.055 161.045 28.8525C162.624 28.6568 165.181 28.6568 166.732 29.4812C166.969 29.607 167.095 29.7257 167.046 29.9842C166.948 30.4663 166.585 30.7737 166.145 30.9134C165.684 31.0601 164.734 31.116 164.315 31.1439C162.442 31.2488 160.186 31.1929 158.404 31.6819C158.265 31.7238 158.02 31.7867 157.943 31.8775C157.664 32.1779 158.46 32.2687 158.635 32.3037C158.684 32.3176 158.698 32.3176 158.747 32.3246L162.687 32.7857M151.558 24.4442C151.558 24.4442 151.865 23.99 152.117 23.6408C152.578 23.012 153.423 22.1387 154.052 21.5938C154.247 21.4261 154.471 21.2445 154.471 21.2445C154.471 21.2445 154.115 21.2794 153.912 21.3213C153.43 21.4121 152.731 21.8802 152.375 22.1876C151.795 22.6836 151.16 23.494 151.446 24.2066C151.488 24.3114 151.551 24.4442 151.551 24.4442M154.778 25.3104C155.694 25.2476 156.553 24.9821 157.356 24.5419C158.139 24.1019 159.291 23.2495 159.173 22.2435C159.138 21.9152 158.921 21.6706 158.656 21.5589C158.306 21.4052 158.125 21.4331 157.678 21.5658C157.356 21.6636 157.21 21.7195 156.902 21.8942C156.001 22.4182 154.73 23.5359 154.038 24.4302C153.877 24.6398 153.717 24.8773 153.591 25.038C153.514 25.1358 153.451 25.2266 153.458 25.2546C153.486 25.3524 154.429 25.3454 154.792 25.3244M152.459 27.036C152.361 27.1339 152.263 27.3784 152.159 27.553C152.103 27.6438 151.998 27.7696 151.935 27.8115C151.698 27.9862 151.495 27.9932 151.264 27.7906C150.943 27.5041 150.754 27.064 150.74 26.6308C150.733 26.4422 150.768 26.2326 150.733 26.0789C150.678 25.8135 150.405 25.534 150.265 25.2825C150.098 24.9821 149.958 24.4581 149.944 24.1158C149.888 23.0609 150.44 22.0898 151.167 21.3213C151.893 20.5458 152.843 19.9031 153.884 19.463C154.862 19.0508 156.294 18.7713 157.37 19.1416C157.72 19.2604 158.209 19.5608 158.453 19.8682C158.502 19.9311 158.551 20.0009 158.6 20.0358C158.649 20.0638 158.775 20.0778 158.872 20.0987C159.215 20.1616 159.711 20.4201 159.913 20.5877C160.319 20.9371 160.542 21.2724 160.64 21.7544C160.842 22.7325 160.284 23.8014 159.641 24.4511C158.544 25.569 157.461 26.3584 156.064 26.9103C155.449 27.1478 154.492 27.3784 153.793 27.3155C153.577 27.2946 153.353 27.2386 153.144 27.2247C153.039 27.2177 152.641 27.1129 152.599 27.0849C152.55 27.0431 152.48 27.0081 152.466 27.0221M153.717 29.1878C153.758 29.1948 153.828 29.2157 153.884 29.2367C154.373 29.4253 154.576 29.8794 154.702 30.3754C154.981 31.5352 155.1 34.0991 155.149 35.1051C155.184 35.8597 155.205 36.6002 155.233 37.3477C155.26 37.9765 155.309 38.8148 155.177 39.4087C155.128 39.6182 154.988 39.8698 154.785 39.9955C154.555 40.1422 154.024 40.1562 153.73 40.0933C153.011 39.9466 152.78 39.4785 152.676 38.7729C152.431 37.0753 152.55 33.7428 152.697 32.3386C152.745 31.8775 152.92 30.3895 153.165 29.7607C153.248 29.5511 153.423 29.1249 153.73 29.1878M131.843 32.0102C131.843 32.0102 130.774 32.0871 130.033 32.1709C129.097 32.2687 127.337 32.5761 126.317 32.9394C126.009 33.0512 125.394 33.3097 125.338 33.624C125.283 33.9524 125.485 34.2039 125.709 34.4694C125.841 34.6231 126.575 35.3287 126.778 35.5033C127.644 36.223 129.39 37.3337 130.683 37.8787C131.123 38.0603 131.857 38.3258 131.857 38.3258C131.857 38.3258 131.801 36.2369 131.815 34.1829C131.822 33.1001 131.843 32.0242 131.843 32.0242M151.474 32.8556C151.537 33.4144 151.39 34.4764 151.369 34.6161C151.32 34.9375 151.083 35.678 151.041 35.7688C150.845 36.223 150.65 36.5932 150.447 36.9565C150.098 37.5852 149.259 38.5913 148.763 39.0174C146.919 40.6103 144.069 41.5185 141.616 41.8189C139.954 42.0215 138.046 41.9936 136.286 41.6652C135.678 41.5534 134.777 41.3438 134.777 41.3438C134.777 41.3438 134.777 41.7071 134.749 41.9586C134.735 42.0774 134.651 42.3778 134.602 42.4756C134.476 42.7411 134.267 42.8738 133.959 42.9367C133.589 43.0066 133.198 43.0275 132.856 42.8808C132.297 42.6433 132.094 42.1193 131.996 41.5185C131.919 41.0365 131.836 40.1981 131.836 40.1981C131.836 40.1981 131.416 40.0025 131.067 39.8278C129.998 39.2969 128.978 38.6611 128.084 38.0044C127.84 37.8228 126.778 36.9355 126.54 36.712C125.883 36.0902 125.297 35.4684 124.842 34.672C124.493 34.0502 124.395 33.4983 124.661 32.8416C125.024 31.9264 126.345 31.2347 127.246 30.8365C127.909 30.5432 129.963 29.8725 130.816 29.7467C131.221 29.6908 131.843 29.579 131.885 29.5511C131.899 29.5371 131.912 29.5302 131.919 29.5161C131.94 29.4882 131.975 28.58 131.968 28.2447C131.961 27.9163 132.213 25.7715 132.29 25.3174C132.332 25.0729 132.52 24.1298 132.709 23.8783C132.835 23.7106 133.051 23.7246 133.233 23.8363C134.211 24.4442 134.511 26.554 134.581 27.6299C134.623 28.2866 134.644 29.2716 134.644 29.2716C134.644 29.2716 135.769 29.2367 136.461 29.2577C137.131 29.2716 137.872 29.3765 138.57 29.4882C139.465 29.6279 141.204 30.0122 142.196 30.5152C143.021 30.9344 143.789 31.633 144.034 32.3735C144.264 33.0512 144.229 33.5263 143.88 34.141C143.482 34.8327 142.734 35.3496 141.973 35.3916C141.749 35.4055 140.897 35.2938 140.631 35.0912C140.527 35.0073 140.533 34.8676 140.61 34.7628C140.638 34.7279 141.037 34.5183 141.274 34.3925C141.393 34.3297 141.491 34.2598 141.581 34.176C141.777 34.0013 141.952 33.8127 141.931 33.5961C141.903 33.3097 141.602 33.128 141.309 33.0162C139.947 32.4783 137.229 32.0242 135.916 31.9474C135.399 31.9194 134.672 31.8915 134.672 31.8915L134.826 39.1432C134.826 39.1432 135.434 39.255 135.909 39.3388C136.181 39.3807 137.341 39.4855 137.648 39.4925C139.996 39.5553 142.608 39.3458 144.76 38.3328C145.703 37.8857 146.57 37.3337 147.226 36.5862C148.093 35.5942 148.547 34.2388 148.421 32.8206C148.288 31.2767 147.198 29.4393 146.332 28.3145C144.034 25.3594 140.093 22.9282 136.628 21.5029C133.093 20.0498 129.593 19.2115 125.841 19.0718C124.87 19.0368 122.761 19.0857 121.699 19.3791C121.545 19.421 121.391 19.4769 121.252 19.5049C121.14 19.5328 120.965 19.6097 120.916 19.6446C120.888 19.6656 120.86 19.6935 120.86 19.6935C120.86 19.6935 120.923 19.7284 120.986 19.7564C121.098 19.8053 121.573 19.8333 121.824 19.8821C122.048 19.9241 122.272 20.0358 122.362 20.2035C122.446 20.3572 122.46 20.476 122.355 20.6087C122.111 20.9022 121.203 20.8532 120.804 20.7904C120.385 20.7275 119.868 20.5948 119.777 20.2315C119.666 19.8053 119.868 19.3861 120.092 19.0019C120.532 18.2264 121.161 17.8282 122.083 17.5697C123.396 17.2064 125.052 16.9549 126.289 16.906C129.09 16.8012 131.745 17.2903 134.462 18.1147C136.013 18.5827 138.053 19.3722 139.541 20.0917C140.61 20.6087 142.294 21.5519 143.244 22.1736C143.545 22.3692 145.291 23.6547 145.557 23.8783C146.122 24.3394 146.863 25.003 147.401 25.541C148.435 26.5679 149.727 28.1469 150.356 29.3904C150.51 29.6908 150.622 29.9842 150.817 30.3336C150.887 30.4523 151.174 31.1649 151.215 31.3675C151.264 31.5701 151.334 31.8705 151.341 31.8845C151.355 31.9963 151.488 32.6041 151.474 32.8416M186.712 31.2347C185.399 31.5352 181.948 31.7028 181.948 31.7028L181.515 33.0652C181.515 33.0652 183.24 32.9184 184.498 33.0512C184.498 33.0512 184.903 33.0023 184.952 33.5123C184.966 33.9873 184.91 34.4973 184.91 34.4973C184.91 34.4973 184.882 34.8047 184.449 34.8816C183.974 34.9584 180.732 35.0842 180.732 35.0842L180.208 36.8587C180.208 36.8587 180.013 37.2709 180.453 37.1521C180.858 37.0403 184.26 36.4046 184.7 36.4954C185.175 36.6142 185.699 37.2429 185.546 37.8228C185.364 38.5354 181.969 40.7011 179.908 40.5474C179.908 40.5474 178.825 40.6173 177.903 39.1501C177.05 37.7529 178.224 35.1121 178.224 35.1121C178.224 35.1121 177.686 33.8755 178.078 33.4564C178.078 33.4564 178.308 33.2468 178.992 33.1979L179.824 31.4793C179.824 31.4793 178.874 31.5421 178.315 30.8505C177.791 30.1868 177.749 29.8864 178.147 29.7048C178.58 29.4952 182.521 28.7756 185.239 28.8664C185.239 28.8664 186.181 28.7756 186.999 30.4104C186.999 30.4104 187.397 31.0741 186.719 31.2347M176.505 37.8507C176.156 38.6681 175.241 39.5414 174.095 38.9964C172.971 38.4515 171.175 34.7768 171.175 34.7768C171.175 34.7768 170.49 33.4075 170.365 33.4424C170.365 33.4424 170.218 33.1769 170.127 34.672C170.036 36.1601 170.148 39.0733 169.547 39.5274C168.981 39.9885 168.304 39.8069 167.947 39.2689C167.626 38.738 167.493 37.4874 167.668 35.2798C167.878 33.0721 168.388 30.7248 169.044 29.9912C169.701 29.2646 170.225 29.7886 170.428 29.9842C170.428 29.9842 171.301 30.7807 172.747 33.1071L172.999 33.5402C172.999 33.5402 174.312 35.7409 174.445 35.7339C174.445 35.7339 174.55 35.8317 174.647 35.7619C174.787 35.7199 174.731 35.0143 174.731 35.0143C174.731 35.0143 174.459 32.618 173.264 28.5521C173.264 28.5521 173.082 28.049 173.208 27.574C173.327 27.0919 173.809 27.3225 173.809 27.3225C173.809 27.3225 175.667 28.2586 176.561 31.2767C177.455 34.2947 176.855 37.0194 176.499 37.8507M196.465 36.0413C195.62 37.5154 193.237 40.5963 190.066 39.8698C189.018 42.4057 188.138 44.9697 187.642 48.8121C187.642 48.8121 187.53 49.5596 186.908 49.3011C186.293 49.0846 185.28 48.0646 185.078 46.6534C184.854 44.795 185.685 41.6582 187.376 38.0603C186.88 37.2569 186.545 36.1111 186.838 34.4834C186.838 34.4834 187.264 31.4583 190.304 28.7267C190.304 28.7267 190.667 28.4123 190.876 28.5101C191.107 28.608 191.002 29.593 190.814 30.068C190.625 30.5432 189.269 32.8835 189.269 32.8835C189.269 32.8835 188.424 34.4694 188.662 35.7129C190.254 33.2607 193.88 28.3215 196.123 29.8794C196.877 30.4174 197.227 31.5911 197.227 32.8556C197.227 33.9664 196.961 35.1471 196.465 36.0343M195.809 32.15C195.809 32.15 195.683 31.1789 194.732 32.2477C193.915 33.156 192.434 34.8536 191.246 37.1591C192.497 37.0194 193.699 36.3417 194.062 35.9994C194.656 35.4754 196.032 34.0502 195.809 32.1569M213.917 31.9334H208.111C207.992 29.9633 207.755 28.0351 207.385 26.058C207.343 25.8554 207.168 25.7017 206.959 25.7017H205.617C205.499 25.7017 205.394 25.7506 205.317 25.8484C205.24 25.9392 205.212 26.058 205.233 26.1767C205.61 28.091 205.855 29.9772 205.973 31.9404H200.384C200.126 31.9404 199.909 32.15 199.909 32.4085V33.6171C199.909 33.8755 200.119 34.0921 200.384 34.0921H206.05C206.057 34.3925 206.057 34.658 206.057 34.9095C206.057 36.6491 205.981 38.0813 205.806 39.7021C205.792 39.8278 205.834 39.9536 205.918 40.0444C206.001 40.1352 206.12 40.1911 206.239 40.1911H207.482C207.727 40.1911 207.923 40.0094 207.95 39.7649C208.118 38.1371 208.195 36.684 208.195 34.9095C208.195 34.658 208.195 34.3925 208.188 34.0921H213.917C214.175 34.0921 214.385 33.8825 214.385 33.6171V32.4085C214.385 32.15 214.175 31.9334 213.91 31.9334H213.917Z" fill="#101C50"/>
<path d="M136.258 17.8218C136.174 17.9476 136.153 18.0943 136.202 18.2341C136.251 18.3737 136.356 18.4786 136.495 18.5274L137.536 18.8768C137.599 18.8977 137.662 18.9047 137.725 18.9047C137.921 18.9047 138.102 18.8069 138.207 18.6462C141.616 13.6371 146.227 9.46634 151.551 6.58802C157.042 3.61188 163.267 2.03997 169.547 2.03997C177.134 2.03997 184.456 4.27557 190.722 8.51623C196.835 12.6451 201.579 18.4087 204.45 25.1853C204.534 25.388 204.737 25.5207 204.953 25.5207H206.197C206.337 25.5207 206.477 25.4508 206.553 25.3321C206.637 25.2133 206.651 25.0596 206.595 24.9269C203.64 17.6472 198.638 11.4364 192.127 6.97925C185.462 2.41025 177.658 0 169.54 0C156.127 0 143.684 6.66487 136.251 17.8288L136.258 17.8218Z" fill="url(#paint0_linear_6_6)"/>
<path d="M257.804 43.9309H251.151V34.4415H246.841V43.9374H240V19.4414H246.822V28.5868H251.132V19.4414H257.791L257.804 43.9309ZM288.35 44.0413C295.171 44.0413 300.74 38.3684 300.74 31.4557C300.74 24.4263 295.178 19 288.35 19C281.437 19 277.945 24.0173 277.101 26.0684C277.101 23.0372 274.07 19.4089 270.552 19.4089H259.174V43.9309H269.76C274.07 43.9309 277.101 40.2442 277.101 37.0183C278.055 39.0174 281.45 44.0413 288.35 44.0413ZM268.91 34.091C269.896 34.091 270.682 35.0451 270.682 36.1356C270.682 37.2714 269.89 38.245 268.91 38.245H265.515V34.091H268.91ZM268.91 24.8871C269.896 24.8871 270.682 25.8412 270.682 26.9317C270.682 28.0221 269.89 28.9763 268.91 28.9763H265.515V24.8871H268.91ZM273.395 31.4492C274.187 31.4038 275.472 30.4951 275.959 29.9499C275.777 30.599 275.777 32.6825 275.959 33.3445C275.413 32.5462 274.187 31.605 273.395 31.4492ZM282.131 31.4492C282.131 27.9897 284.935 25.1987 288.395 25.2181C291.867 25.2506 294.626 28.0676 294.581 31.5401C294.535 34.9542 291.777 37.6998 288.35 37.6998C284.909 37.7128 282.131 34.9218 282.131 31.4492ZM288.35 36.3627C291.004 36.3627 293.231 34.1818 293.231 31.4492C293.231 28.7166 291.004 26.5682 288.35 26.5682C285.617 26.5682 283.436 28.7231 283.436 31.4492C283.436 34.1753 285.604 36.3627 288.35 36.3627Z" fill="#696868"/>
<path d="M336.349 28.1C336.212 22.1545 332.013 19.013 326.853 19.013C324.029 19.013 321.485 19.9541 319.739 21.804C318.012 19.9671 315.461 19.013 312.625 19.013C307.471 19.013 303.265 22.1675 303.129 28.113V41.7046C303.129 42.9508 304.148 43.9504 305.375 43.9504H307.497C307.711 43.9504 307.874 43.7816 307.874 43.5739V28.1455C307.965 25.2181 310.042 23.6733 312.605 23.6733C315.169 23.6733 317.246 25.2181 317.337 28.1455V41.6916C317.337 42.9378 318.356 43.9374 319.583 43.9374H321.705C321.92 43.9374 322.082 43.7687 322.082 43.561V28.1325C322.173 25.2051 324.25 23.6604 326.814 23.6604C329.377 23.6604 331.454 25.2051 331.545 28.1325V41.6786C331.545 42.9249 332.564 43.9244 333.791 43.9244H335.914C336.128 43.9244 336.29 43.7557 336.29 43.548L336.349 28.1C336.368 28.1325 336.349 28.113 336.349 28.1ZM384.276 19.4089H380.667C379.668 19.4089 378.74 19.9087 378.162 20.746L374.17 26.6591C373.638 27.4315 372.515 27.4315 371.989 26.6591L368.004 20.746C367.459 19.9087 366.504 19.4089 365.498 19.4089H361.89C361.662 19.4089 361.539 19.6491 361.649 19.8503L368.776 30.4237C369.289 31.1831 369.289 32.1827 368.776 32.9421L361.649 43.5155C361.513 43.6973 361.662 43.9569 361.89 43.9569H365.498C366.498 43.9569 367.426 43.4571 368.004 42.6198L371.996 36.7067C372.528 35.9343 373.651 35.9343 374.177 36.7067L378.168 42.6198C378.714 43.4571 379.668 43.9569 380.674 43.9569H384.283C384.51 43.9569 384.633 43.7167 384.523 43.5155L377.389 32.9551C376.877 32.1957 376.877 31.1961 377.389 30.4367L384.516 19.8633C384.627 19.6685 384.49 19.4089 384.276 19.4089ZM360.007 19.4089H357.885C356.807 19.4089 355.899 20.1683 355.671 21.1809C353.776 19.727 351.414 19 348.85 19C342.619 19 337.569 23.3358 337.569 31.5271C337.569 39.7184 342.619 44.0543 348.85 44.0543C351.401 44.0543 353.75 43.3273 355.645 41.9188C355.749 43.0547 356.71 43.9634 357.891 43.9634H360.014C360.228 43.9634 360.39 43.7946 360.39 43.5869V19.7919C360.377 19.5777 360.221 19.4089 360.007 19.4089ZM348.85 39.4004C345.137 39.4004 342.119 36.6873 342.119 31.5466C342.119 26.4059 345.137 23.6928 348.85 23.6928C352.562 23.6928 355.581 26.4059 355.581 31.5466C355.581 36.6873 352.562 39.4004 348.85 39.4004Z" fill="#696868"/>
<defs>
<linearGradient id="paint0_linear_6_6" x1="205.537" y1="17.369" x2="137.272" y2="8.1507" gradientUnits="userSpaceOnUse">
<stop stop-color="#101C50"/>
<stop offset="0.239216" stop-color="#0D267A"/>
<stop offset="0.501961" stop-color="#085AA4"/>
<stop offset="0.65098" stop-color="#058BBF"/>
<stop offset="1" stop-color="#B1FFFF"/>
</linearGradient>
</defs>
</svg>
