<svg width="224" height="149" viewBox="0 0 224 149" fill="none" xmlns="http://www.w3.org/2000/svg">
<path d="M49.539 94.7367C46.947 95.1909 44.3093 95.327 41.5808 95.6897L33.2586 71.3693V96.7335C30.6666 97.0056 28.3019 97.3686 25.8462 97.7316V51.2684H32.7587L42.2174 77.6312V51.2684H49.539V94.7367ZM63.8639 68.2837C66.6836 68.2837 71.0037 68.1476 73.5958 68.1476V75.4073C70.3668 75.4073 66.5926 75.4073 63.8639 75.5435V86.3427C68.1388 86.0706 72.4135 85.7072 76.7335 85.5711V92.5583L56.5876 94.1467V51.2684H76.7335V58.5283H63.8639V68.2837ZM103.791 58.5284H96.2426V91.9238C93.7869 91.9238 91.3312 91.9238 88.9668 92.0143V58.5284H81.4179V51.2684H103.792L103.791 58.5284ZM115.615 67.7848H125.574V75.0445H115.615V91.5155H108.475V51.2684H128.803V58.5283H115.615V67.7848ZM140.627 85.1629C144.765 85.2534 148.949 85.5716 152.996 85.7981V92.9673C146.493 92.5586 139.99 92.1508 133.351 92.0143V51.2684H140.627V85.1629ZM159.135 93.4664C161.455 93.6028 163.91 93.7389 166.275 94.0107V51.2684H159.135V93.4664ZM198.154 51.2684L188.922 73.3657L198.154 97.7316C195.425 97.3686 192.697 96.8695 189.968 96.4157L184.738 82.9852L179.418 95.327C176.78 94.8729 174.234 94.7367 171.596 94.3737L180.964 73.0932L172.506 51.2684H180.327L185.102 63.4741L190.196 51.2684H198.154Z" fill="#D81F26"/>
</svg>
