<?xml version="1.0" encoding="utf-8"?>
<!-- Generator: Adobe Illustrator 26.3.1, SVG Export Plug-In . SVG Version: 6.00 Build 0)  -->
<svg version="1.1" id="图层_1" xmlns="http://www.w3.org/2000/svg" xmlns:xlink="http://www.w3.org/1999/xlink" x="0px" y="0px"
	 viewBox="0 0 1149 702" style="enable-background:new 0 0 1149 702;" xml:space="preserve">
<style type="text/css">
	.st0{fill:#FFFFFF;}
</style>
<g>
	<g>
		<path class="st0" d="M123.03,503.53c-4.11,1.82-8.41,3.19-12.81,4.12c-4.22,0.89-8.49,0.95-12.73,1.62
			c-3.48,0.55-6.84,2.12-8.17,5.58c-1.05,2.74-0.52,6.07,2.15,7.64c1.67,0.98,3.18-1.61,1.51-2.59c-1.99-1.17-1.21-4.17,0.1-5.57
			c2.23-2.39,6.32-2.29,9.31-2.53c7.67-0.62,15.12-2.55,22.16-5.66C126.31,505.34,124.79,502.76,123.03,503.53L123.03,503.53z"/>
	</g>
</g>
<g>
	<g>
		<path d="M10.57,557.71c4.63-3.61,11.11-4.26,16.47-2.03c0.75,0.31,1.65-0.34,1.85-1.05c0.24-0.86-0.3-1.53-1.05-1.85
			c-6.43-2.67-13.95-1.44-19.39,2.8c-0.64,0.5-0.52,1.6,0,2.12C9.08,558.34,9.93,558.21,10.57,557.71L10.57,557.71z"/>
	</g>
</g>
<g>
	<g>
		<path d="M156.02,567.23c2.83,0.22,5.72-0.11,8.43-0.95c0.75-0.23,1.3-1.06,1.05-1.85c-0.24-0.75-1.04-1.3-1.85-1.05
			c-0.62,0.19-1.25,0.36-1.89,0.5c-0.34,0.07-0.69,0.14-1.04,0.19c-0.15,0.02-0.3,0.05-0.45,0.07c0.28-0.04-0.22,0.02-0.27,0.03
			c-1.32,0.14-2.66,0.16-3.98,0.05c-0.78-0.06-1.53,0.73-1.5,1.5C154.56,566.59,155.18,567.16,156.02,567.23L156.02,567.23z"/>
	</g>
</g>
<g>
	<g>
		<path d="M619.38,572.09c0.13-0.1,0.12-0.1-0.04,0.02c0.06-0.05,0.12-0.09,0.18-0.13c0.12-0.09,0.25-0.17,0.38-0.25
			c0.26-0.16,0.52-0.31,0.8-0.44c0.07-0.04,0.5-0.28,0.16-0.08c0.12-0.07,0.29-0.11,0.43-0.16c0.27-0.09,0.54-0.17,0.82-0.24
			c0.13-0.03,0.26-0.06,0.39-0.08c0.1-0.02,0.56-0.16,0.16-0.03c0.27-0.08,0.63-0.05,0.91-0.06c0.3,0,0.61,0.02,0.91,0.04
			c0.17,0.02,0.15,0.02-0.06-0.01c0.08,0.01,0.15,0.02,0.22,0.04c0.15,0.03,0.3,0.06,0.45,0.09c0.76,0.17,1.66-0.23,1.85-1.05
			c0.17-0.76-0.23-1.66-1.05-1.85c-3.07-0.7-6.21,0.09-8.63,2.06c-0.61,0.5-0.56,1.61,0,2.12
			C617.91,572.68,618.73,572.62,619.38,572.09L619.38,572.09z"/>
	</g>
</g>
<g>
	<g>
		<path d="M1045.01,554.69c4.16-0.35,8.32-0.69,12.48-1.04c0.81-0.07,1.5-0.64,1.5-1.5c0-0.76-0.69-1.57-1.5-1.5
			c-4.16,0.35-8.32,0.69-12.48,1.04c-0.81,0.07-1.5,0.64-1.5,1.5C1043.51,553.95,1044.19,554.76,1045.01,554.69L1045.01,554.69z"/>
	</g>
</g>
</svg>
