<svg width="393" height="619" viewBox="0 0 393 619" fill="none" xmlns="http://www.w3.org/2000/svg">
<g id="sign 1">
<g id="Group">
<path id="Vector" d="M53.9271 603.969C58.7596 604.311 63.614 604.355 68.4464 604.09C70.0646 604.002 70.0756 601.479 68.4464 601.567C63.603 601.831 58.7596 601.787 53.9271 601.446C52.309 601.324 52.32 603.848 53.9271 603.969Z" fill="#040000"/>
<path id="Vector_2" d="M25.2409 162.232C24.5804 227.734 24.6905 293.235 25.6041 358.736C25.8573 377.415 26.1875 396.082 26.5728 414.749C26.6058 416.369 29.1266 416.38 29.0936 414.749C27.7506 349.259 27.1672 283.758 27.3874 218.257C27.4534 199.578 27.5745 180.911 27.7616 162.232C27.7837 160.601 25.2519 160.601 25.2409 162.232Z" fill="#040000"/>
<path id="Vector_3" d="M25.1968 163.676C100.776 156.238 176.796 156.899 252.596 160.128C271.617 160.932 290.639 161.891 309.649 162.894C318.885 163.378 328.12 163.874 337.356 164.37C346.635 164.866 359.723 163.257 363.873 173.88C365.326 177.594 365.767 181.781 366.405 185.693C367.275 191.005 367.99 196.327 368.607 201.672C369.719 211.226 370.511 220.802 371.282 230.389C372.768 249.013 374.265 267.625 375.399 286.27C378.029 329.358 378.701 372.742 372.801 415.598C372.581 417.185 375.013 417.879 375.233 416.27C380.572 377.547 380.649 338.405 378.657 299.439C377.655 279.681 376.147 259.955 374.584 240.241C373.054 220.979 371.711 201.65 368.431 182.586C367.242 175.654 365.976 169.109 359.624 165.12C356.74 163.301 353.724 162.761 350.389 162.541C345.237 162.199 340.064 161.99 334.901 161.714C315.351 160.668 295.79 159.61 276.229 158.673C237.295 156.8 198.327 155.378 159.338 155.257C114.558 155.125 69.7674 156.756 25.1858 161.141C23.6007 161.307 23.5897 163.841 25.1968 163.676Z" fill="#040000"/>
<path id="Vector_4" d="M24.3272 415.069C115.626 417.35 206.979 420.7 298.322 420.546C322.583 420.502 347.329 421.031 370.94 414.606C372.504 414.176 371.843 411.741 370.269 412.171C348.474 418.099 325.764 417.934 303.364 418.011C280.952 418.088 258.551 417.901 236.15 417.548C190.974 416.843 145.798 415.576 100.633 414.452C75.1942 413.813 49.7662 413.185 24.3272 412.545C22.6981 412.501 22.7091 415.025 24.3272 415.069Z" fill="#040000"/>
<path id="Vector_5" d="M49.7222 415.367C55.2701 474.664 44.3394 533.84 46.0236 593.17C46.0676 594.79 48.5884 594.801 48.5443 593.17C46.8601 533.84 57.7799 474.664 52.243 415.367C52.0888 413.758 49.5681 413.747 49.7222 415.367Z" fill="#040000"/>
<path id="Vector_6" d="M64.3185 414.077C65.3753 428.436 63.9883 442.861 62.4802 457.131C60.84 472.647 59.6292 487.998 59.4751 503.612C59.1559 537.079 56.536 570.293 53.4098 603.605C53.2557 605.225 55.7875 605.214 55.9306 603.605C59.0568 570.293 61.6766 537.09 61.9959 503.612C62.139 487.998 63.3608 472.647 65.001 457.131C66.5091 442.85 67.896 428.436 66.8393 414.077C66.7182 412.468 64.1974 412.457 64.3185 414.077Z" fill="#040000"/>
<path id="Vector_7" d="M313.249 420.987C311.653 481.992 309.847 542.997 307.833 604.002C307.778 605.633 310.299 605.622 310.354 604.002C312.368 543.008 314.173 482.003 315.769 420.987C315.813 419.367 313.293 419.367 313.249 420.987Z" fill="#040000"/>
<path id="Vector_8" d="M323.486 420.976C323.398 451.599 323.343 482.234 322.759 512.847C322.462 528.594 322.022 544.352 321.328 560.089C320.624 576.232 316.463 592.509 318.048 608.675C318.202 610.272 320.734 610.294 320.569 608.675C318.984 592.509 323.145 576.232 323.849 560.089C324.543 544.352 324.972 528.594 325.28 512.847C325.864 482.223 325.919 451.599 326.007 420.976C326.007 419.356 323.486 419.356 323.486 420.976Z" fill="#040000"/>
<path id="Vector_9" d="M42.0277 28.0673C68.1162 31.0205 94.0725 34.8664 120.205 37.5332C149.067 40.4755 178.007 42.3929 207.023 42.8337C236.216 43.2745 265.431 42.3488 294.535 40.0567C307.414 39.0429 321.416 35.9794 334.251 38.4478C340.559 39.66 347.582 42.8557 351.093 48.5199C354.803 54.5146 353.933 62.3606 353.328 69.0606C351.479 89.8108 348.771 110.473 346.877 131.212C346.734 132.832 349.255 132.821 349.398 131.212C351.192 111.542 353.647 91.9486 355.552 72.2894C356.531 62.1623 358.039 50.283 349.497 42.8557C340.46 34.9987 328.109 34.602 316.793 35.5386C286.599 38.0621 256.514 40.233 226.188 40.3983C195.961 40.5636 165.733 39.2302 135.627 36.4973C104.299 33.6653 73.2458 29.0811 42.0057 25.5437C40.4206 25.3564 40.4316 27.8799 42.0277 28.0673Z" fill="#040000"/>
<path id="Vector_10" d="M40.7728 26.8C40.6738 42.8116 37.4925 59.0657 35.401 74.9011C34.2232 83.8271 33.0344 92.753 32.0547 101.712C31.6914 105.04 31.3502 108.368 31.141 111.696C31.075 112.765 31.3061 114.308 30.9869 115.321C31.2511 114.484 30.2054 115.994 29.8531 116.346C29.3578 116.842 28.8514 117.338 28.3561 117.834C27.6075 118.583 28.1359 120.038 29.2477 119.994C71.0443 118.242 112.665 123.068 154.329 125.404C195.157 127.697 235.974 125.427 276.824 126.352C300.502 126.881 324.157 128.721 347.395 133.471C348.98 133.79 349.662 131.366 348.066 131.036C307.723 122.771 266.443 123.388 225.473 123.906C204.492 124.17 183.522 124.291 162.563 123.311C141.692 122.33 120.866 120.545 100.017 119.145C76.4601 117.558 52.8484 116.479 29.2477 117.47C29.5449 118.187 29.8421 118.903 30.1393 119.63C32.2748 117.514 33.4417 116.853 33.5407 113.911C33.6618 110.649 33.981 107.387 34.3223 104.136C35.2469 95.0672 36.4578 86.031 37.6466 76.9948C39.8152 60.4763 43.1946 43.5279 43.2936 26.822C43.3046 25.1801 40.7839 25.1691 40.7728 26.8Z" fill="#040000"/>
<path id="Vector_11" d="M207.178 210.521C207.167 210.532 207.156 210.554 207.134 210.565C207.222 210.499 207.299 210.433 207.387 210.367C207.376 210.378 207.365 210.389 207.343 210.389C207.442 210.345 207.541 210.3 207.64 210.256C207.629 210.256 207.629 210.256 207.618 210.256C207.728 210.245 207.838 210.223 207.948 210.212C207.937 210.212 207.926 210.212 207.904 210.212C208.014 210.223 208.124 210.245 208.234 210.256C208.223 210.256 208.223 210.256 208.212 210.245C208.311 210.289 208.41 210.334 208.51 210.378C208.499 210.378 208.487 210.367 208.476 210.356C208.565 210.422 208.642 210.488 208.73 210.554C208.708 210.543 208.697 210.521 208.686 210.499C208.752 210.587 208.818 210.664 208.884 210.752C208.873 210.73 208.851 210.708 208.84 210.686C208.884 210.785 208.928 210.885 208.972 210.984C208.95 210.94 208.939 210.896 208.928 210.84C208.939 210.951 208.961 211.061 208.972 211.171C208.972 211.127 208.961 211.094 208.972 211.05C208.961 211.16 208.939 211.27 208.928 211.38C208.928 211.347 208.939 211.325 208.95 211.303C208.906 211.402 208.862 211.502 208.818 211.601C208.829 211.579 208.84 211.557 208.851 211.535C208.785 211.623 208.719 211.7 208.653 211.788C208.664 211.777 208.675 211.766 208.686 211.755C208.598 211.821 208.521 211.887 208.432 211.953C208.443 211.942 208.465 211.931 208.476 211.931C208.377 211.975 208.278 212.02 208.179 212.064C208.201 212.053 208.223 212.053 208.234 212.053C208.124 212.064 208.014 212.086 207.904 212.097C207.937 212.097 207.959 212.097 207.992 212.097C207.882 212.086 207.772 212.064 207.662 212.053C207.706 212.064 207.739 212.075 207.783 212.086C207.684 212.042 207.585 211.997 207.486 211.953C207.519 211.975 207.552 211.997 207.596 212.02C207.508 211.953 207.431 211.887 207.343 211.821C207.376 211.854 207.409 211.876 207.431 211.909C207.365 211.821 207.299 211.744 207.233 211.656C207.277 211.722 207.31 211.777 207.343 211.854C207.299 211.755 207.255 211.656 207.211 211.557C207.244 211.645 207.266 211.733 207.288 211.832C207.277 211.722 207.255 211.612 207.244 211.502C207.255 211.601 207.255 211.689 207.244 211.788C207.255 211.678 207.277 211.568 207.288 211.458C207.266 211.612 207.222 211.766 207.167 211.909C207.211 211.81 207.255 211.711 207.299 211.612C207.233 211.777 207.145 211.92 207.034 212.064C207.101 211.975 207.167 211.898 207.233 211.81C207.123 211.942 207.001 212.075 206.858 212.174C206.946 212.108 207.023 212.042 207.112 211.975C206.968 212.086 206.825 212.174 206.66 212.24C206.759 212.196 206.858 212.152 206.957 212.108C206.792 212.174 206.627 212.218 206.462 212.251C206.572 212.24 206.682 212.218 206.792 212.207C206.638 212.229 206.484 212.229 206.319 212.207C206.429 212.218 206.539 212.24 206.649 212.251C206.517 212.229 206.385 212.196 206.253 212.141C206.352 212.185 206.451 212.229 206.55 212.273C206.396 212.207 206.242 212.119 206.11 212.02C206.198 212.086 206.275 212.152 206.363 212.218C206.231 212.108 206.11 211.986 206 211.854C206.066 211.942 206.132 212.02 206.198 212.108C206.077 211.953 205.989 211.799 205.912 211.623C205.956 211.722 206 211.821 206.044 211.92C205.978 211.755 205.934 211.601 205.912 211.424C205.923 211.535 205.945 211.645 205.956 211.755C205.934 211.601 205.934 211.447 205.956 211.292C205.945 211.402 205.923 211.513 205.912 211.623C205.934 211.502 205.956 211.38 206.011 211.259C205.967 211.358 205.923 211.458 205.879 211.557C205.923 211.447 205.989 211.336 206.066 211.237C206 211.325 205.934 211.402 205.868 211.491C205.956 211.38 206.044 211.292 206.154 211.204C206.066 211.27 205.989 211.336 205.901 211.402C206.044 211.292 206.198 211.204 206.352 211.138C206.253 211.182 206.154 211.226 206.055 211.27C206.231 211.193 206.418 211.149 206.605 211.116C206.495 211.127 206.385 211.149 206.275 211.16C206.462 211.138 206.649 211.138 206.836 211.16C206.726 211.149 206.616 211.127 206.506 211.116C206.66 211.138 206.814 211.182 206.957 211.237C206.858 211.193 206.759 211.149 206.66 211.105C206.77 211.149 206.869 211.215 206.968 211.281C206.88 211.215 206.803 211.149 206.715 211.083C206.803 211.149 206.869 211.226 206.946 211.314C206.88 211.226 206.814 211.149 206.748 211.061C206.814 211.149 206.869 211.248 206.913 211.347C206.869 211.248 206.825 211.149 206.781 211.05C206.814 211.138 206.847 211.237 206.858 211.336C206.847 211.226 206.825 211.116 206.814 211.006C206.825 211.094 206.825 211.193 206.814 211.281C206.825 211.171 206.847 211.061 206.858 210.951C206.847 211.039 206.814 211.127 206.781 211.215C206.825 211.116 206.869 211.017 206.913 210.918C206.858 211.039 206.792 211.149 206.715 211.248C206.781 211.16 206.847 211.083 206.913 210.995C206.825 211.105 206.715 211.204 206.605 211.303C206.693 211.237 206.77 211.171 206.858 211.105C206.715 211.215 206.572 211.292 206.407 211.369C206.506 211.325 206.605 211.281 206.704 211.237C206.561 211.292 206.407 211.336 206.253 211.369C206.363 211.358 206.473 211.336 206.583 211.325C206.44 211.347 206.308 211.347 206.165 211.325C206.275 211.336 206.385 211.358 206.495 211.369C206.396 211.358 206.297 211.325 206.209 211.292C206.308 211.336 206.407 211.38 206.506 211.424C206.44 211.391 206.374 211.358 206.308 211.303C206.396 211.369 206.473 211.435 206.561 211.502C206.495 211.446 206.44 211.402 206.396 211.336C206.462 211.424 206.528 211.502 206.594 211.59C206.539 211.524 206.495 211.447 206.462 211.369C206.341 211.094 205.989 210.862 205.714 210.785C205.416 210.697 205.009 210.741 204.745 210.918C204.481 211.094 204.238 211.347 204.161 211.667C204.084 212.02 204.139 212.317 204.294 212.637C204.69 213.485 205.67 213.948 206.572 213.838C207.53 213.728 208.366 213.265 208.917 212.46C209.456 211.678 209.456 210.565 208.895 209.794C208.333 209.011 207.42 208.581 206.462 208.625C205.614 208.659 204.712 208.989 204.139 209.639C203.38 210.51 203.215 211.678 203.666 212.736C204.15 213.882 205.174 214.642 206.407 214.741C207.563 214.83 208.73 214.113 209.313 213.144C209.687 212.526 209.83 211.788 209.676 211.083C209.478 210.19 208.653 209.485 207.717 209.617C206.748 209.749 206.231 210.708 206.484 211.612C206.594 212.009 206.847 212.361 207.211 212.559C207.75 212.868 208.487 212.769 208.906 212.295C209.126 212.042 209.28 211.744 209.28 211.402C209.28 211.094 209.148 210.719 208.906 210.51C208.487 210.08 207.651 209.992 207.178 210.521Z" fill="#040000"/>
<path id="Vector_12" d="M205.559 228.439C205.515 228.483 205.471 228.527 205.427 228.571C205.515 228.505 205.592 228.439 205.681 228.373C205.614 228.428 205.537 228.461 205.46 228.505C205.559 228.461 205.658 228.417 205.758 228.373C205.669 228.406 205.581 228.428 205.482 228.45C205.592 228.439 205.703 228.417 205.813 228.406C205.703 228.417 205.592 228.417 205.482 228.406C205.592 228.417 205.703 228.439 205.813 228.45C205.681 228.428 205.548 228.395 205.416 228.34C205.515 228.384 205.614 228.428 205.714 228.472C205.57 228.417 205.438 228.34 205.317 228.241C205.405 228.307 205.482 228.373 205.57 228.439C205.46 228.351 205.361 228.252 205.273 228.141C205.339 228.23 205.405 228.307 205.471 228.395C205.405 228.307 205.35 228.207 205.306 228.108C205.35 228.207 205.394 228.307 205.438 228.406C205.405 228.318 205.372 228.219 205.361 228.119C205.372 228.23 205.394 228.34 205.405 228.45C205.394 228.362 205.394 228.274 205.405 228.185C205.394 228.296 205.372 228.406 205.361 228.516C205.372 228.417 205.405 228.318 205.438 228.23C205.394 228.329 205.35 228.428 205.306 228.527C205.35 228.428 205.405 228.34 205.471 228.252C205.405 228.34 205.339 228.417 205.273 228.505C205.339 228.417 205.416 228.351 205.504 228.274C205.416 228.34 205.339 228.406 205.251 228.472C205.361 228.395 205.471 228.329 205.603 228.274C205.504 228.318 205.405 228.362 205.306 228.406C205.46 228.34 205.614 228.307 205.78 228.285C205.669 228.296 205.559 228.318 205.449 228.329C205.603 228.307 205.747 228.307 205.901 228.329C205.791 228.318 205.681 228.296 205.57 228.285C205.725 228.307 205.857 228.34 206 228.395C205.901 228.351 205.802 228.307 205.703 228.263C205.802 228.307 205.901 228.362 205.989 228.428C205.901 228.362 205.824 228.296 205.736 228.23C205.824 228.296 205.901 228.373 205.978 228.461C205.912 228.373 205.846 228.296 205.78 228.207C205.846 228.296 205.901 228.395 205.945 228.494C205.901 228.395 205.857 228.296 205.813 228.196C205.868 228.329 205.901 228.45 205.923 228.593C205.912 228.483 205.89 228.373 205.879 228.263C205.901 228.417 205.89 228.56 205.879 228.714C205.89 228.604 205.912 228.494 205.923 228.384C205.901 228.549 205.857 228.714 205.791 228.869C205.835 228.77 205.879 228.67 205.923 228.571C205.846 228.736 205.758 228.902 205.647 229.045C205.714 228.957 205.78 228.88 205.846 228.792C205.747 228.913 205.636 229.023 205.515 229.122C205.603 229.056 205.68 228.99 205.769 228.924C205.658 229.012 205.537 229.078 205.416 229.133C205.515 229.089 205.614 229.045 205.714 229.001C205.581 229.056 205.438 229.089 205.295 229.111C205.405 229.1 205.515 229.078 205.625 229.067C205.482 229.078 205.339 229.078 205.185 229.067C205.295 229.078 205.405 229.1 205.515 229.111C205.339 229.089 205.163 229.034 204.998 228.968C205.097 229.012 205.196 229.056 205.295 229.1C205.13 229.023 204.976 228.935 204.833 228.825C204.921 228.891 204.998 228.957 205.086 229.023C204.932 228.902 204.789 228.758 204.668 228.604C204.734 228.692 204.8 228.769 204.866 228.858C204.756 228.714 204.668 228.56 204.591 228.384C204.635 228.483 204.679 228.582 204.723 228.681C204.657 228.516 204.602 228.34 204.58 228.163C204.591 228.274 204.613 228.384 204.624 228.494C204.613 228.45 204.613 228.395 204.613 228.351C204.591 228.009 204.492 227.701 204.238 227.458C204.018 227.238 203.666 227.072 203.347 227.083C202.697 227.117 202.037 227.645 202.081 228.351C202.136 229.232 202.499 230.07 203.16 230.676C203.787 231.249 204.635 231.657 205.493 231.613C206.286 231.569 207.067 231.238 207.585 230.61C208.091 230.004 208.421 229.265 208.41 228.461C208.399 228.009 208.289 227.612 208.102 227.205C207.915 226.819 207.607 226.521 207.266 226.268C206.649 225.816 205.857 225.75 205.13 225.86C204.536 225.948 203.908 226.268 203.523 226.742C202.995 227.381 202.719 228.274 203.028 229.089C203.358 229.938 204.029 230.566 204.91 230.83C205.747 231.084 206.748 230.896 207.343 230.224C207.563 229.982 207.717 229.673 207.717 229.332C207.717 229.023 207.585 228.648 207.343 228.439C206.858 227.998 206.033 227.921 205.559 228.439Z" fill="#040000"/>
<path id="Vector_13" d="M34.2122 10.601C34.8617 11.6148 35.1589 12.7278 35.5662 14.0171C36.1386 15.8243 36.6559 17.6536 37.2173 19.4719C37.7567 21.235 38.3401 22.9871 39.0776 24.6732C39.606 25.8743 40.2555 27.1636 41.3893 27.9019C42.7542 28.7835 44.0201 26.6016 42.6662 25.72C42.5121 25.6209 42.8203 25.8964 42.5671 25.6429C42.5011 25.5658 42.424 25.4996 42.358 25.4225C42.347 25.4115 42.1598 25.147 42.0057 24.9046C41.6755 24.3536 41.3893 23.7585 41.1471 23.1635C40.4536 21.4995 39.9252 19.7584 39.3969 18.0393C38.8795 16.3423 38.3952 14.6342 37.8558 12.9482C37.4595 11.736 37.0742 10.4136 36.3807 9.3337C35.5111 7.96726 33.3316 9.23453 34.2122 10.601Z" fill="#040000"/>
<path id="Vector_14" d="M35.8964 12.0115C44.9558 8.2648 55.7985 10.3585 65.2982 10.9206C76.1409 11.5487 86.9945 12.1437 97.8482 12.7057C118.994 13.7857 140.151 14.7224 161.308 15.5158C203.908 17.1026 246.53 18.1054 289.153 18.5021C300.854 18.6123 312.555 18.6784 324.256 18.7005C327.317 18.7005 330.388 18.7115 333.448 18.7115C336.222 18.7115 339.876 18.2266 342.551 19.2074C345.171 20.1661 347.009 22.7337 348.727 24.7723C351.005 27.4722 353.13 30.2822 355.177 33.1694C356.102 34.4807 358.292 33.2245 357.357 31.8911C353.174 25.9625 348.231 17.0145 340.306 16.2431C335.044 15.7362 329.551 16.177 324.267 16.1659C318.697 16.1549 313.128 16.1329 307.547 16.1108C284.981 15.9896 262.415 15.7031 239.849 15.2513C195.003 14.3477 150.168 12.7829 105.367 10.5679C93.1259 9.9398 80.8852 9.28963 68.6446 8.57335C57.967 7.96726 45.4291 5.34457 35.2249 9.57614C33.7499 10.1822 34.3993 12.6286 35.8964 12.0115Z" fill="#040000"/>
<path id="Vector_15" d="M34.0471 9.96183C34.2782 28.5301 31.3061 47.3628 29.1156 65.7547C27.9928 75.1545 26.815 84.5544 25.6481 93.9542C24.6354 102.109 21.7954 112.798 28.4001 119.244C29.5669 120.379 31.3502 118.594 30.1834 117.459C23.8759 111.299 27.5855 98.6596 28.5652 90.7474C29.732 81.3366 30.9099 71.9147 32.0217 62.4929C34.0581 45.1809 36.777 27.4501 36.5679 9.96183C36.5459 8.34193 34.0251 8.33091 34.0471 9.96183Z" fill="#040000"/>
<path id="Vector_16" d="M18.2179 145.482C18.9224 152.447 21.5973 158.982 25.9674 164.436C26.3967 164.976 27.2993 164.877 27.7506 164.436C28.279 163.918 28.1689 163.18 27.7506 162.651C23.8429 157.758 21.3771 151.709 20.7387 145.482C20.5736 143.885 18.0528 143.863 18.2179 145.482Z" fill="#040000"/>
<path id="Vector_17" d="M85.7617 145.934C138.291 145.934 190.82 145.593 243.349 145.703C258.1 145.736 272.85 145.802 287.6 145.934C289.23 145.945 289.23 143.422 287.6 143.411C235.027 142.948 182.443 143.212 129.87 143.345C115.163 143.378 100.468 143.411 85.7617 143.411C84.1435 143.4 84.1435 145.934 85.7617 145.934Z" fill="#040000"/>
<path id="Vector_18" d="M18.0968 145.493C33.6068 148.777 49.9203 146.915 65.5844 145.934C67.2025 145.835 67.2135 143.312 65.5844 143.411C50.1845 144.38 34.0251 146.287 18.7683 143.058C17.1832 142.716 16.5007 145.152 18.0968 145.493Z" fill="#040000"/>
<path id="Vector_19" d="M16.6768 144.028C13.0112 159.345 16.0053 174.828 16.3576 190.322C16.7208 206.598 11.5912 222.367 10.7656 238.621C9.02639 272.749 10.0721 307.197 10.5785 341.358C10.8647 360.786 11.261 380.203 11.6572 399.63C11.6903 401.25 14.2111 401.261 14.178 399.63C13.4955 365.778 12.8131 331.925 12.681 298.073C12.6149 280.959 12.5819 263.823 13.0002 246.71C13.2093 238.224 13.6497 229.706 15.0146 221.32C16.1925 214.058 18.1408 206.928 18.6912 199.567C20.0672 181.252 14.7725 162.85 19.1095 144.711C19.4838 143.124 17.0511 142.452 16.6768 144.028Z" fill="#040000"/>
<path id="Vector_20" d="M10.5675 399.289C10.6555 401.129 11.8003 402.495 13.1983 403.586C14.5633 404.655 16.0273 405.603 17.4914 406.54C20.2323 408.281 23.1274 410.022 25.1088 412.656C25.516 413.196 26.1985 413.482 26.837 413.107C27.3764 412.799 27.7066 411.928 27.2883 411.377C25.3069 408.744 22.676 406.848 19.9131 405.085C18.5701 404.226 17.2052 403.388 15.9063 402.473C14.8605 401.735 13.1543 400.71 13.0883 399.289C13.0112 397.669 10.4904 397.669 10.5675 399.289Z" fill="#040000"/>
<path id="Vector_21" d="M74.4677 119.718C72.9816 121.933 73.7192 125.515 73.7522 128.027C73.7962 131.179 73.8292 134.341 73.8733 137.493C73.9613 144.05 74.0384 150.607 74.1264 157.163C74.1485 158.783 76.6692 158.794 76.6472 157.163C76.5702 151.091 76.4931 145.02 76.4051 138.959C76.372 136.05 76.328 133.129 76.295 130.22C76.273 128.766 76.262 127.311 76.2399 125.845C76.2179 124.435 75.8106 122.22 76.6472 120.997C77.5609 119.641 75.3703 118.374 74.4677 119.718Z" fill="#040000"/>
<path id="Vector_22" d="M85.7397 121.768C84.5508 133.537 83.8573 145.339 83.6812 157.163C83.6592 158.794 86.18 158.794 86.202 157.163C86.3781 145.339 87.0716 133.526 88.2604 121.768C88.4256 120.148 85.8938 120.159 85.7397 121.768Z" fill="#040000"/>
<path id="Vector_23" d="M66.2559 119.762C66.6742 129.228 66.5311 138.705 65.8266 148.16C65.7055 149.78 68.2263 149.769 68.3474 148.16C69.0518 138.705 69.1839 129.228 68.7767 119.762C68.7106 118.142 66.1898 118.131 66.2559 119.762Z" fill="#040000"/>
<path id="Vector_24" d="M65.5294 146.551C67.0594 150.419 69.283 153.946 72.145 156.965C73.2678 158.144 75.0511 156.359 73.9283 155.18C71.3855 152.491 69.327 149.317 67.9621 145.879C67.7089 145.251 67.1145 144.799 66.41 144.998C65.8156 145.163 65.2762 145.912 65.5294 146.551Z" fill="#040000"/>
<path id="Vector_25" d="M287.127 125.107C287.259 128.369 287.556 131.653 287.424 134.914C287.303 138.176 286.742 141.438 286.335 144.667C286.246 145.35 286.973 145.923 287.6 145.934C288.349 145.945 288.778 145.35 288.866 144.667C289.274 141.438 289.835 138.176 289.956 134.914C290.077 131.653 289.791 128.358 289.659 125.107C289.582 123.487 287.061 123.476 287.127 125.107Z" fill="#040000"/>
<path id="Vector_26" d="M294.436 126.771C294.59 137.901 294.745 149.031 294.91 160.172C294.932 161.792 297.452 161.803 297.43 160.172C297.276 149.042 297.122 137.912 296.957 126.771C296.935 125.151 294.414 125.14 294.436 126.771Z" fill="#040000"/>
<path id="Vector_27" d="M303.672 129.107C303.485 139.796 303.165 150.474 302.714 161.163C302.648 162.783 305.169 162.783 305.235 161.163C305.686 150.485 306.005 139.796 306.193 129.107C306.215 127.487 303.694 127.487 303.672 129.107Z" fill="#040000"/>
<path id="Vector_28" d="M305.51 145.681C313.293 146.066 321.075 146 328.858 146.122C332.666 146.188 336.486 146.298 340.284 146.54C344.07 146.794 348.11 146.904 351.743 148.083C353.295 148.59 353.955 146.155 352.414 145.648C349.134 144.579 345.534 144.402 342.111 144.138C338.005 143.818 333.888 143.675 329.771 143.598C321.681 143.455 313.59 143.543 305.499 143.146C303.892 143.08 303.892 145.604 305.51 145.681Z" fill="#040000"/>
<path id="Vector_29" d="M351.027 146.937C350.939 150.419 353.042 153.747 354.44 156.822C355.981 160.194 357.522 163.566 359.063 166.949C359.734 168.425 361.914 167.147 361.243 165.671C359.812 162.53 358.37 159.389 356.939 156.249C356.245 154.739 355.552 153.229 354.869 151.709C354.176 150.188 353.515 148.645 353.559 146.937C353.592 145.306 351.071 145.306 351.027 146.937Z" fill="#040000"/>
<path id="Vector_30" d="M297.287 211.81C296.792 212.934 296.814 214.025 296.858 215.226C296.913 216.394 296.957 217.573 297.012 218.742C297.122 221.177 297.232 223.612 297.331 226.037C297.408 227.657 299.929 227.668 299.852 226.037C299.753 223.789 299.654 221.53 299.555 219.282C299.511 218.202 299.456 217.122 299.412 216.042C299.368 215.171 299.093 213.915 299.456 213.088C299.731 212.46 299.643 211.733 299.005 211.358C298.476 211.039 297.563 211.182 297.287 211.81Z" fill="#040000"/>
<path id="Vector_31" d="M304.365 216.438C303.132 216.648 301.889 216.945 300.92 217.794C299.995 218.609 299.445 219.965 299.786 221.188C300.138 222.444 301.371 223.326 302.263 224.185C303.254 225.133 304.244 226.092 305.235 227.039C305.73 227.513 306.534 227.524 307.018 227.039C307.492 226.566 307.514 225.728 307.018 225.254C306.215 224.483 305.4 223.7 304.596 222.929C304.189 222.543 303.793 222.158 303.386 221.761C303.055 221.441 302.549 221.023 302.329 220.714C302.373 220.769 302.219 220.516 302.208 220.505C302.296 220.692 302.175 220.35 302.208 220.516C302.241 220.659 302.208 220.35 302.208 220.339C302.208 220.516 302.197 220.383 302.23 220.273C302.296 220.042 302.428 219.844 302.659 219.623C302.802 219.491 302.406 219.766 302.758 219.557C302.857 219.491 302.956 219.436 303.066 219.381C303.099 219.359 303.353 219.259 303.22 219.304C303.331 219.259 303.441 219.226 303.562 219.193C304.046 219.05 304.541 218.962 305.037 218.874C305.708 218.764 306.083 217.926 305.917 217.32C305.719 216.604 305.037 216.328 304.365 216.438Z" fill="#040000"/>
<path id="Vector_32" d="M309.187 221.386C309.649 223.491 310.464 225.519 311.597 227.348C312.071 228.119 313.326 228.219 313.777 227.348C314.272 226.389 314.261 225.409 314.239 224.362C314.228 223.976 314.206 223.579 314.327 223.293C314.404 223.094 314.636 222.929 314.801 222.852C315.615 222.488 316.573 222.554 317.476 222.609C318.598 222.676 319.688 222.929 320.745 223.293C321.383 223.513 322.121 223.039 322.297 222.411C322.484 221.717 322.066 221.089 321.416 220.857C320.15 220.417 318.819 220.152 317.476 220.075C316.331 220.009 315.065 220.031 313.986 220.472C312.852 220.934 311.994 221.827 311.785 223.061C311.685 223.656 311.708 224.251 311.719 224.846C311.73 225.298 311.763 225.728 311.586 226.07C312.313 226.07 313.039 226.07 313.766 226.07C312.731 224.406 312.027 222.621 311.608 220.703C311.465 220.042 310.684 219.645 310.056 219.821C309.385 220.031 309.044 220.725 309.187 221.386Z" fill="#040000"/>
<path id="Vector_33" d="M291.145 289.169C290.947 295.351 290.738 301.522 290.54 307.704C290.485 309.335 293.005 309.324 293.06 307.704C293.258 301.522 293.468 295.351 293.666 289.169C293.721 287.549 291.2 287.549 291.145 289.169Z" fill="#040000"/>
<path id="Vector_34" d="M300.623 295.395C299.632 295.318 298.74 295.758 297.959 296.331C297.111 296.96 296.297 297.643 295.482 298.293C294.734 298.888 293.831 299.45 293.17 300.155C292.345 301.048 292.719 302.183 293.578 302.877C295.031 304.056 296.847 304.717 298.41 305.72C299.951 306.712 301.36 307.869 302.648 309.169C303.793 310.326 305.576 308.541 304.431 307.384C303.011 305.963 301.448 304.684 299.764 303.604C298.95 303.076 298.113 302.602 297.243 302.172C296.825 301.963 296.407 301.753 295.999 301.522C295.702 301.345 295.152 301.048 295.042 300.816C295.097 301.026 295.152 301.246 295.218 301.456C295.163 301.588 295.097 301.731 295.042 301.863C295.075 301.83 295.108 301.808 295.152 301.775C295.295 301.72 295.471 301.522 295.592 301.423C295.856 301.213 296.121 301.004 296.385 300.794C296.913 300.376 297.441 299.957 297.959 299.538C298.663 298.976 299.632 297.863 300.612 297.94C301.294 297.995 301.878 297.323 301.878 296.673C301.889 295.935 301.305 295.45 300.623 295.395Z" fill="#040000"/>
<path id="Vector_35" d="M304.982 300.761C303.716 301.863 304.949 303.549 305.565 304.629C306.215 305.786 306.864 306.943 307.514 308.101C307.921 308.817 308.923 308.916 309.495 308.354C310.1 307.77 310.31 307.01 310.376 306.205C310.398 305.897 310.387 305.577 310.387 305.268C310.387 305.114 310.398 304.949 310.398 304.795C310.398 304.651 310.409 304.717 310.387 304.817C310.398 304.728 310.42 304.651 310.442 304.563C310.464 304.497 310.486 304.431 310.497 304.376C310.53 304.244 310.398 304.508 310.497 304.398C310.563 304.321 310.651 304.222 310.519 304.343C310.574 304.288 310.618 304.244 310.673 304.189C310.541 304.31 310.64 304.222 310.728 304.166C310.75 304.155 310.959 304.056 310.827 304.111C310.695 304.166 310.915 304.089 310.937 304.078C311.025 304.056 311.124 304.034 311.212 304.012C311.102 304.045 311.08 304.023 311.212 304.012C311.322 304.012 311.432 304.001 311.542 304.012C311.774 304.023 311.697 304.012 311.928 304.056C312.379 304.144 312.819 304.299 313.26 304.442C313.887 304.651 314.669 304.2 314.812 303.56C314.966 302.866 314.603 302.227 313.931 302.007C312.995 301.687 311.994 301.389 310.992 301.511C309.968 301.643 309.044 302.084 308.438 302.943C307.954 303.627 307.866 304.497 307.855 305.313C307.855 305.654 307.855 306.007 307.822 306.348C307.844 306.051 307.767 306.415 307.756 306.525C307.734 306.679 307.822 306.293 307.745 306.514C307.778 306.481 307.8 306.448 307.833 306.414C307.789 306.47 307.745 306.514 307.701 306.558C308.361 306.646 309.022 306.723 309.682 306.811C309.154 305.875 308.636 304.938 308.108 304.012C307.855 303.571 307.613 303.12 307.359 302.679C307.227 302.458 307.117 302.161 306.963 301.963C306.93 301.896 306.93 301.896 306.963 301.974C306.996 302.062 306.996 302.04 306.952 301.918C306.919 302.15 306.996 302.337 306.765 302.536C307.26 302.095 307.238 301.191 306.765 300.75C306.237 300.277 305.51 300.299 304.982 300.761Z" fill="#040000"/>
<path id="Vector_36" d="M286.423 144.854C289.67 149.615 292.598 154.585 295.174 159.731C295.9 161.186 298.08 159.907 297.353 158.453C294.767 153.295 291.849 148.326 288.602 143.565C287.689 142.254 285.498 143.51 286.423 144.854Z" fill="#040000"/>
<g id="Group_2">
<path id="Vector_37" d="M62.249 192.889C60.2236 192.889 58.0661 192.889 56.0406 192.889C56.0296 201.341 56.0186 206.818 56.0076 215.259C53.3437 207.017 50.6688 201.551 47.994 192.889C45.7263 192.889 44.3063 192.889 42.0277 192.889C42.0277 206.091 42.0277 219.304 42.0277 232.505C44.0422 232.219 46.1997 231.943 48.2141 231.679C48.2251 223.403 48.2251 218.312 48.2361 210.025C51.0101 218.18 52.7163 222.984 55.4792 230.731C57.6478 230.489 60.0255 230.18 62.194 229.96C62.205 217.595 62.227 205.242 62.249 192.889Z" fill="#DE2C1A"/>
<path id="Vector_38" d="M85.4425 192.889C79.6854 192.889 74.0054 192.889 68.2483 192.889C68.2263 205.077 68.2043 217.254 68.1822 229.442C73.9393 228.913 79.6964 228.494 85.4535 228.152C85.4535 226.367 85.4645 223.811 85.4645 222.025C81.7218 222.257 78.1333 222.499 74.4016 222.753C74.4126 219.48 74.4126 216.769 74.4237 213.496C77.1536 213.452 80.0376 213.485 82.8226 213.441C82.8226 211.656 82.8336 209.077 82.8336 207.292C80.0706 207.336 77.1536 207.347 74.4347 207.402C74.4457 204.129 74.4457 202.333 74.4567 199.049C76.1629 199.027 77.8471 199.027 79.5203 199.027C79.8175 199.027 80.1037 199.027 80.4009 199.027C80.6981 199.027 80.9843 199.027 81.2815 199.027C82.6795 199.027 84.0775 199.027 85.4975 199.016C85.4755 197.22 85.4314 194.663 85.4425 192.889Z" fill="#DE2C1A"/>
<path id="Vector_39" d="M108.614 192.911C102.306 192.911 95.7788 192.911 89.4603 192.911C89.4603 194.685 89.4493 197.231 89.4493 199.005C89.7245 199.005 89.9997 199.005 90.2749 199.005C91.1115 199.005 91.937 199.016 92.7736 199.016C93.6102 199.027 94.4358 199.027 95.2724 199.027C95.4815 199.027 95.7017 199.027 95.9108 199.027C95.8998 208.846 95.8888 217.816 95.8778 227.645C97.9033 227.568 100.072 227.502 102.097 227.458C102.108 217.695 102.119 208.769 102.119 199.005C104.255 198.994 106.467 198.994 108.614 198.983C108.614 197.242 108.614 194.652 108.614 192.911Z" fill="#DE2C1A"/>
<path id="Vector_40" d="M129.914 192.889C124.157 192.889 118.4 192.889 112.643 192.889C112.643 204.361 112.643 215.821 112.643 227.293C113.314 227.293 113.986 227.293 114.668 227.293C116.044 227.293 117.442 227.293 118.796 227.304C118.796 222.433 118.796 217.992 118.796 213.133C119.137 213.133 119.479 213.133 119.82 213.133C120.623 213.133 121.438 213.133 122.252 213.121C123.067 213.121 123.893 213.11 124.707 213.11C125.544 213.11 126.38 213.11 127.195 213.121C127.195 211.38 127.195 208.78 127.195 207.039C126.424 207.028 125.643 207.028 124.85 207.028C124.003 207.028 123.144 207.028 122.286 207.039C121.427 207.039 120.579 207.05 119.743 207.05C119.423 207.05 119.104 207.05 118.785 207.05C118.785 203.92 118.785 202.157 118.785 199.027C119.457 199.027 120.128 199.027 120.799 199.027C121.482 199.027 122.164 199.027 122.836 199.027C123.518 199.027 124.201 199.027 124.894 199.027C126.568 199.027 128.23 199.027 129.914 199.038C129.914 197.286 129.914 194.63 129.914 192.889Z" fill="#DE2C1A"/>
<path id="Vector_41" d="M133.943 192.911C133.954 204.493 133.899 216.064 133.921 227.645C139.447 227.855 145.248 228.075 150.752 228.461C150.752 226.676 150.741 224.119 150.741 222.334C147.251 222.125 143.619 221.882 140.129 221.739C140.118 211.821 140.173 202.829 140.151 192.911C138.137 192.911 135.968 192.911 133.943 192.911Z" fill="#DE2C1A"/>
<path id="Vector_42" d="M155.848 192.911C155.87 204.89 155.892 216.857 155.914 228.836C157.94 228.99 160.031 229.155 162.046 229.343C162.057 217.21 162.068 205.055 162.046 192.922C160.042 192.911 157.874 192.911 155.848 192.911Z" fill="#DE2C1A"/>
<path id="Vector_43" d="M167.384 192.911C169.872 198.961 172.14 205.033 174.661 211.469C172.041 217.64 169.377 223.778 166.757 229.706C168.926 229.916 171.171 230.235 173.34 230.478C174.892 226.665 176.312 223.722 177.864 219.81C179.416 223.987 180.825 227.205 182.377 231.513C184.535 231.789 187.342 232.197 189.499 232.505C186.879 225.497 184.017 218.202 181.386 211.579C184.006 205.364 186.681 199.424 189.411 192.922C187.176 192.922 184.865 192.922 182.63 192.922C180.946 196.945 179.79 199.523 178.183 203.347C176.686 199.369 175.673 196.79 174.176 192.922C171.92 192.911 169.619 192.911 167.384 192.911Z" fill="#DE2C1A"/>
</g>
<g id="Group_3">
<path id="Vector_44" d="M106.181 301.852C106.258 301.863 106.28 301.863 106.357 301.874C107.634 302.051 108.878 302.282 109.836 302.701C110.727 303.098 111.245 303.593 111.718 304.475C112.445 305.819 112.489 307.693 111.839 309.114C111.355 310.172 110.287 311.065 109.307 311.528C108.295 312.024 107.293 312.255 106.148 312.387C104.145 312.608 101.976 312.189 100.171 311.318C99.1031 310.8 97.8042 309.897 97.1437 308.74C96.6594 307.891 96.6704 306.789 97.2648 305.985C98.2005 304.695 100.215 304.42 101.723 304.475C102.879 304.519 104.948 304.872 106.049 305.268C106.357 305.379 107.469 305.819 107.667 306.018C107.799 306.161 107.898 306.359 107.832 306.547C107.579 307.307 105.719 307.715 105.19 307.792C103.748 308.012 103.011 307.472 101.371 306.822C100.963 306.668 100.424 306.492 100.017 306.448C99.2792 306.381 98.3766 306.58 98.2335 307.395C98.1674 307.814 98.6518 308.2 99.026 308.365C99.9067 308.74 100.611 308.872 101.481 308.894C104.024 308.938 106.897 308.519 108.977 307.043C109.263 306.844 109.538 306.536 109.549 306.161C109.56 305.401 108.229 304.938 108.229 304.938C106.82 304.354 104.233 304.067 102.89 303.957C101.492 303.836 99.2792 303.649 98.7509 303.571C98.2005 303.494 97.6171 303.384 97.1437 303.175C96.6704 302.965 96.2081 302.48 96.0649 301.952C95.8228 300.993 96.131 299.814 96.6594 299.053C98.0464 297.048 101.316 296.287 103.748 295.99C106.104 295.692 109.924 295.703 112.235 296.927C112.588 297.114 112.775 297.301 112.698 297.676C112.544 298.392 112.004 298.855 111.355 299.064C110.672 299.285 109.252 299.373 108.625 299.406C105.829 299.56 102.46 299.483 99.7966 300.21C99.5874 300.265 99.2242 300.365 99.1141 300.497C98.6958 300.949 99.8847 301.081 100.138 301.125C100.215 301.147 100.226 301.147 100.303 301.158L106.181 301.852ZM89.5594 289.389C89.5594 289.389 90.0107 288.706 90.3959 288.188C91.0894 287.24 92.3443 285.94 93.291 285.124C93.5772 284.882 93.9184 284.595 93.9184 284.595C93.9184 284.595 93.3901 284.651 93.0818 284.717C92.3663 284.86 91.3096 285.554 90.7922 286.006C89.9226 286.744 88.9759 287.956 89.4052 289.025C89.4603 289.18 89.5594 289.389 89.5594 289.389ZM94.3808 290.678C95.7457 290.579 97.0336 290.193 98.2225 289.521C99.3893 288.86 101.118 287.582 100.941 286.083C100.886 285.598 100.567 285.235 100.171 285.058C99.6535 284.827 99.3783 284.871 98.7068 285.069C98.2225 285.213 98.0023 285.301 97.551 285.554C96.2081 286.337 94.3037 288.012 93.269 289.345C93.0268 289.665 92.7846 290.006 92.5975 290.249C92.4764 290.392 92.3884 290.535 92.3994 290.568C92.4324 290.722 93.8414 290.711 94.3808 290.678ZM90.8913 293.235C90.7482 293.389 90.6051 293.742 90.451 294.006C90.3629 294.15 90.2198 294.326 90.1097 294.403C89.7575 294.667 89.4493 294.678 89.108 294.37C88.6237 293.94 88.3485 293.279 88.3265 292.64C88.3155 292.364 88.3595 292.045 88.3155 291.813C88.2274 291.417 87.8311 290.998 87.611 290.623C87.3578 290.171 87.1597 289.389 87.1266 288.882C87.0386 287.306 87.8752 285.852 88.9539 284.706C90.0437 283.549 91.4637 282.579 93.0048 281.929C94.4688 281.312 96.6043 280.893 98.2115 281.444C98.7288 281.62 99.4664 282.072 99.8296 282.535C99.9067 282.634 99.9727 282.733 100.05 282.788C100.116 282.832 100.303 282.854 100.457 282.876C100.974 282.965 101.701 283.35 102.009 283.615C102.615 284.133 102.945 284.64 103.099 285.356C103.407 286.81 102.571 288.408 101.613 289.389C99.9727 291.064 98.3656 292.243 96.2741 293.059C95.3605 293.422 93.9184 293.753 92.8837 293.665C92.5645 293.643 92.2232 293.554 91.915 293.532C91.7499 293.521 91.1665 293.367 91.1004 293.323C91.0124 293.268 90.9133 293.213 90.8913 293.235ZM92.7626 296.475C92.8287 296.486 92.9277 296.519 93.0048 296.552C93.7423 296.827 94.0395 297.511 94.2156 298.26C94.6339 299.99 94.8101 303.825 94.8871 305.335C94.9422 306.459 94.9642 307.572 95.0082 308.685C95.0522 309.632 95.1183 310.878 94.9311 311.77C94.8651 312.09 94.6449 312.453 94.3477 312.652C93.9955 312.872 93.2029 312.894 92.7736 312.806C91.6949 312.586 91.3536 311.891 91.1995 310.833C90.8363 308.299 91.0124 303.318 91.2215 301.213C91.2876 300.519 91.5518 298.293 91.915 297.367C92.0361 297.015 92.3003 296.376 92.7626 296.475ZM60.0915 300.695C60.0915 300.695 58.4954 300.805 57.3946 300.927C55.9966 301.081 53.3657 301.533 51.8467 302.073C51.3954 302.238 50.4707 302.624 50.3826 303.098C50.2946 303.582 50.6028 303.968 50.933 304.354C51.1312 304.585 52.2209 305.643 52.5292 305.897C53.8171 306.977 56.4259 308.629 58.3523 309.445C59.0127 309.72 60.1025 310.106 60.1025 310.106C60.1025 310.106 60.0255 306.988 60.0365 303.913C60.0475 302.293 60.0915 300.695 60.0915 300.695ZM89.3942 301.929C89.4823 302.767 89.2731 304.354 89.2291 304.563C89.1631 305.048 88.7998 306.15 88.7338 306.293C88.4366 306.965 88.1504 307.516 87.8421 308.067C87.3138 309.015 86.0699 310.514 85.3324 311.153C82.5804 313.533 78.3204 314.889 74.6658 315.34C72.1891 315.638 69.338 315.594 66.7072 315.109C65.8045 314.944 64.4616 314.635 64.4616 314.635C64.4616 314.635 64.4616 315.175 64.4176 315.55C64.3956 315.726 64.2635 316.178 64.1974 316.321C64.0103 316.718 63.6911 316.916 63.2397 317.004C62.6893 317.104 62.1059 317.137 61.5996 316.927C60.763 316.575 60.4658 315.792 60.3227 314.889C60.2016 314.172 60.0805 312.916 60.0805 312.916C60.0805 312.916 59.4531 312.619 58.9357 312.365C57.3396 311.572 55.8205 310.624 54.4885 309.632C54.1253 309.357 52.5402 308.034 52.1879 307.704C51.2082 306.778 50.3276 305.852 49.6561 304.662C49.1388 303.737 48.9847 302.91 49.3809 301.929C49.9313 300.563 51.8907 299.527 53.2337 298.943C54.2244 298.502 57.2845 297.5 58.5614 297.323C59.1669 297.235 60.0915 297.07 60.1576 297.037C60.1796 297.015 60.2016 297.004 60.2126 296.982C60.2456 296.938 60.2896 295.582 60.2786 295.086C60.2676 294.601 60.6419 291.395 60.763 290.711C60.829 290.348 61.1042 288.937 61.3904 288.563C61.5776 288.309 61.9078 288.331 62.172 288.496C63.636 289.411 64.0763 292.563 64.1864 294.161C64.2525 295.141 64.2855 296.607 64.2855 296.607C64.2855 296.607 65.9587 296.552 66.9934 296.585C67.9951 296.607 69.0959 296.761 70.1416 296.938C71.4736 297.147 74.0714 297.72 75.5574 298.469C76.7793 299.086 77.9351 300.144 78.2984 301.246C78.6396 302.26 78.5956 302.965 78.0672 303.88C77.4728 304.916 76.361 305.687 75.2272 305.753C74.886 305.775 73.6201 305.599 73.2238 305.301C73.0697 305.18 73.0807 304.96 73.1908 304.817C73.2348 304.762 73.8292 304.453 74.1815 304.266C74.3576 304.166 74.5007 304.067 74.6438 303.946C74.93 303.693 75.1942 303.406 75.1722 303.076C75.1281 302.646 74.6768 302.381 74.2475 302.205C72.2111 301.401 68.1602 300.728 66.2008 300.607C65.4303 300.563 64.3405 300.519 64.3405 300.519L64.5717 311.362C64.5717 311.362 65.4743 311.539 66.1898 311.649C66.5971 311.715 68.3253 311.869 68.7877 311.88C72.2881 311.968 76.1959 311.66 79.3992 310.139C80.8082 309.478 82.1071 308.652 83.0868 307.527C84.3747 306.051 85.0572 304.023 84.87 301.896C84.6719 299.582 83.0427 296.838 81.7548 295.163C78.3204 290.744 72.4422 287.119 67.2686 284.981C61.9848 282.81 56.7672 281.554 51.1642 281.345C49.7222 281.29 46.5739 281.367 44.9778 281.807C44.7467 281.874 44.5265 281.951 44.3063 281.995C44.1412 282.039 43.877 282.149 43.8 282.204C43.756 282.237 43.7229 282.281 43.7229 282.281C43.7229 282.281 43.822 282.336 43.9101 282.38C44.0752 282.458 44.7907 282.502 45.1539 282.568C45.4842 282.634 45.8254 282.799 45.9575 283.042C46.0896 283.273 46.1006 283.449 45.9465 283.648C45.5832 284.089 44.2293 284.011 43.6349 283.923C43.0184 283.824 42.2369 283.637 42.0938 283.097C41.9287 282.458 42.2369 281.829 42.5561 281.256C43.2166 280.099 44.1522 279.493 45.5282 279.119C47.4876 278.579 49.9533 278.204 51.8026 278.127C55.9856 277.973 59.9484 278.7 63.9993 279.934C66.3219 280.639 69.3601 281.818 71.5836 282.887C73.1798 283.659 75.6895 285.069 77.1095 285.995C77.5499 286.292 80.1587 288.21 80.566 288.54C81.4136 289.235 82.5144 290.227 83.3179 291.02C84.87 292.552 86.7964 294.91 87.7211 296.772C87.9412 297.224 88.1173 297.665 88.4145 298.183C88.5136 298.359 88.9429 299.428 89.009 299.726C89.075 300.034 89.1851 300.475 89.1961 300.497C89.2181 300.662 89.4162 301.577 89.3942 301.929ZM142 299.538C140.041 299.99 134.889 300.243 134.889 300.243L134.24 302.282C134.24 302.282 136.816 302.062 138.687 302.26C138.687 302.26 139.293 302.194 139.37 302.954C139.392 303.66 139.315 304.42 139.315 304.42C139.315 304.42 139.271 304.883 138.621 304.993C137.917 305.114 133.073 305.301 133.073 305.301L132.292 307.957C132.292 307.957 132.005 308.574 132.655 308.398C133.26 308.233 138.335 307.285 138.995 307.417C139.7 307.594 140.492 308.541 140.261 309.401C139.986 310.47 134.922 313.699 131.84 313.478C131.84 313.478 130.222 313.588 128.846 311.395C127.569 309.313 129.33 305.357 129.33 305.357C129.33 305.357 128.527 303.516 129.11 302.888C129.11 302.888 129.463 302.569 130.475 302.503L131.719 299.935C131.719 299.935 130.31 300.034 129.463 298.987C128.681 297.995 128.615 297.544 129.209 297.268C129.848 296.949 135.737 295.88 139.799 296.012C139.799 296.012 141.208 295.869 142.43 298.315C142.419 298.304 143.013 299.296 142 299.538ZM126.755 309.423C126.237 310.646 124.861 311.946 123.155 311.142C121.471 310.327 118.796 304.839 118.796 304.839C118.796 304.839 117.783 302.789 117.585 302.844C117.585 302.844 117.365 302.447 117.233 304.684C117.09 306.91 117.255 311.252 116.374 311.946C115.538 312.63 114.514 312.354 113.986 311.561C113.501 310.767 113.303 308.894 113.567 305.599C113.876 302.304 114.646 298.789 115.615 297.698C116.594 296.607 117.376 297.4 117.684 297.687C117.684 297.687 118.994 298.877 121.152 302.359L121.537 302.998C121.537 302.998 123.496 306.293 123.706 306.282C123.706 306.282 123.871 306.437 124.014 306.326C124.223 306.271 124.135 305.213 124.135 305.213C124.135 305.213 123.728 301.632 121.944 295.56C121.944 295.56 121.669 294.8 121.856 294.094C122.032 293.378 122.759 293.72 122.759 293.72C122.759 293.72 125.533 295.108 126.876 299.626C128.186 304.122 127.283 308.189 126.755 309.423ZM156.564 306.723C155.298 308.927 151.742 313.533 147.02 312.442C145.457 316.233 144.147 320.068 143.398 325.809C143.398 325.809 143.233 326.922 142.309 326.537C141.395 326.217 139.876 324.685 139.579 322.58C139.249 319.803 140.481 315.109 143.002 309.731C142.265 308.53 141.769 306.822 142.199 304.387C142.199 304.387 142.837 299.869 147.372 295.791C147.372 295.791 147.912 295.318 148.231 295.461C148.583 295.604 148.418 297.081 148.143 297.797C147.857 298.513 145.831 302.007 145.831 302.007C145.831 302.007 144.576 304.376 144.929 306.238C147.306 302.58 152.722 295.185 156.068 297.522C157.191 298.326 157.709 300.078 157.709 301.974C157.698 303.627 157.301 305.401 156.564 306.723ZM155.584 300.916C155.584 300.916 155.397 299.461 153.977 301.059C152.755 302.414 150.542 304.949 148.77 308.398C150.631 308.189 152.436 307.175 152.975 306.657C153.856 305.886 155.914 303.748 155.584 300.916ZM182.619 300.585H173.956C173.78 297.632 173.428 294.767 172.866 291.802C172.811 291.494 172.547 291.273 172.228 291.273H170.224C170.048 291.273 169.883 291.351 169.773 291.483C169.663 291.626 169.619 291.802 169.652 291.968C170.224 294.833 170.577 297.654 170.753 300.574H162.409C162.024 300.574 161.704 300.894 161.704 301.279V303.087C161.704 303.472 162.024 303.792 162.409 303.792H170.863C170.863 304.233 170.874 304.64 170.874 305.015C170.874 307.616 170.764 309.753 170.5 312.178C170.478 312.365 170.544 312.552 170.665 312.685C170.786 312.828 170.962 312.905 171.149 312.905H172.998C173.362 312.905 173.659 312.63 173.692 312.277C173.945 309.842 174.055 307.671 174.055 305.026C174.055 304.651 174.055 304.255 174.044 303.803H182.597C182.982 303.803 183.302 303.483 183.302 303.098V301.29C183.324 300.905 183.004 300.585 182.619 300.585Z" fill="#182348"/>
<path id="Vector_45" d="M66.7182 276.408C66.5971 276.595 66.5641 276.816 66.6411 277.025C66.7182 277.234 66.8723 277.4 67.0815 277.466L68.6336 277.995C68.7326 278.028 68.8207 278.039 68.9087 278.039C69.1949 278.039 69.4701 277.895 69.6243 277.653C74.7099 270.171 81.6007 263.933 89.5483 259.636C97.7491 255.195 107.04 252.837 116.418 252.837C127.745 252.837 138.676 256.187 148.033 262.512C157.158 268.683 164.247 277.3 168.529 287.417C168.661 287.714 168.948 287.912 169.278 287.912H171.138C171.347 287.912 171.556 287.802 171.677 287.626C171.799 287.45 171.821 287.218 171.744 287.02C167.329 276.132 159.855 266.865 150.146 260.198C140.206 253.377 128.538 249.762 116.429 249.762C96.3952 249.773 77.814 259.724 66.7182 276.408Z" fill="url(#paint0_linear_1_95)"/>
</g>
<path id="Vector_46" d="M204.8 290.293C204.855 290.182 204.91 290.083 204.976 289.995C204.91 290.083 204.844 290.16 204.778 290.249C204.866 290.138 204.954 290.039 205.064 289.951C204.976 290.017 204.899 290.083 204.811 290.149C204.943 290.05 205.086 289.973 205.229 289.907C205.13 289.951 205.031 289.995 204.932 290.039C205.108 289.962 205.295 289.918 205.482 289.896C205.372 289.907 205.262 289.929 205.152 289.94C205.372 289.907 205.592 289.918 205.813 289.94C205.703 289.929 205.592 289.907 205.482 289.896C205.692 289.929 205.89 289.984 206.077 290.061C205.978 290.017 205.879 289.973 205.78 289.929C205.934 289.995 206.077 290.072 206.209 290.171C206.121 290.105 206.044 290.039 205.956 289.973C206.077 290.061 206.176 290.171 206.275 290.293C206.209 290.204 206.143 290.127 206.077 290.039C206.154 290.138 206.22 290.249 206.264 290.37C206.22 290.271 206.176 290.171 206.132 290.072C206.154 290.116 206.165 290.171 206.187 290.216C206.297 289.808 206.407 289.4 206.506 288.992C206.363 289.158 206.209 289.301 206.044 289.433C206.132 289.367 206.209 289.301 206.297 289.235C206.11 289.378 205.912 289.488 205.692 289.587C205.791 289.543 205.89 289.499 205.989 289.455C205.758 289.554 205.526 289.62 205.273 289.654C205.383 289.642 205.493 289.62 205.603 289.609C205.416 289.631 205.218 289.631 205.031 289.609C205.141 289.62 205.251 289.642 205.361 289.654C205.174 289.631 204.987 289.576 204.8 289.51C204.899 289.554 204.998 289.598 205.097 289.642C204.965 289.587 204.844 289.51 204.734 289.433C204.822 289.499 204.899 289.565 204.987 289.631C204.855 289.521 204.734 289.411 204.624 289.268C204.69 289.356 204.756 289.433 204.822 289.521C204.723 289.378 204.635 289.235 204.569 289.08C204.613 289.18 204.657 289.279 204.701 289.378C204.624 289.202 204.58 289.025 204.547 288.849C204.558 288.959 204.58 289.069 204.591 289.18C204.569 289.014 204.569 288.849 204.591 288.684C204.58 288.794 204.558 288.904 204.547 289.014C204.569 288.882 204.602 288.75 204.657 288.629C204.613 288.728 204.569 288.827 204.525 288.926C204.58 288.816 204.635 288.717 204.712 288.618C204.646 288.706 204.58 288.783 204.514 288.871C204.58 288.783 204.657 288.706 204.745 288.64C204.657 288.706 204.58 288.772 204.492 288.838C204.58 288.772 204.668 288.728 204.767 288.684C204.668 288.728 204.569 288.772 204.47 288.816C204.591 288.761 204.712 288.739 204.844 288.717C204.734 288.728 204.624 288.75 204.514 288.761C204.657 288.739 204.8 288.739 204.954 288.761C204.844 288.75 204.734 288.728 204.624 288.717C204.778 288.739 204.932 288.783 205.086 288.838C204.987 288.794 204.888 288.75 204.789 288.706C204.91 288.761 205.02 288.816 205.119 288.904C205.031 288.838 204.954 288.772 204.866 288.706C204.943 288.772 205.02 288.838 205.075 288.915C205.009 288.827 204.943 288.75 204.877 288.662C204.943 288.739 204.987 288.827 205.031 288.915C204.987 288.816 204.943 288.717 204.899 288.618C204.932 288.706 204.954 288.783 204.965 288.882C204.954 288.772 204.932 288.662 204.921 288.552C204.921 288.563 204.921 288.574 204.921 288.596C204.965 288.937 205.031 289.235 205.295 289.488C205.515 289.709 205.868 289.874 206.187 289.863C206.517 289.852 206.847 289.742 207.078 289.488C207.288 289.257 207.486 288.915 207.453 288.596C207.398 288.166 207.321 287.758 207.056 287.405C206.803 287.064 206.517 286.766 206.132 286.579C205.449 286.248 204.624 286.105 203.886 286.37C203.039 286.667 202.378 287.339 202.169 288.232C201.982 289.047 202.125 289.94 202.576 290.656C203.028 291.373 203.765 291.946 204.613 292.1C205.537 292.254 206.451 292.111 207.266 291.648C207.618 291.45 207.959 291.185 208.223 290.877C208.576 290.48 208.785 290.006 208.587 289.477C208.51 289.279 208.432 289.069 208.311 288.882C207.893 288.243 207.288 287.813 206.572 287.582C205.163 287.119 203.292 287.637 202.62 289.047C202.477 289.356 202.4 289.676 202.488 290.017C202.565 290.315 202.796 290.623 203.072 290.766C203.633 291.042 204.503 290.932 204.8 290.293Z" fill="#040000"/>
<path id="Vector_47" d="M205.901 305.423C205.284 306.271 204.668 307.12 204.051 307.957C204.624 307.803 205.207 307.66 205.78 307.505C205.736 307.483 205.692 307.45 205.647 307.428C205.736 307.494 205.813 307.561 205.901 307.627C205.846 307.583 205.802 307.539 205.758 307.483C205.824 307.572 205.89 307.649 205.956 307.737C205.901 307.671 205.857 307.594 205.824 307.505C205.868 307.605 205.912 307.704 205.956 307.803C205.923 307.704 205.89 307.616 205.879 307.516C205.89 307.627 205.912 307.737 205.923 307.847C205.912 307.737 205.912 307.627 205.923 307.516C205.912 307.627 205.89 307.737 205.879 307.847C205.89 307.748 205.923 307.649 205.956 307.55C205.912 307.649 205.868 307.748 205.824 307.847C205.857 307.759 205.901 307.693 205.956 307.616C205.89 307.704 205.824 307.781 205.758 307.869C205.813 307.803 205.868 307.748 205.923 307.704C205.835 307.77 205.758 307.836 205.669 307.902C205.725 307.869 205.769 307.836 205.824 307.814C205.207 307.561 204.591 307.307 203.974 307.065C203.974 307.076 203.974 307.087 203.974 307.098C203.963 306.988 203.941 306.877 203.93 306.767C203.93 306.789 203.93 306.8 203.93 306.822C203.941 306.712 203.963 306.602 203.974 306.492C203.974 306.525 203.963 306.547 203.952 306.569C203.996 306.47 204.04 306.37 204.084 306.271C204.073 306.282 204.073 306.304 204.062 306.315C204.128 306.227 204.194 306.15 204.26 306.062C204.238 306.084 204.227 306.106 204.205 306.117C204.294 306.051 204.371 305.985 204.459 305.919C204.426 305.941 204.393 305.963 204.36 305.974C204.459 305.93 204.558 305.886 204.657 305.841C204.613 305.864 204.558 305.875 204.514 305.886C204.624 305.875 204.734 305.852 204.844 305.841C204.8 305.841 204.767 305.841 204.723 305.841C204.833 305.852 204.943 305.875 205.053 305.886C205.009 305.875 204.976 305.875 204.932 305.852C205.031 305.897 205.13 305.941 205.229 305.985C205.196 305.974 205.174 305.952 205.152 305.941C205.24 306.007 205.317 306.073 205.405 306.139C205.361 306.106 205.328 306.073 205.295 306.029C205.361 306.117 205.427 306.194 205.493 306.282C205.449 306.227 205.427 306.172 205.394 306.106C205.438 306.205 205.482 306.304 205.526 306.403C205.482 306.282 205.449 306.172 205.438 306.04C205.449 306.15 205.471 306.26 205.482 306.37C205.471 306.304 205.471 306.238 205.46 306.161C205.427 305.819 205.339 305.522 205.086 305.268C204.866 305.048 204.514 304.883 204.194 304.894C203.864 304.905 203.534 305.015 203.303 305.268C203.094 305.5 202.907 305.83 202.929 306.161C202.951 306.381 202.973 306.591 203.017 306.811C203.05 307.01 203.138 307.197 203.226 307.384C203.314 307.572 203.446 307.748 203.589 307.88C203.798 308.078 204.051 308.233 204.327 308.299C204.767 308.409 205.295 308.354 205.681 308.101C205.901 307.957 206.11 307.77 206.242 307.527C206.341 307.34 206.385 307.186 206.418 306.977C206.451 306.767 206.429 306.613 206.385 306.392C206.319 306.018 205.989 305.709 205.658 305.577C205.262 305.412 204.91 305.467 204.536 305.643C204.183 305.808 203.864 306.139 203.677 306.481C203.479 306.844 203.38 307.241 203.369 307.66C203.347 308.464 203.776 309.313 204.492 309.698C204.778 309.853 205.152 309.93 205.46 309.831C205.559 309.787 205.658 309.742 205.758 309.698C205.945 309.588 206.099 309.434 206.209 309.247C206.825 308.398 207.442 307.55 208.058 306.712C208.234 306.459 208.267 306.029 208.19 305.742C208.113 305.445 207.882 305.136 207.607 304.993C207.31 304.839 206.957 304.762 206.638 304.861C206.539 304.905 206.44 304.949 206.341 304.993C206.165 305.092 206.011 305.235 205.901 305.423Z" fill="#040000"/>
<path id="Vector_48" d="M306.886 420.072C303.76 449.924 299.5 479.744 300.171 509.817C300.865 540.606 301.184 571.406 301.019 602.206C301.008 603.837 303.529 603.837 303.54 602.206C303.705 571.406 303.386 540.606 302.692 509.817C302.021 479.744 306.281 449.924 309.407 420.072C309.572 418.452 307.051 418.463 306.886 420.072Z" fill="#040000"/>
<path id="Vector_49" d="M46.1006 593.28C45.7704 594.415 46.4529 595.396 47.0253 596.31C47.4876 597.06 47.9609 597.798 48.4893 598.514C49.6011 600.024 50.889 601.391 52.5292 602.327C53.1016 602.647 53.9382 602.481 54.2574 601.875C54.5766 601.28 54.4225 600.498 53.8061 600.145C53.4758 599.958 53.1566 599.749 52.8484 599.528C52.6723 599.396 53.0685 599.715 52.7713 599.473C52.7053 599.418 52.6502 599.374 52.5842 599.319C52.4301 599.187 52.287 599.054 52.1329 598.922C51.8577 598.658 51.5935 598.382 51.3403 598.096C51.2192 597.963 51.0981 597.82 50.9881 597.677C50.922 597.6 50.856 597.523 50.8009 597.434C50.6578 597.258 50.9661 597.666 50.7349 597.346C50.2836 596.74 49.8653 596.112 49.458 595.462C49.2488 595.131 49.0507 594.801 48.8526 594.47C48.7425 594.294 48.6324 594.117 48.5443 593.93C48.6104 594.073 48.5113 593.908 48.5333 593.886C48.5443 593.864 48.4453 594.305 48.5443 593.963C48.7315 593.335 48.3242 592.564 47.6637 592.409C46.9702 592.244 46.2988 592.597 46.1006 593.28Z" fill="#040000"/>
<path id="Vector_50" d="M69.5912 602.426C72.8385 571.351 76.0858 540.231 77.0545 508.979C78.0232 477.705 76.0418 446.244 80.621 415.179C80.8522 413.592 78.4195 412.898 78.1883 414.507C73.6531 445.263 75.4694 476.35 74.5888 507.304C73.6861 539.118 70.3728 570.789 67.0815 602.426C66.9053 604.035 69.4261 604.024 69.5912 602.426Z" fill="#040000"/>
<g id="Group_4">
<path id="Vector_51" d="M208.576 363.64C208.157 363.464 207.794 363.331 207.464 363.265C207.134 363.188 206.803 363.155 206.484 363.155C205.835 363.155 205.273 363.298 204.778 363.574C204.283 363.849 203.875 364.224 203.556 364.676C203.237 365.139 202.984 365.657 202.818 366.241C202.653 366.825 202.565 367.42 202.565 368.037C202.565 368.665 202.653 369.271 202.818 369.866C202.995 370.461 203.248 370.99 203.589 371.453C203.93 371.916 204.371 372.29 204.899 372.566C205.427 372.841 206.044 372.985 206.737 372.985C207.001 372.985 207.288 372.963 207.585 372.919C207.882 372.874 208.19 372.797 208.509 372.687L209.071 374.219C208.168 374.527 207.31 374.682 206.484 374.682C205.548 374.682 204.745 374.494 204.062 374.12C203.38 373.745 202.818 373.249 202.367 372.621C201.916 371.993 201.586 371.299 201.354 370.505C201.134 369.712 201.024 368.907 201.024 368.081C201.024 367.254 201.134 366.439 201.354 365.646C201.575 364.852 201.905 364.136 202.334 363.519C202.763 362.902 203.303 362.406 203.963 362.02C204.613 361.645 205.372 361.458 206.242 361.458C206.704 361.458 207.178 361.513 207.651 361.623C208.124 361.734 208.664 361.921 209.28 362.185L208.576 363.64Z" fill="#040000"/>
<path id="Vector_52" d="M217.426 361.778C218.306 361.8 219.077 361.976 219.737 362.329C220.398 362.681 220.959 363.144 221.411 363.728C221.862 364.312 222.192 364.984 222.401 365.734C222.61 366.483 222.721 367.265 222.721 368.081C222.655 368.94 222.456 369.756 222.126 370.505C221.807 371.255 221.389 371.927 220.871 372.5C220.365 373.073 219.77 373.525 219.11 373.866C218.45 374.197 217.734 374.362 216.985 374.362C216.281 374.34 215.632 374.175 215.015 373.833C214.41 373.503 213.87 373.051 213.43 372.5C212.979 371.949 212.626 371.288 212.373 370.538C212.109 369.789 211.988 368.962 211.988 368.059C211.988 367.254 212.142 366.461 212.45 365.701C212.759 364.94 213.166 364.268 213.672 363.684C214.179 363.1 214.762 362.637 215.411 362.296C216.061 361.954 216.732 361.778 217.426 361.778ZM217.591 363.375C217.074 363.375 216.578 363.497 216.116 363.75C215.654 364.004 215.235 364.345 214.883 364.786C214.531 365.227 214.234 365.745 213.991 366.351C213.749 366.957 213.628 367.618 213.617 368.334C213.617 368.94 213.705 369.513 213.881 370.042C214.057 370.571 214.3 371.034 214.608 371.431C214.916 371.828 215.279 372.136 215.698 372.379C216.116 372.61 216.567 372.742 217.03 372.753C217.58 372.753 218.108 372.621 218.604 372.368C219.099 372.103 219.528 371.75 219.892 371.299C220.255 370.847 220.552 370.329 220.761 369.723C220.981 369.117 221.102 368.478 221.135 367.794C221.135 367.199 221.047 366.648 220.882 366.119C220.706 365.601 220.464 365.139 220.156 364.742C219.837 364.345 219.462 364.026 219.022 363.783C218.593 363.541 218.108 363.409 217.591 363.375Z" fill="#040000"/>
<path id="Vector_53" d="M237.372 373.503V373.205C237.405 372.323 237.405 371.387 237.361 370.406C237.317 369.414 237.229 368.511 237.086 367.684C236.954 366.858 236.766 366.174 236.524 365.634C236.282 365.095 235.985 364.83 235.655 364.83C235.457 364.83 235.225 364.929 234.972 365.139C234.708 365.348 234.433 365.69 234.136 366.163C233.838 366.637 233.53 367.276 233.189 368.059C232.848 368.841 232.528 369.833 232.209 371.001C231.901 370.979 231.637 370.957 231.417 370.935C231.197 370.913 230.943 370.891 230.679 370.869C230.712 370.263 230.712 369.569 230.668 368.797C230.624 368.026 230.536 367.299 230.415 366.626C230.294 365.954 230.118 365.381 229.909 364.918C229.688 364.455 229.435 364.213 229.127 364.213C228.841 364.213 228.522 364.433 228.18 364.874C227.839 365.315 227.454 366.086 227.025 367.21C227.058 368.411 227.124 369.591 227.223 370.748C227.322 371.905 227.432 373.073 227.564 374.263C227.223 374.296 226.937 374.34 226.705 374.384C226.474 374.428 226.199 374.472 225.902 374.505C225.704 372.764 225.561 371.067 225.472 369.425C225.384 367.783 225.34 366.108 225.34 364.4C225.34 363.937 225.34 363.475 225.34 363.012C225.34 362.549 225.351 362.086 225.362 361.601L227.08 361.678L227.025 363.21C227.828 362.659 228.555 362.362 229.204 362.318C229.666 362.34 230.063 362.494 230.371 362.802C230.679 363.111 230.943 363.486 231.141 363.948C231.34 364.411 231.494 364.907 231.615 365.458C231.736 366.009 231.835 366.538 231.923 367.056C232.187 366.571 232.473 366.086 232.782 365.59C233.09 365.095 233.409 364.643 233.75 364.246C234.092 363.838 234.444 363.508 234.796 363.254C235.159 362.99 235.512 362.869 235.875 362.869C236.381 362.869 236.811 363.056 237.163 363.42C237.526 363.783 237.812 364.268 238.054 364.863C238.286 365.458 238.473 366.13 238.605 366.88C238.737 367.629 238.847 368.4 238.913 369.172C238.99 369.943 239.034 370.693 239.045 371.409C239.067 372.125 239.067 372.753 239.067 373.293L237.372 373.503Z" fill="#040000"/>
<path id="Vector_54" d="M242.05 360.676L241.698 359.034L243.745 358.604L244.098 360.246L242.05 360.676ZM242.237 374.362C242.204 372.478 242.16 370.682 242.116 368.973C242.072 367.265 242.039 365.469 242.017 363.585C242.38 363.585 242.667 363.585 242.909 363.574C243.14 363.563 243.415 363.563 243.712 363.563C243.734 365.447 243.756 367.243 243.811 368.951C243.856 370.66 243.9 372.456 243.933 374.34L242.237 374.362Z" fill="#040000"/>
<path id="Vector_55" d="M246.74 359.706H248.435V360.488C249.833 360.4 250.989 360.565 251.902 360.973C252.816 361.392 253.542 361.954 254.082 362.681C254.621 363.409 254.995 364.268 255.227 365.26C255.447 366.252 255.579 367.276 255.612 368.323C255.645 369.381 255.612 370.439 255.491 371.497C255.37 372.555 255.249 373.536 255.127 374.417C254.764 374.417 254.467 374.406 254.225 374.395C253.983 374.373 253.707 374.373 253.399 374.373C253.454 373.657 253.531 372.852 253.63 371.949C253.729 371.045 253.785 370.142 253.807 369.227C253.829 368.312 253.774 367.42 253.663 366.56C253.542 365.701 253.289 364.94 252.893 364.279C252.497 363.629 251.946 363.111 251.242 362.725C250.537 362.351 249.591 362.174 248.435 362.218V374.527H246.74V359.706V359.706Z" fill="#040000"/>
<path id="Vector_56" d="M261.611 386.594C262.316 386.473 262.888 386.164 263.328 385.69C263.769 385.217 264.132 384.644 264.374 383.993C264.627 383.332 264.803 382.638 264.902 381.889C265.001 381.139 265.045 380.434 265.045 379.751L264.88 369.888C264.418 369.976 263.989 370.053 263.603 370.12C263.218 370.186 262.877 370.219 262.591 370.219C262.018 370.219 261.457 370.142 260.907 369.987C260.356 369.833 259.883 369.591 259.465 369.26C259.046 368.929 258.716 368.489 258.474 367.949C258.221 367.409 258.1 366.759 258.1 365.976C258.1 365.095 258.298 364.323 258.694 363.651C259.09 362.979 259.608 362.417 260.257 361.954C260.907 361.491 261.633 361.149 262.448 360.918C263.262 360.687 264.099 360.565 264.935 360.565L266.388 360.676C266.443 363.783 266.488 366.406 266.532 368.544C266.576 370.682 266.609 372.445 266.642 373.833C266.675 375.222 266.686 376.302 266.697 377.051C266.708 377.8 266.719 378.362 266.719 378.737C266.719 379.112 266.73 379.343 266.73 379.442C266.73 379.541 266.73 379.619 266.73 379.674C266.73 380.522 266.653 381.415 266.488 382.384C266.322 383.343 266.058 384.247 265.662 385.095C265.277 385.944 264.759 386.66 264.11 387.266C263.46 387.872 262.668 388.214 261.71 388.302L261.611 386.594ZM264.759 362.262C264.187 362.296 263.603 362.406 263.009 362.571C262.415 362.747 261.886 362.979 261.402 363.287C260.918 363.596 260.532 363.971 260.235 364.422C259.938 364.874 259.773 365.403 259.773 366.009C259.773 366.516 259.85 366.924 260.004 367.243C260.158 367.563 260.356 367.827 260.609 368.015C260.863 368.202 261.149 368.334 261.468 368.4C261.787 368.478 262.128 368.511 262.492 368.511C262.855 368.511 263.229 368.478 263.636 368.4C264.044 368.334 264.44 368.246 264.836 368.158L264.759 362.262Z" fill="#040000"/>
<path id="Vector_57" d="M278.299 376.599C278.673 376.478 279.113 376.324 279.609 376.136C280.104 375.949 280.566 375.74 280.996 375.486C281.425 375.233 281.799 374.946 282.097 374.616C282.405 374.285 282.559 373.899 282.559 373.47C282.559 373.106 282.438 372.731 282.185 372.323C281.931 371.916 281.623 371.453 281.271 370.935C280.985 370.527 280.677 370.075 280.357 369.591C280.038 369.106 279.73 368.588 279.455 368.026C279.179 367.475 278.948 366.869 278.772 366.23C278.596 365.59 278.508 364.918 278.508 364.191C278.508 363.221 278.651 362.373 278.926 361.656C279.202 360.94 279.598 360.323 280.093 359.816C280.6 359.309 281.194 358.89 281.887 358.56C282.581 358.24 283.34 358.009 284.166 357.866C284.199 358.207 284.243 358.494 284.287 358.725C284.331 358.957 284.375 359.232 284.408 359.53C283.759 359.64 283.186 359.794 282.669 359.992C282.163 360.191 281.722 360.466 281.359 360.819C280.996 361.172 280.721 361.623 280.522 362.174C280.324 362.736 280.225 363.42 280.225 364.246C280.225 364.841 280.291 365.392 280.423 365.921C280.555 366.45 280.743 366.935 280.963 367.387C281.183 367.849 281.436 368.279 281.711 368.698C281.986 369.117 282.262 369.502 282.537 369.888C282.955 370.483 283.329 371.089 283.682 371.706C284.034 372.323 284.221 372.952 284.232 373.58C284.177 374.208 283.968 374.77 283.616 375.266C283.252 375.762 282.812 376.191 282.295 376.555C281.777 376.919 281.205 377.238 280.6 377.514C279.994 377.778 279.411 378.021 278.849 378.219L278.299 376.599Z" fill="#040000"/>
<path id="Vector_58" d="M292.433 361.778C293.313 361.8 294.084 361.976 294.745 362.329C295.405 362.681 295.966 363.144 296.418 363.728C296.869 364.312 297.199 364.984 297.408 365.734C297.618 366.483 297.728 367.265 297.728 368.081C297.662 368.94 297.463 369.756 297.133 370.505C296.814 371.255 296.396 371.927 295.878 372.5C295.372 373.073 294.778 373.525 294.117 373.866C293.457 374.197 292.741 374.362 291.993 374.362C291.288 374.34 290.639 374.175 290.022 373.833C289.417 373.503 288.877 373.051 288.437 372.5C287.986 371.949 287.633 371.288 287.38 370.538C287.116 369.789 286.995 368.962 286.995 368.059C286.995 367.254 287.149 366.461 287.457 365.701C287.766 364.94 288.173 364.268 288.679 363.684C289.186 363.1 289.769 362.637 290.418 362.296C291.057 361.954 291.728 361.778 292.433 361.778ZM292.587 363.375C292.07 363.375 291.574 363.497 291.112 363.75C290.65 364.004 290.231 364.345 289.879 364.786C289.527 365.227 289.23 365.745 288.987 366.351C288.745 366.957 288.624 367.618 288.613 368.334C288.613 368.94 288.701 369.513 288.877 370.042C289.053 370.571 289.296 371.034 289.604 371.431C289.912 371.828 290.275 372.136 290.694 372.379C291.112 372.61 291.563 372.742 292.026 372.753C292.576 372.753 293.104 372.621 293.6 372.368C294.095 372.103 294.524 371.75 294.888 371.299C295.251 370.847 295.548 370.329 295.757 369.723C295.977 369.117 296.098 368.478 296.131 367.794C296.131 367.199 296.043 366.648 295.878 366.119C295.702 365.601 295.46 365.139 295.152 364.742C294.833 364.345 294.458 364.026 294.018 363.783C293.589 363.541 293.115 363.409 292.587 363.375ZM305.752 360.973C306.633 360.995 307.403 361.183 308.064 361.557C308.724 361.921 309.286 362.417 309.737 363.034C310.188 363.651 310.519 364.367 310.728 365.172C310.948 365.976 311.047 366.814 311.047 367.673C310.97 368.588 310.772 369.447 310.453 370.263C310.133 371.067 309.715 371.773 309.198 372.379C308.691 372.985 308.097 373.459 307.436 373.822C306.776 374.186 306.06 374.362 305.312 374.362C304.607 374.34 303.958 374.164 303.353 373.811C302.747 373.459 302.208 372.985 301.767 372.379C301.316 371.773 300.964 371.078 300.7 370.274C300.436 369.48 300.314 368.599 300.314 367.651C300.314 366.792 300.469 365.954 300.777 365.15C301.085 364.345 301.492 363.629 301.999 363.012C302.505 362.395 303.088 361.899 303.738 361.535C304.387 361.172 305.048 360.973 305.752 360.973ZM305.906 362.67C305.389 362.67 304.894 362.802 304.431 363.056C303.969 363.309 303.551 363.684 303.198 364.158C302.835 364.632 302.549 365.194 302.307 365.844C302.065 366.494 301.944 367.188 301.933 367.949C301.933 368.599 302.021 369.194 302.197 369.756C302.373 370.318 302.615 370.803 302.923 371.222C303.232 371.64 303.595 371.982 304.013 372.235C304.431 372.489 304.883 372.621 305.345 372.643C305.895 372.643 306.424 372.5 306.919 372.224C307.414 371.949 307.844 371.574 308.207 371.089C308.57 370.615 308.867 370.053 309.077 369.414C309.297 368.775 309.418 368.092 309.451 367.354C309.451 366.725 309.363 366.13 309.198 365.579C309.022 365.017 308.779 364.533 308.471 364.125C308.163 363.717 307.778 363.375 307.337 363.111C306.897 362.847 306.435 362.703 305.906 362.67Z" fill="#040000"/>
<path id="Vector_59" d="M313.634 359.706H315.329V360.488C316.727 360.4 317.883 360.565 318.797 360.973C319.71 361.392 320.437 361.954 320.976 362.681C321.515 363.409 321.89 364.268 322.121 365.26C322.341 366.252 322.473 367.276 322.506 368.323C322.539 369.381 322.506 370.439 322.385 371.497C322.264 372.555 322.143 373.536 322.022 374.417C321.659 374.417 321.361 374.406 321.119 374.395C320.877 374.373 320.602 374.373 320.294 374.373C320.349 373.657 320.426 372.852 320.525 371.949C320.624 371.045 320.679 370.142 320.701 369.227C320.723 368.312 320.668 367.42 320.558 366.56C320.437 365.701 320.184 364.94 319.787 364.279C319.391 363.629 318.841 363.111 318.136 362.725C317.432 362.351 316.485 362.174 315.329 362.218V374.527H313.634V359.706V359.706Z" fill="#040000"/>
<path id="Vector_60" d="M325.016 372.775H326.711V374.88H325.016V372.775Z" fill="#040000"/>
<path id="Vector_61" d="M329.265 372.775H330.96V374.88H329.265V372.775Z" fill="#040000"/>
<path id="Vector_62" d="M333.525 372.775H335.22V374.88H333.525V372.775Z" fill="#040000"/>
</g>
<g id="Light">
<path id="Vector_63" d="M67.4557 347.055C68.8427 345.347 69.5142 343.154 69.316 340.972C67.1805 341.182 65.1881 342.218 63.7791 343.837C62.3701 345.424 61.6436 347.496 61.7867 349.623C63.9552 349.711 66.0687 348.752 67.4557 347.055Z" fill="#040000"/>
<path id="Vector_64" d="M67.4557 346.912C68.7987 345.237 69.4701 343.099 69.316 340.961C67.1805 341.171 65.1881 342.207 63.7791 343.826C62.3701 345.413 61.6436 347.485 61.7867 349.612C63.9993 349.667 66.0907 348.664 67.4557 346.912Z" fill="#040000"/>
<path id="Vector_65" d="M69.283 349.964C66.2008 349.777 63.57 351.717 62.161 351.717C60.752 351.717 58.4403 350.042 55.9746 350.086C52.7273 350.174 49.7662 351.992 48.2251 354.846C44.8898 360.587 47.3445 369.15 50.6028 373.734C52.1659 376.114 54.0482 378.495 56.547 378.495C59.0458 378.495 59.8163 376.974 62.6893 376.974C65.5624 376.974 66.3659 378.495 68.8757 378.45C71.3745 378.406 73.0697 376.07 74.6328 373.822C75.7446 372.191 76.6032 370.395 77.1976 368.511C74.1595 367.166 72.2111 364.136 72.2331 360.819C72.2771 357.91 73.8182 355.21 76.295 353.689C74.7098 351.441 72.167 350.053 69.4261 349.964" fill="#040000"/>
<path id="Vector_66" d="M93.6102 346.923V352.852H98.3656V356.94H93.6102V370.858C93.6102 373.018 94.5569 374.032 96.6704 374.032C97.2428 374.032 97.8042 373.987 98.3766 373.899V377.966C97.4299 378.142 96.4722 378.219 95.5146 378.197C90.3959 378.197 88.3925 376.269 88.3925 371.387V356.995H84.793V352.841H88.4476V346.912H93.6102V346.923Z" fill="#040000"/>
<path id="Vector_67" d="M115.747 378.153H110.232L101.118 352.852H106.632L112.962 373.029L119.379 352.852H124.795L115.747 378.153Z" fill="#040000"/>
<path id="Vector_68" d="M153.041 362.99H142.991V352.907H138.192V362.99H128.186V367.728H138.192V377.877H142.991V367.728H153.041V362.99Z" fill="#040000"/>
</g>
<g id="price">
<path id="Vector_69" d="M74.3466 68.6198C85.7947 66.8677 97.2428 65.1266 108.702 63.3744C110.056 63.1651 110.782 61.4791 110.463 60.2669C110.078 58.8233 108.702 58.2944 107.359 58.5037C95.9109 60.2559 84.4628 61.997 73.0036 63.7491C71.6497 63.9585 70.9232 65.6445 71.2424 66.8567C71.6277 68.3003 73.0147 68.8292 74.3466 68.6198Z" fill="#EB6100"/>
<path id="Vector_70" d="M94.656 65.2478C93.5772 77.3805 92.5094 89.5022 91.4307 101.635C91.1445 104.875 96.186 104.853 96.4722 101.635C97.551 89.5022 98.6188 77.3805 99.6975 65.2478C99.9837 62.008 94.9422 62.0301 94.656 65.2478Z" fill="#EB6100"/>
<path id="Vector_71" d="M103.858 85.3147C102.538 88.797 102.174 93.1057 103.385 96.6871C103.947 98.3621 104.893 99.993 106.445 100.952C108.185 102.021 110.375 101.955 112.114 100.93C115.23 99.0894 116.892 94.968 118.003 91.7062C119.181 88.257 119.666 83.8161 116.892 80.962C114.272 78.2731 109.384 78.1519 107.293 81.535C106.577 82.692 107.04 84.3119 108.196 84.9952C109.395 85.7004 110.925 85.2486 111.652 84.0915C111.883 83.7169 111.366 84.356 111.762 83.9703C111.96 83.783 111.608 84.1026 111.597 84.1026C111.971 83.8822 111.531 84.1026 111.465 84.1246C111.564 84.0915 112.18 83.8601 111.817 83.9924C111.553 84.0916 111.707 83.9924 111.839 84.0034C111.96 84.0034 112.081 84.0034 112.202 84.0034C112.643 83.9924 112.18 84.0034 112.092 83.9814C112.18 84.0034 112.279 84.0144 112.367 84.0475C112.61 84.1246 112.995 84.3009 112.577 84.0805C112.753 84.1797 112.973 84.356 113.16 84.4111C113.38 84.4772 113.094 84.356 113.028 84.3009C113.105 84.367 113.27 84.5764 113.369 84.6315C113.556 84.7197 113.325 84.5764 113.27 84.4883C113.347 84.6205 113.435 84.7417 113.512 84.8739C113.512 84.8739 113.71 85.2486 113.611 85.0392C113.501 84.8078 113.699 85.2927 113.71 85.3368C113.743 85.458 113.776 85.5792 113.81 85.7115C113.81 85.7225 113.898 86.1302 113.854 85.8878C113.798 85.6123 113.876 86.1412 113.876 86.1963C113.887 86.3726 113.887 86.5489 113.887 86.7253C113.887 87.0338 113.865 87.3424 113.832 87.6509C113.865 87.2652 113.754 88.0697 113.732 88.1689C113.6 88.83 113.413 89.4802 113.204 90.1304C112.775 91.4417 112.389 92.3453 111.751 93.5795C111.454 94.1526 111.135 94.7256 110.782 95.2656C110.716 95.3647 110.65 95.4639 110.573 95.5631C110.342 95.9047 110.782 95.3207 110.529 95.6402C110.353 95.8606 110.155 96.07 109.957 96.2683C109.847 96.3785 109.726 96.4887 109.605 96.5879C109.649 96.5549 109.88 96.4006 109.638 96.5328C109.583 96.5659 109.164 96.7973 109.439 96.6651C109.715 96.5328 109.329 96.6981 109.318 96.6981C108.988 97.0177 109.274 96.4116 109.329 96.7202C109.329 96.7202 108.878 96.7091 109.208 96.7422C109.494 96.7642 109.164 96.7312 109.109 96.7091C108.493 96.4998 109.373 96.8634 109.043 96.6761C108.801 96.5328 109.098 96.7532 109.131 96.7753C109.021 96.6871 108.933 96.5769 108.823 96.4887C108.801 96.4667 108.57 96.1912 108.746 96.4116C108.944 96.654 108.669 96.2794 108.625 96.2132C108.504 96.0259 108.405 95.8276 108.306 95.6182C108.129 95.2656 108.427 95.9598 108.295 95.5961C108.24 95.4529 108.196 95.3096 108.152 95.1664C107.722 93.7779 107.656 92.6208 107.722 91.1001C107.788 89.6786 108.118 88.2129 108.691 86.7032C109.164 85.469 108.174 83.8822 106.93 83.5957C105.532 83.221 104.365 83.9924 103.858 85.3147Z" fill="#EB6100"/>
<path id="Vector_72" d="M138.456 81.0721C133.987 81.8876 129.782 84.0585 126.579 87.2873C123.562 90.3397 122.396 95.1002 126.689 97.6678C135.286 102.803 141.978 88.4664 144.51 82.6039C146.437 78.1519 147.857 73.5016 148.638 68.708C149.012 66.4269 149.266 64.1348 149.387 61.8317C149.497 59.6608 149.618 57.3907 148.473 55.4513C147.559 53.9085 145.875 52.8396 144.048 53.2914C141.736 53.8644 141.087 56.2006 140.591 58.2282C139.37 63.2863 138.885 68.5758 139.249 73.7661C139.898 83.2651 143.85 95.5521 155.32 95.7284C158.567 95.7835 158.567 90.7254 155.32 90.6813C148.869 90.5822 145.908 83.8932 144.873 78.4494C144.235 75.0664 144.07 71.5842 144.235 68.157C144.312 66.3828 144.488 64.6197 144.785 62.8786C144.862 62.4378 146.128 57.7985 145.974 57.6773C145.71 57.4569 144.191 58.1401 144.191 58.1621C144.147 58.3384 144.367 58.7131 144.4 58.9335C144.488 59.5396 144.4 60.2008 144.389 60.8069C144.334 62.537 144.213 64.2781 143.993 65.9972C143.575 69.2039 142.837 72.3886 141.857 75.4741C140.834 78.6919 139.513 81.7884 137.906 84.7527C136.497 87.3534 134.922 90.2626 132.754 92.3233C131.895 93.1277 130.618 94.0754 129.408 93.4142C128.032 92.6649 129.672 91.3756 130.387 90.6703C132.985 88.1358 136.254 86.6261 139.81 85.9759C142.991 85.3698 141.637 80.4991 138.456 81.0721Z" fill="#EB6100"/>
<path id="Vector_73" d="M165.458 79.4192C163.047 79.9922 160.912 81.2925 159.437 83.2981C158.116 85.0833 157.709 87.6289 158.391 89.7447C159.239 92.3233 161.396 93.9322 164.071 94.1636C166.35 94.3509 168.771 93.2379 170.334 91.607C172.228 89.6455 173.163 87.0448 174 84.5103C172.459 84.7087 170.929 84.918 169.388 85.1164C170.445 87.4856 171.501 89.8549 172.569 92.2241C173.108 93.4363 174.958 93.8109 176.026 93.1277C177.28 92.3233 177.512 90.9679 176.928 89.6675C175.871 87.2983 174.815 84.929 173.747 82.5598C173.34 81.6562 172.129 81.2374 171.237 81.3587C170.213 81.4909 169.454 82.1962 169.135 83.1659C168.947 83.7169 168.771 84.2789 168.562 84.8299C168.485 85.0392 168.408 85.2376 168.331 85.447C168.221 85.7225 168.221 85.7225 168.331 85.447C168.276 85.5792 168.21 85.7114 168.155 85.8437C167.935 86.3065 167.704 86.7473 167.428 87.1771C167.373 87.2652 166.834 87.9815 167.197 87.5407C167.054 87.706 166.922 87.8713 166.768 88.0256C166.68 88.1137 166.019 88.6758 166.537 88.2901C166.383 88.4113 166.218 88.5215 166.041 88.6207C165.931 88.6868 165.161 89.0394 165.755 88.808C165.513 88.9072 165.26 88.9843 165.007 89.0504C164.941 89.0614 164.886 89.0835 164.82 89.0945C164.533 89.1496 164.566 89.1496 164.919 89.0945C164.721 89.1827 164.368 89.1055 164.159 89.1055C163.62 89.1055 164.555 89.2488 164.093 89.0835C163.972 89.0504 163.851 89.0174 163.741 88.9733C164.049 89.1165 164.082 89.1276 163.829 89.0063C163.719 88.9512 163.609 88.8851 163.51 88.808C163.741 88.9953 163.796 89.0394 163.653 88.9182C163.587 88.8631 163.521 88.797 163.455 88.7308C163.278 88.5215 163.289 88.5545 163.51 88.83C163.411 88.786 163.168 88.3121 163.157 88.2129C163.278 88.5105 163.312 88.5766 163.245 88.4003C163.212 88.3121 163.19 88.2239 163.168 88.1468C163.135 88.0256 163.113 87.9154 163.091 87.7942C163.135 88.1688 163.146 88.2129 163.113 87.9264C163.113 87.717 163.124 87.4966 163.113 87.2873C163.124 87.0889 163.113 87.1661 163.069 87.4966C163.091 87.3754 163.113 87.2542 163.135 87.133C163.179 86.9236 163.234 86.6151 163.356 86.4277C162.992 86.9897 163.378 86.4498 163.433 86.3506C163.499 86.2294 163.576 86.1192 163.653 86.009C163.466 86.2404 163.455 86.2514 163.631 86.042C163.796 85.8657 163.95 85.6894 164.126 85.5351C164.203 85.469 164.28 85.4029 164.357 85.3368C164.115 85.5131 164.104 85.5241 164.335 85.3588C164.754 85.0943 165.161 84.8629 165.601 84.6425C165.051 84.907 165.854 84.5544 165.975 84.5213C166.24 84.4332 166.504 84.367 166.779 84.3009C168.067 83.9924 168.948 82.4606 168.54 81.1934C168.133 79.8379 166.834 79.0886 165.458 79.4192Z" fill="#EB6100"/>
<path id="Vector_74" d="M181.717 81.4358C181.695 81.3697 181.662 81.3035 181.639 81.2374C181.551 81.8876 181.474 82.5378 181.386 83.1879C181.419 83.1438 181.441 83.0887 181.474 83.0447C180.968 83.4304 180.473 83.816 179.966 84.2017C179.614 84.1577 179.262 84.1026 178.91 84.0585C178.524 83.5516 178.139 83.0557 177.754 82.5488C177.776 82.6259 177.809 82.7031 177.831 82.7802C177.831 82.3284 177.831 81.8876 177.831 81.4358C178.084 81.2595 178.051 81.3256 177.71 81.6452C177.534 81.8655 177.368 82.097 177.192 82.3174C176.928 82.7251 176.719 83.1438 176.587 83.6177C176.301 84.6756 176.466 85.8767 176.983 86.8355C177.952 88.6206 179.922 89.8769 181.981 89.8218C184.215 89.7557 186.087 88.3672 187.408 86.6702C188.706 85.0172 189.466 82.5378 191.26 81.3476C189.994 80.6203 188.729 79.893 187.463 79.1657C188.321 87.2322 188.288 95.4088 187.187 103.442C186.868 105.767 186.571 109.723 184.083 110.847C181.298 112.104 177.908 108.93 176.059 107.244C173.67 105.051 170.092 108.621 172.492 110.814C175.42 113.492 179.229 116.49 183.456 116.126C187.793 115.751 190.38 112.269 191.414 108.313C192.581 103.85 192.834 98.9902 193.033 94.395C193.242 89.3039 193.055 84.2238 192.515 79.1547C192.328 77.4026 190.468 75.8157 188.718 76.9728C186.483 78.4605 185.415 80.5873 184.006 82.7802C183.566 83.4634 183.015 84.3009 182.245 84.6425C181.915 84.7858 181.783 84.6646 181.684 84.7197C181.639 84.6866 181.584 84.6535 181.54 84.6205C181.397 84.3891 181.364 84.5103 181.43 85.0172C183.401 83.9042 183.059 80.5322 181.265 79.5294C179.207 78.3833 175.761 80.1024 176.851 82.7471C177.368 84.0034 178.524 84.907 179.955 84.5103C181.144 84.2128 182.245 82.7141 181.717 81.4358Z" fill="#EB6100"/>
<path id="Vector_75" d="M197.337 71.9368C197.105 73.0608 196.885 74.1848 196.654 75.3198C196.544 75.6504 196.533 75.992 196.61 76.3226C196.621 76.6642 196.72 76.9728 196.907 77.2593C197.061 77.5568 197.282 77.7882 197.557 77.9646C197.799 78.185 198.085 78.3392 198.415 78.4164C199.065 78.5596 199.791 78.5266 200.364 78.1629C200.892 77.8213 201.398 77.2924 201.52 76.6532C201.751 75.5292 201.971 74.4052 202.202 73.2702C202.312 72.9396 202.323 72.598 202.246 72.2674C202.235 71.9258 202.136 71.6172 201.949 71.3307C201.795 71.0332 201.575 70.8017 201.299 70.6254C201.057 70.405 200.771 70.2508 200.441 70.1736C199.791 70.0304 199.065 70.0634 198.492 70.4271C197.964 70.7687 197.458 71.2866 197.337 71.9368Z" fill="#EB6100"/>
<path id="Vector_76" d="M214.399 76.51C212.142 75.5182 209.632 75.6504 207.607 77.1381C205.405 78.758 204.448 81.2705 204.899 83.9483C205.284 86.2073 206.814 88.257 208.818 89.3259C209.599 89.7447 210.447 90.0422 211.217 90.505C211.305 90.5601 211.757 90.9017 211.515 90.6813C211.272 90.461 211.493 90.6813 211.537 90.7254C211.856 91.0009 211.515 90.7144 211.471 90.6152C211.647 91.034 211.416 90.1855 211.482 90.6483C211.46 90.5271 211.482 90.3287 211.46 90.2295C211.405 90.0091 211.372 90.4059 211.471 90.2185C211.614 89.943 211.416 90.2957 211.394 90.2957C211.57 90.1965 211.537 90.1193 211.35 90.2957C211.339 90.3067 211.052 90.5601 211.25 90.3948C211.449 90.2295 210.931 90.6042 210.931 90.6042C210.381 90.9458 209.797 91.2323 209.203 91.4858C208.917 91.607 208.08 91.8825 207.585 92.0258C206.825 92.2461 206.055 92.4004 205.273 92.5216C203.963 92.72 203.127 94.4391 203.512 95.6292C203.974 97.0507 205.218 97.6127 206.616 97.3924C208.311 97.1279 209.907 96.632 211.482 95.9598C212.847 95.3757 214.245 94.6815 215.224 93.5355C216.468 92.0808 216.864 90.1193 215.995 88.3672C215.422 87.2212 214.355 86.4167 213.232 85.8547C212.77 85.6233 212.285 85.4139 211.823 85.1935C211.581 85.0833 211.339 84.9621 211.107 84.8299C210.975 84.7527 210.854 84.6756 210.733 84.5874C210.953 84.7638 210.953 84.7527 210.733 84.5654C210.656 84.4772 210.106 83.805 210.403 84.2458C210.238 84.0034 210.084 83.7499 209.963 83.4855C210.205 83.9814 209.885 83.1549 209.852 83.0557C209.797 82.7582 209.786 82.7692 209.83 83.0777C209.819 82.9345 209.808 82.7912 209.808 82.6369C209.808 82.4937 209.808 82.3504 209.83 82.1962C209.786 82.5047 209.786 82.5157 209.852 82.2182C209.885 82.0749 209.93 81.9317 209.985 81.7994C209.863 82.086 209.863 82.097 209.996 81.8435C210.062 81.7223 210.139 81.6121 210.216 81.4909C210.029 81.7333 210.029 81.7444 210.216 81.524C210.315 81.4248 210.414 81.3256 210.513 81.2374C210.271 81.4138 210.271 81.4248 210.502 81.2595C210.623 81.1934 211.394 80.8628 210.821 81.0501C211.085 80.9619 211.339 80.8848 211.614 80.8407C210.964 80.9509 211.801 80.8848 211.955 80.8958C211.14 80.8297 212.538 81.1713 211.856 80.8738C213.056 81.4027 214.619 81.2705 215.312 79.9702C215.874 78.8792 215.687 77.083 214.399 76.51Z" fill="#EB6100"/>
<path id="Vector_77" d="M236.91 68.5648C236.425 80.2898 235.93 92.0037 235.446 103.729C235.313 106.98 240.355 106.969 240.487 103.729C240.971 92.0037 241.467 80.2898 241.951 68.5648C242.083 65.3139 237.042 65.3139 236.91 68.5648Z" fill="#EB6100"/>
<path id="Vector_78" d="M243.173 70.8348C245.925 70.383 248.853 69.9092 251.583 70.7467C252.497 71.0222 253.399 71.5842 254.093 72.2784C254.742 72.9286 255.249 73.8101 255.359 74.5044C255.414 74.824 255.403 75.2097 255.304 75.5733C255.149 76.1904 254.962 76.521 254.621 77.061C254.005 78.0307 253.069 78.9453 252.144 79.7277C250.394 81.2264 248.182 82.3394 245.914 82.9345C244.505 83.3092 243.382 83.5295 241.907 83.4304C241.478 83.3973 240.982 83.232 240.861 83.1108C240.85 83.0998 240.718 82.8133 240.773 82.9896C240.861 83.254 240.74 83.0116 240.773 83.0337C240.773 82.8794 240.773 82.8684 240.773 82.9896C240.762 83.1659 240.795 83.1108 240.872 82.8353C241.39 81.5791 240.311 80.0583 239.111 79.7277C237.658 79.331 236.535 80.2236 236.007 81.4909C235.225 83.3642 236.084 85.6784 237.581 86.9346C239.166 88.279 241.269 88.5876 243.272 88.4443C246.894 88.1799 250.471 87.0118 253.487 84.9731C256.426 82.9896 259.674 79.9922 260.257 76.3116C260.874 72.4768 258.683 68.9394 255.447 66.9889C251.319 64.4985 246.31 65.2148 241.797 65.9531C240.454 66.1735 239.706 67.8485 240.036 69.0606C240.465 70.4932 241.819 71.0442 243.173 70.8348Z" fill="#EB6100"/>
<path id="Vector_79" d="M259.476 87.2762C261.281 91.5188 263.075 95.7614 264.88 100.004C265.365 101.161 267.005 101.47 268.029 101.04C269.228 100.533 269.746 99.3098 269.493 98.0646C269.328 97.2381 269.173 96.4006 269.03 95.5741C268.953 95.0892 269.041 95.7394 269.008 95.4419C268.986 95.2545 268.964 95.0562 268.942 94.8688C268.909 94.4501 268.876 94.0313 268.876 93.6126C268.865 93.1938 268.898 92.7861 268.92 92.3674C268.953 91.8715 268.865 92.5547 268.931 92.2572C268.964 92.0698 268.997 91.8935 269.041 91.7062C269.096 91.4858 269.151 91.2654 269.217 91.056C269.239 90.9899 269.427 90.3838 269.306 90.7475C269.195 91.0781 269.361 90.6373 269.394 90.5711C269.471 90.4279 269.559 90.2736 269.647 90.1304C269.702 90.0422 269.867 89.6345 269.735 89.9761C269.614 90.2957 269.768 89.932 269.856 89.8328C270.065 89.6014 270.307 89.4141 270.516 89.1827C270.715 88.9623 270.087 89.4582 270.472 89.2157C270.615 89.1276 270.748 89.0284 270.891 88.9402C271.012 88.8741 271.133 88.808 271.254 88.7419C271.738 88.4774 271.188 88.786 271.177 88.7639C271.166 88.7309 271.969 88.5325 272.024 88.5105C272.311 88.4113 271.452 88.5325 271.903 88.5215C272.057 88.5215 272.212 88.4994 272.377 88.5105C272.476 88.5105 272.938 88.4994 272.509 88.5105C272.101 88.5215 272.509 88.5215 272.63 88.5545C272.707 88.5766 272.784 88.5986 272.85 88.6207C273.026 88.6868 272.949 88.6537 272.619 88.5215C272.619 88.5325 273.026 88.7529 273.048 88.7639C274.171 89.4582 275.877 89.0394 276.505 87.8603C277.154 86.6261 276.802 85.1494 275.602 84.4001C272.101 82.2292 267.808 84.1026 265.574 87.166C263.009 90.6813 263.824 95.4529 264.627 99.3979C266.168 98.7478 267.698 98.0976 269.239 97.4475C267.434 93.2049 265.64 88.9623 263.835 84.7197C263.317 83.4965 261.424 83.1438 260.378 83.8161C259.112 84.6315 258.914 85.9649 259.476 87.2762Z" fill="#EB6100"/>
<path id="Vector_80" d="M274.501 91.5188C274.743 92.3674 274.919 93.2379 275.041 94.1085C275.008 93.8881 274.986 93.6567 274.952 93.4363C275.162 95.0121 275.162 96.5879 274.964 98.1637C274.997 97.9433 275.019 97.7119 275.052 97.4915C275.041 97.5356 275.041 97.5797 275.03 97.6348C274.93 98.34 274.908 98.9351 275.283 99.5853C275.591 100.114 276.185 100.61 276.791 100.742C277.44 100.886 278.167 100.853 278.739 100.489C279.246 100.158 279.818 99.6073 279.895 98.9792C280.093 97.5025 280.214 96.0479 280.115 94.5493C280.005 93.0726 279.774 91.596 279.367 90.1744C279.003 88.9072 277.572 87.9925 276.262 88.4113C274.964 88.83 274.105 90.1524 274.501 91.5188Z" fill="#EB6100"/>
<path id="Vector_81" d="M276.879 78.9233C277.33 79.1547 277.782 79.3751 278.233 79.6065C278.519 79.7939 278.838 79.893 279.168 79.9041C279.499 79.9812 279.84 79.9592 280.17 79.86C280.5 79.7828 280.787 79.6286 281.029 79.4082C281.304 79.2319 281.524 78.9894 281.678 78.7029C281.766 78.5046 281.843 78.2952 281.931 78.0968C282.053 77.645 282.053 77.2042 281.931 76.7524C281.843 76.5541 281.766 76.3447 281.678 76.1463C281.458 75.7717 281.15 75.4631 280.776 75.2427C280.324 75.0113 279.873 74.7909 279.422 74.5595C279.135 74.3722 278.816 74.273 278.486 74.262C278.156 74.1848 277.815 74.2069 277.484 74.306C277.154 74.3832 276.868 74.5375 276.626 74.7578C276.35 74.9342 276.13 75.1766 275.976 75.4631C275.888 75.6615 275.811 75.8708 275.723 76.0692C275.602 76.521 275.602 76.9618 275.723 77.4136C275.811 77.612 275.888 77.8213 275.976 78.0197C276.196 78.3944 276.494 78.7029 276.879 78.9233Z" fill="#EB6100"/>
<path id="Vector_82" d="M291.024 84.4442C289.34 84.8078 287.545 85.2707 286.103 86.2735C284.254 87.5628 283.131 89.37 282.955 91.629C282.823 93.4032 283.506 95.3427 284.562 96.7532C285.883 98.5274 287.6 99.6624 289.681 100.401C291.816 101.15 294.139 101.293 296.374 101.426C297.695 101.503 298.96 100.202 298.894 98.9021C298.828 97.4585 297.783 96.4667 296.374 96.3785C295.834 96.3455 295.284 96.3124 294.745 96.2684C294.502 96.2463 294.271 96.2243 294.029 96.2022C293.897 96.1912 293.126 96.1251 293.787 96.1802C292.785 96.092 291.794 95.7835 290.837 95.4749C290.573 95.3758 290.584 95.3758 290.881 95.508C290.76 95.4529 290.639 95.3978 290.518 95.3427C290.341 95.2545 290.165 95.1554 289.989 95.0562C289.934 95.0231 289.362 94.7146 289.373 94.6595C289.659 94.8909 289.703 94.9239 289.494 94.7476C289.406 94.6705 289.329 94.6044 289.252 94.5272C289.131 94.417 289.009 94.2958 288.899 94.1746C288.822 94.0975 288.756 94.0093 288.679 93.9212C288.899 94.2187 288.932 94.2517 288.767 94.0313C288.646 93.844 288.525 93.6677 288.415 93.4693C288.36 93.3702 288.305 93.271 288.261 93.1718C288.173 92.9735 288.162 92.9735 288.25 93.1718C288.327 93.3702 288.327 93.3702 288.25 93.1718C288.217 93.0726 288.173 92.9624 288.14 92.8633C288.074 92.6539 288.03 92.4445 287.986 92.2351C287.865 91.7503 287.975 92.8302 287.997 92.2021C287.997 92.0147 287.997 91.8384 288.008 91.6511C288.03 91.3756 288.03 91.4417 287.975 91.8605C287.997 91.7613 288.019 91.6511 288.041 91.5519C288.063 91.4527 288.096 91.3536 288.129 91.2544C287.964 91.607 287.942 91.6621 288.063 91.4197C288.151 91.2764 288.228 91.1332 288.316 90.9899C288.47 90.7695 288.448 90.8026 288.228 91.1001C288.305 91.0119 288.371 90.9348 288.459 90.8577C288.536 90.7805 288.624 90.7034 288.701 90.6263C288.91 90.4499 288.866 90.483 288.58 90.7144C288.69 90.6814 288.899 90.505 289.009 90.4389C289.208 90.3177 289.417 90.2295 289.615 90.1193C289.868 90.0091 289.824 90.0202 289.494 90.1634C289.604 90.1193 289.714 90.0753 289.824 90.0422C290.65 89.7447 291.519 89.5353 292.378 89.348C293.666 89.0615 294.546 87.4856 294.139 86.2404C293.688 84.8519 292.411 84.1467 291.024 84.4442Z" fill="#EB6100"/>
<path id="Vector_83" d="M302.505 95.2435C307.007 95.8606 312.522 94.7807 314.36 90.0312C315.758 86.4167 313.777 81.3036 309.682 80.6203C304.552 79.7498 301.03 84.9511 300.799 89.5022C300.568 94.1856 303.54 98.2849 307.514 100.478C312.786 103.376 318.819 102.99 324.587 102.373C325.941 102.23 327.107 101.315 327.107 99.8497C327.107 98.5935 325.952 97.183 324.587 97.3262C320.8 97.7229 316.815 98.2409 313.072 97.2821C310.321 96.5769 307.492 94.9349 306.325 92.4114C305.378 90.3728 305.708 87.6619 307.326 86.2073C307.492 86.0531 308.097 85.7886 308.526 85.5682C308.537 85.5682 308.978 85.5572 308.658 85.5461C308.35 85.5351 308.79 85.5792 308.878 85.6123C309.154 85.7114 308.812 85.5792 308.79 85.5682C308.801 85.5792 309.297 85.9208 309.088 85.7445C308.845 85.5351 309.517 86.2955 309.209 85.8547C309.275 85.9539 309.671 86.6922 309.495 86.2845C309.605 86.5489 309.66 86.8244 309.737 87.0889C309.836 87.4856 309.726 86.7253 309.748 87.133C309.759 87.3313 309.759 87.5297 309.759 87.7391C309.759 87.7721 309.715 88.1578 309.759 87.8823C309.803 87.5738 309.671 88.1909 309.66 88.246C309.638 88.3341 309.473 88.6647 309.649 88.3121C309.583 88.4553 309.495 88.5986 309.407 88.7308C309.11 89.1496 308.614 89.5243 307.998 89.8328C306.886 90.3948 305.059 90.5601 303.837 90.3948C302.494 90.2075 301.129 90.7254 300.733 92.158C300.425 93.3261 301.151 95.0562 302.505 95.2435Z" fill="#EB6100"/>
</g>
<path id="Vector_84" d="M354.88 32.1776C355.607 42.8557 355.574 53.5669 354.77 64.234C354.649 65.8539 357.17 65.8429 357.291 64.234C358.094 53.5669 358.127 42.8557 357.401 32.1776C357.291 30.5687 354.77 30.5577 354.88 32.1776Z" fill="#040000"/>
<path id="Vector_85" d="M307.866 601.743C307.91 603.198 307.954 604.652 307.998 606.107C308.02 606.812 308.042 607.506 308.064 608.212C308.086 608.917 308.152 609.622 308.614 610.184C309.176 610.867 309.979 610.989 310.805 611.011C311.509 611.022 312.214 611.033 312.918 611.055C314.382 611.088 315.835 611.11 317.299 611.143C317.96 611.154 318.587 610.548 318.565 609.876C318.532 609.181 318.015 608.63 317.299 608.608C316.001 608.586 314.702 608.564 313.403 608.531C312.775 608.52 312.159 608.509 311.531 608.498C311.212 608.487 310.893 608.487 310.574 608.476C310.508 608.476 310.442 608.476 310.376 608.465C310.475 608.487 310.486 608.487 310.398 608.465C310.31 608.443 310.321 608.443 310.409 608.476C310.607 608.719 310.673 608.774 310.596 608.653C310.552 608.575 310.563 608.586 310.618 608.708C310.607 608.675 310.596 608.631 310.596 608.597C310.607 608.752 310.607 608.752 310.596 608.597C310.596 608.564 310.596 608.52 310.585 608.487C310.574 608.179 310.563 607.87 310.552 607.573C310.53 606.922 310.519 606.283 310.497 605.633C310.464 604.344 310.42 603.043 310.387 601.754C310.365 601.093 309.825 600.465 309.121 600.487C308.46 600.509 307.844 601.038 307.866 601.743Z" fill="#040000"/>
<path id="Vector_86" d="M300.777 603.143C302.219 604.112 303.364 605.005 304.674 606.151C305.95 607.275 307.15 608.487 308.284 609.755C308.724 610.25 309.627 610.239 310.067 609.755C310.552 609.226 310.541 608.498 310.067 607.969C307.712 605.303 305.004 602.955 302.054 600.961C301.503 600.586 300.634 600.84 300.325 601.413C299.984 602.052 300.193 602.746 300.777 603.143Z" fill="#040000"/>
</g>
</g>
<defs>
<linearGradient id="paint0_linear_1_95" x1="173.501" y1="274.573" x2="68.8024" y2="260.432" gradientUnits="userSpaceOnUse">
<stop stop-color="#182348"/>
<stop offset="0.236" stop-color="#1C2E67"/>
<stop offset="0.4973" stop-color="#0B569A"/>
<stop offset="0.6549" stop-color="#1384B4"/>
<stop offset="1" stop-color="#B8E0E7"/>
</linearGradient>
</defs>
</svg>
