<?xml version="1.0" encoding="utf-8"?>
<!-- Generator: Adobe Illustrator 26.3.1, SVG Export Plug-In . SVG Version: 6.00 Build 0)  -->
<svg version="1.1" id="图层_1" xmlns="http://www.w3.org/2000/svg" xmlns:xlink="http://www.w3.org/1999/xlink" x="0px" y="0px"
	 viewBox="0 0 254 411" style="enable-background:new 0 0 254 411;" xml:space="preserve">
<style type="text/css">
	.st0{fill:#8DA57A;}
	.st1{fill:#231815;}
</style>
<g id="图层_2_00000128451849363705979560000009927483428983696308_">
</g>
<g>
	<path class="st0" d="M68.8,269.2c-17.3-8.2-32.4-20.9-43.4-36.5c-11.5-16.4-18.4-38.5-9.6-56.5c6.8-13.8,21.5-22.7,27.2-37
		c7.2-18.2-2.3-38.6-1.1-58.1C43,62.1,54.3,45,67.7,31.3c6.7-7,14.3-13.4,23.3-16.8c8-3,16.8-3.3,25.3-3.3c14.9,0,30,1.1,44.2,5.7
		s27.5,12.9,36,25.2c9.6,13.8,12.1,32.3,6.8,48.2c-2.8,8.4-7.8,16.1-9.5,24.9c-0.6,2.8-0.8,6,0.6,8.5c1.2,2.1,3.3,3.5,5.4,4.7
		c7,4.2,14.5,7.8,20.7,13.2c5.6,4.9,9.9,11.2,13.3,17.9c12.3,24.7,11.2,55.7-3,79.4c-14.1,23.7-40.8,39.5-68.4,40.4
		C130.8,280.2,95.6,285.6,68.8,269.2z"/>
</g>
<g>
	<g>
		<path class="st1" d="M116.2,126.3c0,35.5,0,71,0,106.5c0,35.3,0,70.6,0,105.9c0,19.9,0,39.8,0,59.8c0,2.6,2.3,5.1,5,5s5-2.2,5-5
			c0-35.5,0-71,0-106.5c0-35.3,0-70.6,0-105.9c0-19.9,0-39.8,0-59.8c0-2.6-2.3-5.1-5-5S116.2,123.5,116.2,126.3L116.2,126.3z"/>
	</g>
</g>
<g>
	<g>
		<path class="st1" d="M124.9,181.2c10.7-12.9,22.7-24.8,35.6-35.5c2-1.7,1.9-5.4,0-7.1c-2.2-2-4.9-1.8-7.1,0
			c-12.9,10.7-24.9,22.6-35.6,35.5c-1.7,2-2.1,5.1,0,7.1C119.7,182.9,123.1,183.4,124.9,181.2L124.9,181.2z"/>
	</g>
</g>
<g>
	<g>
		<path class="st1" d="M124.9,211.4c-12.3-10-24.7-20-37-29.9c-2-1.6-5.1-2.1-7.1,0c-1.7,1.8-2.2,5.3,0,7.1c12.3,10,24.7,20,37,29.9
			c2,1.6,5.1,2.1,7.1,0C126.6,216.7,127.1,213.2,124.9,211.4L124.9,211.4z"/>
	</g>
</g>
<g>
	<g>
		<path class="st1" d="M123.3,133.1c-5.4-4.8-11.4-8.4-18.1-11.1c-1.1-0.5-2.9-0.1-3.9,0.5s-2,1.8-2.3,3c-0.3,1.3-0.2,2.7,0.5,3.9
			s1.7,1.8,3,2.3c0.3,0.1,0.7,0.3,1,0.4c-0.4-0.2-0.8-0.3-1.2-0.5c4.2,1.8,8.2,4.1,11.9,6.9c-0.3-0.3-0.7-0.5-1-0.8
			c1,0.8,2,1.6,3,2.5c2,1.7,5.2,2.1,7.1,0C125.1,138.2,125.4,134.9,123.3,133.1L123.3,133.1z"/>
	</g>
</g>
<g>
	<g>
		<path class="st1" d="M122.8,247.8c19.5-10.7,38.7-22,57.6-33.8c5.3-3.3,10.6-6.7,15.9-10.1c2.2-1.4,3.3-4.5,1.8-6.8
			c-1.4-2.2-4.5-3.3-6.8-1.8c-18.7,12.1-37.7,23.7-57,34.7c-5.5,3.1-11,6.2-16.5,9.2c-2.3,1.3-3.2,4.6-1.8,6.8
			C117.4,248.3,120.3,249.1,122.8,247.8L122.8,247.8z"/>
	</g>
</g>
<g>
	<g>
		<path class="st1" d="M108.1,404.8c9.6,0,19.1,0,28.7,0c2.6,0,5.1-2.3,5-5s-2.2-5-5-5c-9.6,0-19.1,0-28.7,0c-2.6,0-5.1,2.3-5,5
			C103.2,402.5,105.3,404.8,108.1,404.8L108.1,404.8z"/>
	</g>
</g>
</svg>
